{
copyright = "Copyright (c) 2015, Cadson Demak (info@cadsondemak.com)";
customParameters = (
{
name = vendorID;
value = CDK;
},
{
name = description;
value = "Copyright (c) 2015, Cadson Demak (info@cadsondemak.com)";
},
{
name = license;

glyphs = (
{
glyphname = A;
lastChange = "2015-10-28 09:02:19 +0000";
layers = (
{
layerId = "493B3A41-641C-4718-8E4F-15C1585391FA";
name = "Regular Italic";
paths = (
{
closed = 1;
nodes = (
"113 0 LINE",
"217 174 LINE",
"526 174 LINE",
"560 0 LINE",
"661 0 LINE",
"530 699 LINE",
"432 699 LINE",
"5 0 LINE"
);
},
{
closed = 1;
nodes = (
"460 586 LINE",
"517 259 LINE",
"265 259 LINE"
);
}
);
width = 746;
}
);
leftKerningGroup = A;
note = A;
rightKerningGroup = A;
unicode = 0041;
},
{
glyphname = Aacute;
lastChange = "2015-10-28 09:02:18 +0000";
layers = (
{
layerId = "493B3A41-641C-4718-8E4F-15C1585391FA";
name = "Regular Italic";
paths = (
{
closed = 1;
nodes = (
"113 0 LINE",
"217 174 LINE",
"526 174 LINE",
"560 0 LINE",
"661 0 LINE",
"530 699 LINE",
"432 699 LINE",
"5 0 LINE"
);
},
{
closed = 1;
nodes = (
"460 586 LINE",
"517 259 LINE",
"265 259 LINE"
);
},
{
closed = 1;
nodes = (
"541 741 LINE",
"661 913 LINE",
"554 913 LINE",
"449 741 LINE"
);
}
);
width = 746;
}
);
leftKerningGroup = A;
note = Aacute;
rightKerningGroup = A;
unicode = 00C1;
},
{
glyphname = Abreve;
lastChange = "2015-10-28 09:02:19 +0000";
layers = (
{
layerId = "493B3A41-641C-4718-8E4F-15C1585391FA";
name = "Regular Italic";
paths = (
{
closed = 1;
nodes = (
"113 0 LINE",
"217 174 LINE",
"526 174 LINE",
"560 0 LINE",
"661 0 LINE",
"530 699 LINE",
"432 699 LINE",
"5 0 LINE"
);
},
{
closed = 1;
nodes = (
"460 586 LINE",
"517 259 LINE",
"265 259 LINE"
);
},
{
closed = 1;
nodes = (
"582 742 OFFCURVE",
"652 800 OFFCURVE",
"669 882 CURVE",
"589 882 LINE",
"579 837 OFFCURVE",
"547 811 OFFCURVE",
"501 811 CURVE SMOOTH",
"455 811 OFFCURVE",
"433 837 OFFCURVE",
"443 882 CURVE",
"368 882 LINE",
"352 800 OFFCURVE",
"395 742 OFFCURVE",
"489 742 CURVE SMOOTH"
);
}
);
width = 746;
}
);
leftKerningGroup = A;
note = Abreve;
rightKerningGroup = A;
unicode = 0102;
},
{
glyphname = Abreveacute;
lastChange = "2015-10-28 09:02:19 +0000";
layers = (
{
layerId = "493B3A41-641C-4718-8E4F-15C1585391FA";
name = "Regular Italic";
paths = (
{
closed = 1;
nodes = (
"113 0 LINE",
"217 174 LINE",
"526 174 LINE",
"560 0 LINE",
"661 0 LINE",
"530 699 LINE",
"432 699 LINE",
"5 0 LINE"
);
},
{
closed = 1;
nodes = (
"460 586 LINE",
"517 259 LINE",
"265 259 LINE"
);
},
{
closed = 1;
nodes = (
"581 742 OFFCURVE",
"648 798 OFFCURVE",
"665 879 CURVE",
"588 879 LINE",
"579 835 OFFCURVE",
"547 809 OFFCURVE",
"501 809 CURVE SMOOTH",
"456 809 OFFCURVE",
"436 835 OFFCURVE",
"445 879 CURVE",
"373 879 LINE",
"356 798 OFFCURVE",
"399 742 OFFCURVE",
"490 742 CURVE SMOOTH"
);
},
{
closed = 1;
nodes = (
"549 874 LINE",
"640 998 LINE",
"557 998 LINE",
"479 874 LINE"
);
}
);
width = 746;
}
);
leftKerningGroup = A;
note = Abreveacute;
rightKerningGroup = A;
unicode = 1EAE;
},
{
glyphname = Abrevedotbelow;
lastChange = "2015-10-28 09:02:19 +0000";
layers = (
{
layerId = "493B3A41-641C-4718-8E4F-15C1585391FA";
name = "Regular Italic";
paths = (
{
closed = 1;
nodes = (
"113 0 LINE",
"217 174 LINE",
"526 174 LINE",
"560 0 LINE",
"661 0 LINE",
"530 699 LINE",
"432 699 LINE",
"5 0 LINE"
);
},
{
closed = 1;
nodes = (
"330 -166 OFFCURVE",
"361 -140 OFFCURVE",
"368 -108 CURVE SMOOTH",
"374 -76 OFFCURVE",
"354 -50 OFFCURVE",
"324 -50 CURVE SMOOTH",
"292 -50 OFFCURVE",
"259 -76 OFFCURVE",
"253 -108 CURVE SMOOTH",
"246 -140 OFFCURVE",
"267 -166 OFFCURVE",
"299 -166 CURVE SMOOTH"
);
},
{
closed = 1;
nodes = (
"460 586 LINE",
"517 259 LINE",
"265 259 LINE"
);
},
{
closed = 1;
nodes = (
"582 742 OFFCURVE",
"652 800 OFFCURVE",
"669 882 CURVE",
"589 882 LINE",
"579 837 OFFCURVE",
"547 811 OFFCURVE",
"501 811 CURVE SMOOTH",
"455 811 OFFCURVE",
"433 837 OFFCURVE",
"443 882 CURVE",
"368 882 LINE",
"352 800 OFFCURVE",
"395 742 OFFCURVE",
"489 742 CURVE SMOOTH"
);
}
);
width = 746;
}
);
leftKerningGroup = A;
note = Abrevedotbelow;
rightKerningGroup = A;
unicode = 1EB6;
},
{
glyphname = Abrevegrave;
lastChange = "2015-10-28 09:02:19 +0000";
layers = (
{
layerId = "493B3A41-641C-4718-8E4F-15C1585391FA";
name = "Regular Italic";
paths = (
{
closed = 1;
nodes = (
"113 0 LINE",
"217 174 LINE",
"526 174 LINE",
"560 0 LINE",
"661 0 LINE",
"530 699 LINE",
"432 699 LINE",
"5 0 LINE"
);
},
{
closed = 1;
nodes = (
"460 586 LINE",
"517 259 LINE",
"265 259 LINE"
);
},
{
closed = 1;
nodes = (
"581 742 OFFCURVE",
"648 798 OFFCURVE",
"665 879 CURVE",
"588 879 LINE",
"579 835 OFFCURVE",
"547 809 OFFCURVE",
"501 809 CURVE SMOOTH",
"456 809 OFFCURVE",
"436 835 OFFCURVE",
"445 879 CURVE",
"373 879 LINE",
"356 798 OFFCURVE",
"399 742 OFFCURVE",
"490 742 CURVE SMOOTH"
);
},
{
closed = 1;
nodes = (
"558 874 LINE",
"532 998 LINE",
"449 998 LINE",
"488 874 LINE"
);
}
);
width = 746;
}
);
leftKerningGroup = A;
note = Abrevegrave;
rightKerningGroup = A;
unicode = 1EB0;
},
{
glyphname = Abrevehookabove;
lastChange = "2015-10-28 09:02:19 +0000";
layers = (
{
layerId = "493B3A41-641C-4718-8E4F-15C1585391FA";
name = "Regular Italic";
paths = (
{
closed = 1;
nodes = (
"113 0 LINE",
"217 174 LINE",
"526 174 LINE",
"560 0 LINE",
"661 0 LINE",
"530 699 LINE",
"432 699 LINE",
"5 0 LINE"
);
},
{
closed = 1;
nodes = (
"460 586 LINE",
"517 259 LINE",
"265 259 LINE"
);
},
{
closed = 1;
nodes = (
"582 742 OFFCURVE",
"648 798 OFFCURVE",
"665 879 CURVE",
"590 879 LINE",
"581 835 OFFCURVE",
"547 808 OFFCURVE",
"502 808 CURVE SMOOTH",
"456 808 OFFCURVE",
"435 835 OFFCURVE",
"444 879 CURVE",
"373 879 LINE",
"356 798 OFFCURVE",
"400 742 OFFCURVE",
"491 742 CURVE SMOOTH"
);
},
{
closed = 1;
nodes = (
"547 862 LINE",
"552 886 LINE",
"596 893 OFFCURVE",
"625 918 OFFCURVE",
"632 951 CURVE SMOOTH",
"641 992 OFFCURVE",
"614 1019 OFFCURVE",
"556 1019 CURVE SMOOTH",
"534 1019 OFFCURVE",
"505 1015 OFFCURVE",
"488 1009 CURVE",
"479 967 LINE",
"490 972 OFFCURVE",
"508 975 OFFCURVE",
"523 975 CURVE SMOOTH",
"552 975 OFFCURVE",
"565 967 OFFCURVE",
"560 945 CURVE SMOOTH",
"555 921 OFFCURVE",
"534 912 OFFCURVE",
"494 912 CURVE",
"483 862 LINE"
);
}
);
width = 746;
}
);
leftKerningGroup = A;
note = Abrevehookabove;
rightKerningGroup = A;
unicode = 1EB2;
},
{
glyphname = Abrevetilde;
lastChange = "2015-10-28 09:02:18 +0000";
layers = (
{
layerId = "493B3A41-641C-4718-8E4F-15C1585391FA";
name = "Regular Italic";
paths = (
{
closed = 1;
nodes = (
"113 0 LINE",
"217 174 LINE",
"526 174 LINE",
"560 0 LINE",
"661 0 LINE",
"530 699 LINE",
"432 699 LINE",
"5 0 LINE"
);
},
{
closed = 1;
nodes = (
"460 586 LINE",
"517 259 LINE",
"265 259 LINE"
);
},
{
closed = 1;
nodes = (
"584 742 OFFCURVE",
"651 798 OFFCURVE",
"668 879 CURVE",
"591 879 LINE",
"582 835 OFFCURVE",
"550 809 OFFCURVE",
"504 809 CURVE SMOOTH",
"459 809 OFFCURVE",
"438 835 OFFCURVE",
"447 879 CURVE",
"376 879 LINE",
"359 798 OFFCURVE",
"402 742 OFFCURVE",
"493 742 CURVE SMOOTH"
);
},
{
closed = 1;
nodes = (
"399 939 OFFCURVE",
"426 950 OFFCURVE",
"457 950 CURVE SMOOTH",
"508 950 OFFCURVE",
"545 907 OFFCURVE",
"604 907 CURVE SMOOTH",
"639 907 OFFCURVE",
"668 916 OFFCURVE",
"691 942 CURVE",
"707 1017 LINE",
"677 984 OFFCURVE",
"648 973 OFFCURVE",
"618 973 CURVE SMOOTH",
"566 973 OFFCURVE",
"526 1017 OFFCURVE",
"471 1017 CURVE SMOOTH",
"436 1017 OFFCURVE",
"406 1007 OFFCURVE",
"383 981 CURVE",
"367 906 LINE"
);
}
);
width = 746;
}
);
leftKerningGroup = A;
note = Abrevetilde;
rightKerningGroup = A;
unicode = 1EB4;
},
{
glyphname = Acaron;
lastChange = "2015-10-28 09:02:17 +0000";
layers = (
{
layerId = "493B3A41-641C-4718-8E4F-15C1585391FA";
name = "Regular Italic";
paths = (
{
closed = 1;
nodes = (
"113 0 LINE",
"217 174 LINE",
"526 174 LINE",
"560 0 LINE",
"661 0 LINE",
"530 699 LINE",
"432 699 LINE",
"5 0 LINE"
);
},
{
closed = 1;
nodes = (
"460 586 LINE",
"517 259 LINE",
"265 259 LINE"
);
},
{
closed = 1;
nodes = (
"534 742 LINE",
"712 908 LINE",
"607 908 LINE",
"500 801 LINE",
"439 908 LINE",
"340 908 LINE",
"445 742 LINE"
);
}
);
width = 746;
}
);
leftKerningGroup = A;
note = Acaron;
rightKerningGroup = A;
unicode = 01CD;
},
{
glyphname = Acircumflex;
lastChange = "2015-10-28 09:02:19 +0000";
layers = (
{
layerId = "493B3A41-641C-4718-8E4F-15C1585391FA";
name = "Regular Italic";
paths = (
{
closed = 1;
nodes = (
"113 0 LINE",
"217 174 LINE",
"526 174 LINE",
"560 0 LINE",
"661 0 LINE",
"530 699 LINE",
"432 699 LINE",
"5 0 LINE"
);
},
{
closed = 1;
nodes = (
"460 586 LINE",
"517 259 LINE",
"265 259 LINE"
);
},
{
closed = 1;
nodes = (
"409 741 LINE",
"516 848 LINE",
"577 741 LINE",
"676 741 LINE",
"570 907 LINE",
"481 907 LINE",
"304 741 LINE"
);
}
);
width = 746;
}
);
leftKerningGroup = A;
note = Acircumflex;
rightKerningGroup = A;
unicode = 00C2;
},
{
glyphname = Acircumflexacute;
lastChange = "2015-10-28 09:02:18 +0000";
layers = (
{
layerId = "493B3A41-641C-4718-8E4F-15C1585391FA";
name = "Regular Italic";
paths = (
{
closed = 1;
nodes = (
"113 0 LINE",
"217 174 LINE",
"526 174 LINE",
"560 0 LINE",
"661 0 LINE",
"530 699 LINE",
"432 699 LINE",
"5 0 LINE"
);
},
{
closed = 1;
nodes = (
"460 586 LINE",
"517 259 LINE",
"265 259 LINE"
);
},
{
closed = 1;
nodes = (
"410 747 LINE",
"511 837 LINE",
"574 747 LINE",
"669 747 LINE",
"563 892 LINE",
"477 892 LINE",
"308 747 LINE"
);
},
{
closed = 1;
nodes = (
"699 848 LINE",
"804 972 LINE",
"713 972 LINE",
"622 848 LINE"
);
}
);
width = 746;
}
);
leftKerningGroup = A;
note = Acircumflexacute;
rightKerningGroup = A;
unicode = 1EA4;
},
{
glyphname = Acircumflexdotbelow;
lastChange = "2015-10-28 09:02:19 +0000";
layers = (
{
layerId = "493B3A41-641C-4718-8E4F-15C1585391FA";
name = "Regular Italic";
paths = (
{
closed = 1;
nodes = (
"113 0 LINE",
"217 174 LINE",
"526 174 LINE",
"560 0 LINE",
"661 0 LINE",
"530 699 LINE",
"432 699 LINE",
"5 0 LINE"
);
},
{
closed = 1;
nodes = (
"330 -166 OFFCURVE",
"361 -140 OFFCURVE",
"368 -108 CURVE SMOOTH",
"374 -76 OFFCURVE",
"354 -50 OFFCURVE",
"324 -50 CURVE SMOOTH",
"292 -50 OFFCURVE",
"259 -76 OFFCURVE",
"253 -108 CURVE SMOOTH",
"246 -140 OFFCURVE",
"267 -166 OFFCURVE",
"299 -166 CURVE SMOOTH"
);
},
{
closed = 1;
nodes = (
"460 586 LINE",
"517 259 LINE",
"265 259 LINE"
);
},
{
closed = 1;
nodes = (
"409 741 LINE",
"516 848 LINE",
"577 741 LINE",
"676 741 LINE",
"570 907 LINE",
"481 907 LINE",
"304 741 LINE"
);
}
);
width = 746;
}
);
leftKerningGroup = A;
note = Acircumflexdotbelow;
rightKerningGroup = A;
unicode = 1EAC;
},
{
glyphname = Acircumflexgrave;
lastChange = "2015-10-28 09:02:19 +0000";
layers = (
{
layerId = "493B3A41-641C-4718-8E4F-15C1585391FA";
name = "Regular Italic";
paths = (
{
closed = 1;
nodes = (
"113 0 LINE",
"217 174 LINE",
"526 174 LINE",
"560 0 LINE",
"661 0 LINE",
"530 699 LINE",
"432 699 LINE",
"5 0 LINE"
);
},
{
closed = 1;
nodes = (
"460 586 LINE",
"517 259 LINE",
"265 259 LINE"
);
},
{
closed = 1;
nodes = (
"407 842 LINE",
"367 966 LINE",
"276 966 LINE",
"329 842 LINE"
);
},
{
closed = 1;
nodes = (
"417 741 LINE",
"518 831 LINE",
"581 741 LINE",
"676 741 LINE",
"570 886 LINE",
"484 886 LINE",
"315 741 LINE"
);
}
);
width = 746;
}
);
leftKerningGroup = A;
note = Acircumflexgrave;
rightKerningGroup = A;
unicode = 1EA6;
},
{
glyphname = Acircumflexhookabove;
lastChange = "2015-10-28 09:02:18 +0000";
layers = (
{
layerId = "493B3A41-641C-4718-8E4F-15C1585391FA";
name = "Regular Italic";
paths = (
{
closed = 1;
nodes = (
"113 0 LINE",
"217 174 LINE",
"526 174 LINE",
"560 0 LINE",
"661 0 LINE",
"530 699 LINE",
"432 699 LINE",
"5 0 LINE"
);
},
{
closed = 1;
nodes = (
"460 586 LINE",
"517 259 LINE",
"265 259 LINE"
);
},
{
closed = 1;
nodes = (
"413 747 LINE",
"514 837 LINE",
"577 747 LINE",
"672 747 LINE",
"566 892 LINE",
"480 892 LINE",
"311 747 LINE"
);
},
{
closed = 1;
nodes = (
"689 839 LINE",
"694 864 LINE",
"737 870 OFFCURVE",
"767 896 OFFCURVE",
"774 929 CURVE SMOOTH",
"783 970 OFFCURVE",
"755 997 OFFCURVE",
"697 997 CURVE SMOOTH",
"675 997 OFFCURVE",
"646 992 OFFCURVE",
"630 987 CURVE",
"621 944 LINE",
"632 949 OFFCURVE",
"650 952 OFFCURVE",
"665 952 CURVE SMOOTH",
"694 952 OFFCURVE",
"706 944 OFFCURVE",
"702 923 CURVE",
"696 899 OFFCURVE",
"675 889 OFFCURVE",
"636 889 CURVE",
"626 839 LINE"
);
}
);
width = 746;
}
);
leftKerningGroup = A;
note = Acircumflexhookabove;
rightKerningGroup = A;
unicode = 1EA8;
},
{
glyphname = Acircumflextilde;
lastChange = "2015-10-28 09:02:18 +0000";
layers = (
{
layerId = "493B3A41-641C-4718-8E4F-15C1585391FA";
name = "Regular Italic";
paths = (
{
closed = 1;
nodes = (
"113 0 LINE",
"217 174 LINE",
"526 174 LINE",
"560 0 LINE",
"661 0 LINE",
"530 699 LINE",
"432 699 LINE",
"5 0 LINE"
);
},
{
closed = 1;
nodes = (
"460 586 LINE",
"517 259 LINE",
"265 259 LINE"
);
},
{
closed = 1;
nodes = (
"400 741 LINE",
"501 831 LINE",
"564 741 LINE",
"659 741 LINE",
"553 886 LINE",
"467 886 LINE",
"298 741 LINE"
);
},
{
closed = 1;
nodes = (
"389 927 OFFCURVE",
"416 938 OFFCURVE",
"447 938 CURVE SMOOTH",
"498 938 OFFCURVE",
"535 895 OFFCURVE",
"594 895 CURVE SMOOTH",
"629 895 OFFCURVE",
"658 904 OFFCURVE",
"681 930 CURVE",
"697 1005 LINE",
"667 972 OFFCURVE",
"638 961 OFFCURVE",
"608 961 CURVE SMOOTH",
"556 961 OFFCURVE",
"516 1005 OFFCURVE",
"461 1005 CURVE SMOOTH",
"426 1005 OFFCURVE",
"396 995 OFFCURVE",
"373 969 CURVE",
"357 894 LINE"
);
}
);
width = 746;
}
);
leftKerningGroup = A;
note = Acircumflextilde;
rightKerningGroup = A;
unicode = 1EAA;
},
{
glyphname = Adieresis;
lastChange = "2015-10-28 09:02:17 +0000";
layers = (
{
layerId = "493B3A41-641C-4718-8E4F-15C1585391FA";
name = "Regular Italic";
paths = (
{
closed = 1;
nodes = (
"113 0 LINE",
"217 174 LINE",
"526 174 LINE",
"560 0 LINE",
"661 0 LINE",
"530 699 LINE",
"432 699 LINE",
"5 0 LINE"
);
},
{
closed = 1;
nodes = (
"460 586 LINE",
"517 259 LINE",
"265 259 LINE"
);
},
{
closed = 1;
nodes = (
"408 741 OFFCURVE",
"439 767 OFFCURVE",
"446 799 CURVE SMOOTH",
"453 831 OFFCURVE",
"433 857 OFFCURVE",
"402 857 CURVE SMOOTH",
"370 857 OFFCURVE",
"338 831 OFFCURVE",
"331 799 CURVE SMOOTH",
"324 767 OFFCURVE",
"346 741 OFFCURVE",
"377 741 CURVE SMOOTH"
);
},
{
closed = 1;
nodes = (
"635 741 OFFCURVE",
"666 767 OFFCURVE",
"673 799 CURVE SMOOTH",
"680 831 OFFCURVE",
"660 857 OFFCURVE",
"629 857 CURVE SMOOTH",
"597 857 OFFCURVE",
"564 831 OFFCURVE",
"557 799 CURVE SMOOTH",
"550 767 OFFCURVE",
"572 741 OFFCURVE",
"604 741 CURVE SMOOTH"
);
}
);
width = 746;
}
);
leftKerningGroup = A;
note = Adieresis;
rightKerningGroup = A;
unicode = 00C4;
},
{
glyphname = Adotbelow;
lastChange = "2015-10-28 09:02:19 +0000";
layers = (
{
layerId = "493B3A41-641C-4718-8E4F-15C1585391FA";
name = "Regular Italic";
paths = (
{
closed = 1;
nodes = (
"113 0 LINE",
"217 174 LINE",
"526 174 LINE",
"560 0 LINE",
"661 0 LINE",
"530 699 LINE",
"432 699 LINE",
"5 0 LINE"
);
},
{
closed = 1;
nodes = (
"329 -166 OFFCURVE",
"360 -140 OFFCURVE",
"367 -108 CURVE SMOOTH",
"373 -76 OFFCURVE",
"353 -50 OFFCURVE",
"323 -50 CURVE SMOOTH",
"291 -50 OFFCURVE",
"258 -76 OFFCURVE",
"252 -108 CURVE SMOOTH",
"245 -140 OFFCURVE",
"266 -166 OFFCURVE",
"298 -166 CURVE SMOOTH"
);
},
{
closed = 1;
nodes = (
"460 586 LINE",
"517 259 LINE",
"265 259 LINE"
);
}
);
width = 746;
}
);
leftKerningGroup = A;
note = Adotbelow;
rightKerningGroup = A;
unicode = 1EA0;
},
{
glyphname = Agrave;
lastChange = "2015-10-28 09:02:18 +0000";
layers = (
{
layerId = "493B3A41-641C-4718-8E4F-15C1585391FA";
name = "Regular Italic";
paths = (
{
closed = 1;
nodes = (
"113 0 LINE",
"217 174 LINE",
"526 174 LINE",
"560 0 LINE",
"661 0 LINE",
"530 699 LINE",
"432 699 LINE",
"5 0 LINE"
);
},
{
closed = 1;
nodes = (
"460 586 LINE",
"517 259 LINE",
"265 259 LINE"
);
},
{
closed = 1;
nodes = (
"533 741 LINE",
"501 913 LINE",
"394 913 LINE",
"440 741 LINE"
);
}
);
width = 746;
}
);
leftKerningGroup = A;
note = Agrave;
rightKerningGroup = A;
unicode = 00C0;
},
{
glyphname = Ahookabove;
lastChange = "2015-10-28 09:02:18 +0000";
layers = (
{
layerId = "493B3A41-641C-4718-8E4F-15C1585391FA";
name = "Regular Italic";
paths = (
{
closed = 1;
nodes = (
"113 0 LINE",
"217 174 LINE",
"526 174 LINE",
"560 0 LINE",
"661 0 LINE",
"530 699 LINE",
"432 699 LINE",
"5 0 LINE"
);
},
{
closed = 1;
nodes = (
"460 586 LINE",
"517 259 LINE",
"265 259 LINE"
);
},
{
closed = 1;
nodes = (
"535 742 LINE",
"542 776 LINE",
"604 784 OFFCURVE",
"644 822 OFFCURVE",
"654 870 CURVE SMOOTH",
"666 927 OFFCURVE",
"632 967 OFFCURVE",
"544 967 CURVE SMOOTH",
"512 967 OFFCURVE",
"475 961 OFFCURVE",
"454 954 CURVE",
"442 899 LINE",
"456 905 OFFCURVE",
"492 910 OFFCURVE",
"508 910 CURVE SMOOTH",
"554 910 OFFCURVE",
"571 897 OFFCURVE",
"564 866 CURVE SMOOTH",
"556 827 OFFCURVE",
"521 813 OFFCURVE",
"461 813 CURVE",
"446 742 LINE"
);
}
);
width = 746;
}
);
leftKerningGroup = A;
note = Ahookabove;
rightKerningGroup = A;
unicode = 1EA2;
},
{
glyphname = Amacron;
lastChange = "2015-10-28 09:02:19 +0000";
layers = (
{
layerId = "493B3A41-641C-4718-8E4F-15C1585391FA";
name = "Regular Italic";
paths = (
{
closed = 1;
nodes = (
"113 0 LINE",
"217 174 LINE",
"526 174 LINE",
"560 0 LINE",
"661 0 LINE",
"530 699 LINE",
"432 699 LINE",
"5 0 LINE"
);
},
{
closed = 1;
nodes = (
"460 586 LINE",
"517 259 LINE",
"265 259 LINE"
);
},
{
closed = 1;
nodes = (
"648 752 LINE",
"663 821 LINE",
"352 821 LINE",
"337 752 LINE"
);
}
);
width = 746;
}
);
leftKerningGroup = A;
note = Amacron;
rightKerningGroup = A;
unicode = 0100;
},
{
glyphname = Aogonek;
lastChange = "2015-10-28 09:02:17 +0000";
layers = (
{
layerId = "493B3A41-641C-4718-8E4F-15C1585391FA";
name = "Regular Italic";
paths = (
{
closed = 1;
nodes = (
"581 -212 OFFCURVE",
"611 -207 OFFCURVE",
"631 -200 CURVE",
"644 -139 LINE",
"629 -145 OFFCURVE",
"612 -149 OFFCURVE",
"594 -149 CURVE SMOOTH",
"567 -149 OFFCURVE",
"554 -135 OFFCURVE",
"560 -106 CURVE SMOOTH",
"569 -65 OFFCURVE",
"602 -33 OFFCURVE",
"661 0 CURVE",
"530 699 LINE",
"432 699 LINE",
"5 0 LINE",
"113 0 LINE",
"217 174 LINE",
"526 174 LINE",
"560 0 LINE",
"520 -27 OFFCURVE",
"479 -70 OFFCURVE",
"468 -122 CURVE SMOOTH",
"455 -183 OFFCURVE",
"494 -212 OFFCURVE",
"552 -212 CURVE SMOOTH"
);
},
{
closed = 1;
nodes = (
"460 586 LINE",
"517 259 LINE",
"265 259 LINE"
);
}
);
width = 746;
}
);
leftKerningGroup = A;
note = Aogonek;
rightKerningGroup = A;
unicode = 0104;
},
{
glyphname = Aring;
lastChange = "2015-10-28 09:02:18 +0000";
layers = (
{
layerId = "493B3A41-641C-4718-8E4F-15C1585391FA";
name = "Regular Italic";
paths = (
{
closed = 1;
nodes = (
"113 0 LINE",
"217 174 LINE",
"526 174 LINE",
"560 0 LINE",
"661 0 LINE",
"535 669 LINE",
"573 689 OFFCURVE",
"601 726 OFFCURVE",
"611 769 CURVE SMOOTH",
"625 833 OFFCURVE",
"584 885 OFFCURVE",
"520 885 CURVE SMOOTH",
"449 885 OFFCURVE",
"393 833 OFFCURVE",
"379 769 CURVE SMOOTH",
"369 726 OFFCURVE",
"384 689 OFFCURVE",
"413 669 CURVE",
"5 0 LINE"
);
},
{
closed = 1;
nodes = (
"460 586 LINE",
"517 259 LINE",
"265 259 LINE"
);
},
{
closed = 1;
nodes = (
"446 714 OFFCURVE",
"435 739 OFFCURVE",
"441 769 CURVE SMOOTH",
"447 798 OFFCURVE",
"476 823 OFFCURVE",
"506 823 CURVE SMOOTH",
"542 823 OFFCURVE",
"555 798 OFFCURVE",
"549 769 CURVE SMOOTH",
"543 739 OFFCURVE",
"512 714 OFFCURVE",
"483 714 CURVE SMOOTH"
);
}
);
width = 746;
}
);
leftKerningGroup = A;
note = Aring;
rightKerningGroup = A;
unicode = 00C5;
},
{
glyphname = Aringacute;
lastChange = "2015-10-28 09:02:19 +0000";
layers = (
{
layerId = "493B3A41-641C-4718-8E4F-15C1585391FA";
name = "Regular Italic";
paths = (
{
closed = 1;
nodes = (
"113 0 LINE",
"217 174 LINE",
"526 174 LINE",
"560 0 LINE",
"661 0 LINE",
"535 669 LINE",
"573 689 OFFCURVE",
"601 726 OFFCURVE",
"611 769 CURVE SMOOTH",
"625 833 OFFCURVE",
"584 885 OFFCURVE",
"520 885 CURVE SMOOTH",
"449 885 OFFCURVE",
"393 833 OFFCURVE",
"379 769 CURVE SMOOTH",
"369 726 OFFCURVE",
"384 689 OFFCURVE",
"413 669 CURVE",
"5 0 LINE"
);
},
{
closed = 1;
nodes = (
"460 586 LINE",
"517 259 LINE",
"265 259 LINE"
);
},
{
closed = 1;
nodes = (
"446 714 OFFCURVE",
"435 739 OFFCURVE",
"441 769 CURVE SMOOTH",
"447 798 OFFCURVE",
"476 823 OFFCURVE",
"506 823 CURVE SMOOTH",
"542 823 OFFCURVE",
"555 798 OFFCURVE",
"549 769 CURVE SMOOTH",
"543 739 OFFCURVE",
"512 714 OFFCURVE",
"483 714 CURVE SMOOTH"
);
},
{
closed = 1;
nodes = (
"596 912 LINE",
"716 1050 LINE",
"609 1050 LINE",
"504 912 LINE"
);
}
);
width = 746;
}
);
leftKerningGroup = A;
note = Aringacute;
rightKerningGroup = A;
unicode = 01FA;
},
{
glyphname = Atilde;
lastChange = "2015-10-28 09:02:19 +0000";
layers = (
{
layerId = "493B3A41-641C-4718-8E4F-15C1585391FA";
name = "Regular Italic";
paths = (
{
closed = 1;
nodes = (
"113 0 LINE",
"217 174 LINE",
"526 174 LINE",
"560 0 LINE",
"661 0 LINE",
"530 699 LINE",
"432 699 LINE",
"5 0 LINE"
);
},
{
closed = 1;
nodes = (
"460 586 LINE",
"517 259 LINE",
"265 259 LINE"
);
},
{
closed = 1;
nodes = (
"339 782 OFFCURVE",
"374 794 OFFCURVE",
"410 794 CURVE SMOOTH",
"474 794 OFFCURVE",
"511 744 OFFCURVE",
"584 744 CURVE SMOOTH",
"625 744 OFFCURVE",
"662 755 OFFCURVE",
"689 786 CURVE",
"707 872 LINE",
"672 833 OFFCURVE",
"638 821 OFFCURVE",
"601 821 CURVE SMOOTH",
"536 821 OFFCURVE",
"494 871 OFFCURVE",
"426 871 CURVE SMOOTH",
"386 871 OFFCURVE",
"348 859 OFFCURVE",
"319 828 CURVE",
"301 742 LINE"
);
}
);
width = 746;
}
);
leftKerningGroup = A;
note = Atilde;
rightKerningGroup = A;
unicode = 00C3;
},
{
glyphname = AE;
lastChange = "2015-10-28 09:02:18 +0000";
layers = (
{
layerId = "493B3A41-641C-4718-8E4F-15C1585391FA";
name = "Regular Italic";
paths = (
{
closed = 1;
nodes = (
"113 0 LINE",
"238 179 LINE",
"453 179 LINE",
"415 0 LINE",
"837 0 LINE",
"855 85 LINE",
"535 85 LINE",
"582 307 LINE",
"811 307 LINE",
"829 392 LINE",
"600 392 LINE",
"647 613 LINE",
"967 613 LINE",
"985 699 LINE",
"496 699 LINE",
"5 0 LINE"
);
},
{
closed = 1;
nodes = (
"536 607 LINE",
"544 607 LINE",
"470 259 LINE",
"296 259 LINE"
);
}
);
width = 922;
}
);
leftKerningGroup = A;
note = AE;
rightKerningGroup = E;
unicode = 00C6;
},
{
glyphname = AEacute;
lastChange = "2015-10-28 09:02:20 +0000";
layers = (
{
layerId = "493B3A41-641C-4718-8E4F-15C1585391FA";
name = "Regular Italic";
paths = (
{
closed = 1;
nodes = (
"113 0 LINE",
"238 179 LINE",
"453 179 LINE",
"415 0 LINE",
"837 0 LINE",
"855 85 LINE",
"535 85 LINE",
"582 307 LINE",
"811 307 LINE",
"829 392 LINE",
"600 392 LINE",
"647 613 LINE",
"967 613 LINE",
"985 699 LINE",
"496 699 LINE",
"5 0 LINE"
);
},
{
closed = 1;
nodes = (
"536 607 LINE",
"544 607 LINE",
"470 259 LINE",
"296 259 LINE"
);
},
{
closed = 1;
nodes = (
"720 741 LINE",
"840 913 LINE",
"733 913 LINE",
"628 741 LINE"
);
}
);
width = 922;
}
);
leftKerningGroup = A;
note = AEacute;
rightKerningGroup = E;
unicode = 01FC;
},
{
glyphname = B;
lastChange = "2015-10-28 09:02:19 +0000";
layers = (
{
layerId = "493B3A41-641C-4718-8E4F-15C1585391FA";
name = "Regular Italic";
paths = (
{
closed = 1;
nodes = (
"363 0 LINE SMOOTH",
"490 0 OFFCURVE",
"579 73 OFFCURVE",
"606 198 CURVE SMOOTH",
"623 278 OFFCURVE",
"595 340 OFFCURVE",
"528 361 CURVE",
"586 386 OFFCURVE",
"633 440 OFFCURVE",
"649 511 CURVE SMOOTH",
"676 629 OFFCURVE",
"609 699 OFFCURVE",
"494 699 CURVE SMOOTH",
"173 699 LINE",
"25 0 LINE"
);
},
{
closed = 1;
nodes = (
"193 315 LINE",
"397 315 LINE SMOOTH",
"488 315 OFFCURVE",
"521 284 OFFCURVE",
"503 198 CURVE SMOOTH",
"484 110 OFFCURVE",
"442 83 OFFCURVE",
"357 83 CURVE SMOOTH",
"144 83 LINE"
);
},
{
closed = 1;
nodes = (
"257 616 LINE",
"456 616 LINE SMOOTH",
"529 616 OFFCURVE",
"563 590 OFFCURVE",
"545 506 CURVE SMOOTH",
"530 433 OFFCURVE",
"480 399 OFFCURVE",
"417 399 CURVE SMOOTH",
"211 399 LINE"
);
}
);
width = 649;
}
);
note = B;
unicode = 0042;
},
{
glyphname = C;
lastChange = "2015-10-28 09:02:17 +0000";
layers = (
{
layerId = "493B3A41-641C-4718-8E4F-15C1585391FA";
name = "Regular Italic";
paths = (
{
closed = 1;
nodes = (
"471 -15 OFFCURVE",
"561 6 OFFCURVE",
"637 60 CURVE",
"658 159 LINE",
"578 100 OFFCURVE",
"496 77 OFFCURVE",
"400 77 CURVE SMOOTH",
"227 77 OFFCURVE",
"146 181 OFFCURVE",
"182 349 CURVE SMOOTH",
"217 516 OFFCURVE",
"345 620 OFFCURVE",
"515 620 CURVE SMOOTH",
"606 620 OFFCURVE",
"681 597 OFFCURVE",
"731 543 CURVE",
"752 641 LINE",
"697 690 OFFCURVE",
"623 714 OFFCURVE",
"526 714 CURVE SMOOTH",
"298 714 OFFCURVE",
"126 571 OFFCURVE",
"79 349 CURVE SMOOTH",
"31 127 OFFCURVE",
"175 -15 OFFCURVE",
"371 -15 CURVE SMOOTH"
);
}
);
width = 710;
}
);
leftKerningGroup = C;
note = C;
rightKerningGroup = C;
unicode = 0043;
},
{
glyphname = Cacute;
lastChange = "2015-10-28 09:02:18 +0000";
layers = (
{
layerId = "493B3A41-641C-4718-8E4F-15C1585391FA";
name = "Regular Italic";
paths = (
{
closed = 1;
nodes = (
"471 -15 OFFCURVE",
"561 6 OFFCURVE",
"637 60 CURVE",
"658 159 LINE",
"578 100 OFFCURVE",
"496 77 OFFCURVE",
"400 77 CURVE SMOOTH",
"227 77 OFFCURVE",
"146 181 OFFCURVE",
"182 349 CURVE SMOOTH",
"217 516 OFFCURVE",
"345 620 OFFCURVE",
"515 620 CURVE SMOOTH",
"606 620 OFFCURVE",
"681 597 OFFCURVE",
"731 543 CURVE",
"752 641 LINE",
"697 690 OFFCURVE",
"623 714 OFFCURVE",
"526 714 CURVE SMOOTH",
"298 714 OFFCURVE",
"126 571 OFFCURVE",
"79 349 CURVE SMOOTH",
"31 127 OFFCURVE",
"175 -15 OFFCURVE",
"371 -15 CURVE SMOOTH"
);
},
{
closed = 1;
nodes = (
"576 741 LINE",
"696 913 LINE",
"589 913 LINE",
"484 741 LINE"
);
}
);
width = 710;
}
);
leftKerningGroup = C;
note = Cacute;
rightKerningGroup = C;
unicode = 0106;
},
{
glyphname = Ccaron;
lastChange = "2015-10-28 09:02:20 +0000";
layers = (
{
layerId = "493B3A41-641C-4718-8E4F-15C1585391FA";
name = "Regular Italic";
paths = (
{
closed = 1;
nodes = (
"471 -15 OFFCURVE",
"561 6 OFFCURVE",
"637 60 CURVE",
"658 159 LINE",
"578 100 OFFCURVE",
"496 77 OFFCURVE",
"400 77 CURVE SMOOTH",
"227 77 OFFCURVE",
"146 181 OFFCURVE",
"182 349 CURVE SMOOTH",
"217 516 OFFCURVE",
"345 620 OFFCURVE",
"515 620 CURVE SMOOTH",
"606 620 OFFCURVE",
"681 597 OFFCURVE",
"731 543 CURVE",
"752 641 LINE",
"697 690 OFFCURVE",
"623 714 OFFCURVE",
"526 714 CURVE SMOOTH",
"298 714 OFFCURVE",
"126 571 OFFCURVE",
"79 349 CURVE SMOOTH",
"31 127 OFFCURVE",
"175 -15 OFFCURVE",
"371 -15 CURVE SMOOTH"
);
},
{
closed = 1;
nodes = (
"572 742 LINE",
"750 908 LINE",
"645 908 LINE",
"538 801 LINE",
"477 908 LINE",
"378 908 LINE",
"483 742 LINE"
);
}
);
width = 710;
}
);
leftKerningGroup = C;
note = Ccaron;
rightKerningGroup = C;
unicode = 010C;
},
{
glyphname = Ccedilla;
lastChange = "2015-10-28 09:02:19 +0000";
layers = (
{
layerId = "493B3A41-641C-4718-8E4F-15C1585391FA";
name = "Regular Italic";
paths = (
{
closed = 1;
nodes = (
"399 -248 OFFCURVE",
"458 -210 OFFCURVE",
"470 -151 CURVE SMOOTH",
"481 -99 OFFCURVE",
"459 -64 OFFCURVE",
"400 -56 CURVE",
"426 -13 LINE",
"504 -6 OFFCURVE",
"575 16 OFFCURVE",
"637 60 CURVE",
"658 159 LINE",
"578 100 OFFCURVE",
"496 77 OFFCURVE",
"400 77 CURVE SMOOTH",
"227 77 OFFCURVE",
"146 181 OFFCURVE",
"182 349 CURVE SMOOTH",
"217 516 OFFCURVE",
"345 620 OFFCURVE",
"515 620 CURVE SMOOTH",
"606 620 OFFCURVE",
"681 597 OFFCURVE",
"731 543 CURVE",
"752 641 LINE",
"697 690 OFFCURVE",
"623 714 OFFCURVE",
"526 714 CURVE SMOOTH",
"298 714 OFFCURVE",
"126 571 OFFCURVE",
"79 349 CURVE SMOOTH",
"34 141 OFFCURVE",
"157 3 OFFCURVE",
"334 -13 CURVE",
"290 -89 LINE",
"365 -89 OFFCURVE",
"386 -111 OFFCURVE",
"379 -144 CURVE SMOOTH",
"372 -176 OFFCURVE",
"346 -190 OFFCURVE",
"305 -190 CURVE SMOOTH",
"286 -190 OFFCURVE",
"262 -185 OFFCURVE",
"250 -179 CURVE",
"237 -237 LINE",
"253 -244 OFFCURVE",
"285 -248 OFFCURVE",
"317 -248 CURVE SMOOTH"
);
}
);
width = 710;
}
);
leftKerningGroup = C;
note = Ccedilla;
rightKerningGroup = C;
unicode = 00C7;
},
{
glyphname = Ccircumflex;
lastChange = "2015-10-28 09:02:18 +0000";
layers = (
{
layerId = "493B3A41-641C-4718-8E4F-15C1585391FA";
name = "Regular Italic";
paths = (
{
closed = 1;
nodes = (
"471 -15 OFFCURVE",
"561 6 OFFCURVE",
"637 60 CURVE",
"658 159 LINE",
"578 100 OFFCURVE",
"496 77 OFFCURVE",
"400 77 CURVE SMOOTH",
"227 77 OFFCURVE",
"146 181 OFFCURVE",
"182 349 CURVE SMOOTH",
"217 516 OFFCURVE",
"345 620 OFFCURVE",
"515 620 CURVE SMOOTH",
"606 620 OFFCURVE",
"681 597 OFFCURVE",
"731 543 CURVE",
"752 641 LINE",
"697 690 OFFCURVE",
"623 714 OFFCURVE",
"526 714 CURVE SMOOTH",
"298 714 OFFCURVE",
"126 571 OFFCURVE",
"79 349 CURVE SMOOTH",
"31 127 OFFCURVE",
"175 -15 OFFCURVE",
"371 -15 CURVE SMOOTH"
);
},
{
closed = 1;
nodes = (
"442 741 LINE",
"549 848 LINE",
"610 741 LINE",
"709 741 LINE",
"603 907 LINE",
"514 907 LINE",
"337 741 LINE"
);
}
);
width = 710;
}
);
leftKerningGroup = C;
note = Ccircumflex;
rightKerningGroup = C;
unicode = 0108;
},
{
glyphname = Cdotaccent;
lastChange = "2015-10-28 09:02:17 +0000";
layers = (
{
layerId = "493B3A41-641C-4718-8E4F-15C1585391FA";
name = "Regular Italic";
paths = (
{
closed = 1;
nodes = (
"471 -15 OFFCURVE",
"561 6 OFFCURVE",
"637 60 CURVE",
"658 159 LINE",
"578 100 OFFCURVE",
"496 77 OFFCURVE",
"400 77 CURVE SMOOTH",
"227 77 OFFCURVE",
"146 181 OFFCURVE",
"182 349 CURVE SMOOTH",
"217 516 OFFCURVE",
"345 620 OFFCURVE",
"515 620 CURVE SMOOTH",
"606 620 OFFCURVE",
"681 597 OFFCURVE",
"731 543 CURVE",
"752 641 LINE",
"697 690 OFFCURVE",
"623 714 OFFCURVE",
"526 714 CURVE SMOOTH",
"298 714 OFFCURVE",
"126 571 OFFCURVE",
"79 349 CURVE SMOOTH",
"31 127 OFFCURVE",
"175 -15 OFFCURVE",
"371 -15 CURVE SMOOTH"
);
},
{
closed = 1;
nodes = (
"555 741 OFFCURVE",
"586 767 OFFCURVE",
"593 799 CURVE SMOOTH",
"600 831 OFFCURVE",
"580 857 OFFCURVE",
"549 857 CURVE SMOOTH",
"517 857 OFFCURVE",
"484 831 OFFCURVE",
"477 799 CURVE SMOOTH",
"470 767 OFFCURVE",
"492 741 OFFCURVE",
"524 741 CURVE SMOOTH"
);
}
);
width = 710;
}
);
leftKerningGroup = C;
note = Cdotaccent;
rightKerningGroup = C;
unicode = 010A;
},
{
glyphname = D;
lastChange = "2015-10-28 09:02:18 +0000";
layers = (
{
layerId = "493B3A41-641C-4718-8E4F-15C1585391FA";
name = "Regular Italic";
paths = (
{
closed = 1;
nodes = (
"236 0 LINE SMOOTH",
"484 0 OFFCURVE",
"649 115 OFFCURVE",
"693 353 CURVE SMOOTH",
"731 557 OFFCURVE",
"626 699 OFFCURVE",
"398 699 CURVE SMOOTH",
"173 699 LINE",
"25 0 LINE"
);
},
{
closed = 1;
nodes = (
"257 613 LINE",
"381 613 LINE SMOOTH",
"571 613 OFFCURVE",
"623 510 OFFCURVE",
"590 353 CURVE SMOOTH",
"553 183 OFFCURVE",
"443 85 OFFCURVE",
"253 85 CURVE SMOOTH",
"145 85 LINE"
);
}
);
width = 703;
}
);
note = D;
rightKerningGroup = D;
unicode = 0044;
},
{
glyphname = Eth;
lastChange = "2015-10-28 09:02:18 +0000";
layers = (
{
layerId = "493B3A41-641C-4718-8E4F-15C1585391FA";
name = "Regular Italic";
paths = (
{
closed = 1;
nodes = (
"260 0 LINE SMOOTH",
"508 0 OFFCURVE",
"673 115 OFFCURVE",
"717 353 CURVE SMOOTH",
"755 557 OFFCURVE",
"650 699 OFFCURVE",
"422 699 CURVE SMOOTH",
"197 699 LINE",
"131 388 LINE",
"67 388 LINE",
"50 310 LINE",
"114 310 LINE",
"49 0 LINE"
);
},
{
closed = 1;
nodes = (
"216 310 LINE",
"401 310 LINE",
"418 388 LINE",
"233 388 LINE",
"281 613 LINE",
"405 613 LINE SMOOTH",
"595 613 OFFCURVE",
"648 510 OFFCURVE",
"614 353 CURVE SMOOTH",
"578 183 OFFCURVE",
"467 85 OFFCURVE",
"277 85 CURVE SMOOTH",
"169 85 LINE"
);
}
);
width = 727;
}
);
note = Eth;
rightKerningGroup = D;
unicode = 00D0;
},
{
glyphname = Dcaron;
lastChange = "2015-10-28 09:02:18 +0000";
layers = (
{
layerId = "493B3A41-641C-4718-8E4F-15C1585391FA";
name = "Regular Italic";
paths = (
{
closed = 1;
nodes = (
"236 0 LINE SMOOTH",
"484 0 OFFCURVE",
"649 115 OFFCURVE",
"693 353 CURVE SMOOTH",
"731 557 OFFCURVE",
"626 699 OFFCURVE",
"398 699 CURVE SMOOTH",
"173 699 LINE",
"25 0 LINE"
);
},
{
closed = 1;
nodes = (
"257 613 LINE",
"381 613 LINE SMOOTH",
"571 613 OFFCURVE",
"623 510 OFFCURVE",
"590 353 CURVE SMOOTH",
"553 183 OFFCURVE",
"443 85 OFFCURVE",
"253 85 CURVE SMOOTH",
"145 85 LINE"
);
},
{
closed = 1;
nodes = (
"479 742 LINE",
"657 908 LINE",
"552 908 LINE",
"445 801 LINE",
"384 908 LINE",
"285 908 LINE",
"390 742 LINE"
);
}
);
width = 703;
}
);
note = Dcaron;
rightKerningGroup = D;
unicode = 010E;
},
{
glyphname = Dcroat;
lastChange = "2015-10-28 09:02:19 +0000";
layers = (
{
layerId = "493B3A41-641C-4718-8E4F-15C1585391FA";
name = "Regular Italic";
paths = (
{
closed = 1;
nodes = (
"260 0 LINE SMOOTH",
"508 0 OFFCURVE",
"673 115 OFFCURVE",
"717 353 CURVE SMOOTH",
"755 557 OFFCURVE",
"650 699 OFFCURVE",
"422 699 CURVE SMOOTH",
"197 699 LINE",
"131 388 LINE",
"67 388 LINE",
"50 310 LINE",
"114 310 LINE",
"49 0 LINE"
);
},
{
closed = 1;
nodes = (
"216 310 LINE",
"401 310 LINE",
"418 388 LINE",
"233 388 LINE",
"281 613 LINE",
"405 613 LINE SMOOTH",
"595 613 OFFCURVE",
"648 510 OFFCURVE",
"614 353 CURVE SMOOTH",
"578 183 OFFCURVE",
"467 85 OFFCURVE",
"277 85 CURVE SMOOTH",
"169 85 LINE"
);
}
);
width = 727;
}
);
note = Dcroat;
rightKerningGroup = D;
unicode = 0110;
},
{
glyphname = Ddotbelow;
lastChange = "2015-10-28 09:02:17 +0000";
layers = (
{
layerId = "493B3A41-641C-4718-8E4F-15C1585391FA";
name = "Regular Italic";
paths = (
{
closed = 1;
nodes = (
"236 0 LINE SMOOTH",
"484 0 OFFCURVE",
"649 115 OFFCURVE",
"693 353 CURVE SMOOTH",
"731 557 OFFCURVE",
"626 699 OFFCURVE",
"398 699 CURVE SMOOTH",
"173 699 LINE",
"25 0 LINE"
);
},
{
closed = 1;
nodes = (
"232 -166 OFFCURVE",
"263 -140 OFFCURVE",
"270 -108 CURVE SMOOTH",
"276 -76 OFFCURVE",
"256 -50 OFFCURVE",
"226 -50 CURVE SMOOTH",
"194 -50 OFFCURVE",
"161 -76 OFFCURVE",
"155 -108 CURVE SMOOTH",
"148 -140 OFFCURVE",
"169 -166 OFFCURVE",
"201 -166 CURVE SMOOTH"
);
},
{
closed = 1;
nodes = (
"257 613 LINE",
"381 613 LINE SMOOTH",
"571 613 OFFCURVE",
"623 510 OFFCURVE",
"590 353 CURVE SMOOTH",
"553 183 OFFCURVE",
"443 85 OFFCURVE",
"253 85 CURVE SMOOTH",
"145 85 LINE"
);
}
);
width = 703;
}
);
note = Ddotbelow;
rightKerningGroup = D;
unicode = 1E0C;
},
{
glyphname = Dlinebelow;
lastChange = "2015-10-28 09:02:18 +0000";
layers = (
{
layerId = "493B3A41-641C-4718-8E4F-15C1585391FA";
name = "Regular Italic";
paths = (
{
closed = 1;
nodes = (
"236 0 LINE SMOOTH",
"484 0 OFFCURVE",
"649 115 OFFCURVE",
"693 353 CURVE SMOOTH",
"731 557 OFFCURVE",
"626 699 OFFCURVE",
"398 699 CURVE SMOOTH",
"173 699 LINE",
"25 0 LINE"
);
},
{
closed = 1;
nodes = (
"370 -141 LINE",
"384 -71 LINE",
"71 -71 LINE",
"57 -141 LINE"
);
},
{
closed = 1;
nodes = (
"257 613 LINE",
"381 613 LINE SMOOTH",
"571 613 OFFCURVE",
"623 510 OFFCURVE",
"590 353 CURVE SMOOTH",
"553 183 OFFCURVE",
"443 85 OFFCURVE",
"253 85 CURVE SMOOTH",
"145 85 LINE"
);
}
);
width = 703;
}
);
note = Dlinebelow;
rightKerningGroup = D;
unicode = 1E0E;
},
{
glyphname = E;
lastChange = "2015-10-28 09:02:19 +0000";
layers = (
{
layerId = "493B3A41-641C-4718-8E4F-15C1585391FA";
name = "Regular Italic";
paths = (
{
closed = 1;
nodes = (
"486 0 LINE",
"504 85 LINE",
"145 85 LINE",
"192 307 LINE",
"460 307 LINE",
"478 392 LINE",
"210 392 LINE",
"257 613 LINE",
"616 613 LINE",
"634 699 LINE",
"173 699 LINE",
"25 0 LINE"
);
}
);
width = 566;
}
);
leftKerningGroup = E;
note = E;
rightKerningGroup = E;
unicode = 0045;
},
{
glyphname = Eacute;
lastChange = "2015-10-28 09:02:20 +0000";
layers = (
{
layerId = "493B3A41-641C-4718-8E4F-15C1585391FA";
name = "Regular Italic";
paths = (
{
closed = 1;
nodes = (
"486 0 LINE",
"504 85 LINE",
"145 85 LINE",
"192 307 LINE",
"460 307 LINE",
"478 392 LINE",
"210 392 LINE",
"257 613 LINE",
"616 613 LINE",
"634 699 LINE",
"173 699 LINE",
"25 0 LINE"
);
},
{
closed = 1;
nodes = (
"442 741 LINE",
"562 913 LINE",
"455 913 LINE",
"350 741 LINE"
);
}
);
width = 566;
}
);
leftKerningGroup = E;
note = Eacute;
rightKerningGroup = E;
unicode = 00C9;
},
{
glyphname = Ebreve;
lastChange = "2015-10-28 09:02:18 +0000";
layers = (
{
layerId = "493B3A41-641C-4718-8E4F-15C1585391FA";
name = "Regular Italic";
paths = (
{
closed = 1;
nodes = (
"486 0 LINE",
"504 85 LINE",
"145 85 LINE",
"192 307 LINE",
"460 307 LINE",
"478 392 LINE",
"210 392 LINE",
"257 613 LINE",
"616 613 LINE",
"634 699 LINE",
"173 699 LINE",
"25 0 LINE"
);
},
{
closed = 1;
nodes = (
"512 742 OFFCURVE",
"582 800 OFFCURVE",
"599 882 CURVE",
"519 882 LINE",
"509 837 OFFCURVE",
"477 811 OFFCURVE",
"431 811 CURVE SMOOTH",
"385 811 OFFCURVE",
"363 837 OFFCURVE",
"373 882 CURVE",
"298 882 LINE",
"282 800 OFFCURVE",
"325 742 OFFCURVE",
"419 742 CURVE SMOOTH"
);
}
);
width = 571;
}
);
leftKerningGroup = E;
note = Ebreve;
rightKerningGroup = E;
unicode = 0114;
},
{
glyphname = Ecaron;
lastChange = "2015-10-28 09:02:18 +0000";
layers = (
{
layerId = "493B3A41-641C-4718-8E4F-15C1585391FA";
name = "Regular Italic";
paths = (
{
closed = 1;
nodes = (
"486 0 LINE",
"504 85 LINE",
"145 85 LINE",
"192 307 LINE",
"460 307 LINE",
"478 392 LINE",
"210 392 LINE",
"257 613 LINE",
"616 613 LINE",
"634 699 LINE",
"173 699 LINE",
"25 0 LINE"
);
},
{
closed = 1;
nodes = (
"464 742 LINE",
"642 908 LINE",
"537 908 LINE",
"430 801 LINE",
"369 908 LINE",
"270 908 LINE",
"375 742 LINE"
);
}
);
width = 571;
}
);
leftKerningGroup = E;
note = Ecaron;
rightKerningGroup = E;
unicode = 011A;
},
{
glyphname = Ecircumflex;
lastChange = "2015-10-28 09:02:18 +0000";
layers = (
{
layerId = "493B3A41-641C-4718-8E4F-15C1585391FA";
name = "Regular Italic";
paths = (
{
closed = 1;
nodes = (
"486 0 LINE",
"504 85 LINE",
"145 85 LINE",
"192 307 LINE",
"460 307 LINE",
"478 392 LINE",
"210 392 LINE",
"257 613 LINE",
"616 613 LINE",
"634 699 LINE",
"173 699 LINE",
"25 0 LINE"
);
},
{
closed = 1;
nodes = (
"317 747 LINE",
"424 854 LINE",
"485 747 LINE",
"584 747 LINE",
"478 913 LINE",
"389 913 LINE",
"212 747 LINE"
);
}
);
width = 571;
}
);
leftKerningGroup = E;
note = Ecircumflex;
rightKerningGroup = E;
unicode = 00CA;
},
{
glyphname = Ecircumflexacute;
lastChange = "2015-10-28 09:02:17 +0000";
layers = (
{
layerId = "493B3A41-641C-4718-8E4F-15C1585391FA";
name = "Regular Italic";
paths = (
{
closed = 1;
nodes = (
"486 0 LINE",
"504 85 LINE",
"145 85 LINE",
"192 307 LINE",
"460 307 LINE",
"478 392 LINE",
"210 392 LINE",
"257 613 LINE",
"616 613 LINE",
"634 699 LINE",
"173 699 LINE",
"25 0 LINE"
);
},
{
closed = 1;
nodes = (
"313 741 LINE",
"414 831 LINE",
"477 741 LINE",
"572 741 LINE",
"466 886 LINE",
"380 886 LINE",
"211 741 LINE"
);
},
{
closed = 1;
nodes = (
"602 842 LINE",
"707 966 LINE",
"616 966 LINE",
"525 842 LINE"
);
}
);
width = 568;
}
);
leftKerningGroup = E;
note = Ecircumflexacute;
rightKerningGroup = E;
unicode = 1EBE;
},
{
glyphname = Ecircumflexdotbelow;
lastChange = "2015-10-28 09:02:19 +0000";
layers = (
{
layerId = "493B3A41-641C-4718-8E4F-15C1585391FA";
name = "Regular Italic";
paths = (
{
closed = 1;
nodes = (
"486 0 LINE",
"504 85 LINE",
"145 85 LINE",
"192 307 LINE",
"460 307 LINE",
"478 392 LINE",
"210 392 LINE",
"257 613 LINE",
"616 613 LINE",
"634 699 LINE",
"173 699 LINE",
"25 0 LINE"
);
},
{
closed = 1;
nodes = (
"240 -166 OFFCURVE",
"271 -140 OFFCURVE",
"278 -108 CURVE SMOOTH",
"284 -76 OFFCURVE",
"264 -50 OFFCURVE",
"234 -50 CURVE SMOOTH",
"202 -50 OFFCURVE",
"169 -76 OFFCURVE",
"163 -108 CURVE SMOOTH",
"156 -140 OFFCURVE",
"177 -166 OFFCURVE",
"209 -166 CURVE SMOOTH"
);
},
{
closed = 1;
nodes = (
"322 752 LINE",
"429 859 LINE",
"490 752 LINE",
"589 752 LINE",
"483 918 LINE",
"394 918 LINE",
"217 752 LINE"
);
}
);
width = 571;
}
);
leftKerningGroup = E;
note = Ecircumflexdotbelow;
rightKerningGroup = E;
unicode = 1EC6;
},
{
glyphname = Ecircumflexgrave;
lastChange = "2015-10-28 09:02:19 +0000";
layers = (
{
layerId = "493B3A41-641C-4718-8E4F-15C1585391FA";
name = "Regular Italic";
paths = (
{
closed = 1;
nodes = (
"501 0 LINE",
"519 85 LINE",
"160 85 LINE",
"207 307 LINE",
"475 307 LINE",
"493 392 LINE",
"225 392 LINE",
"272 613 LINE",
"631 613 LINE",
"649 699 LINE",
"188 699 LINE",
"40 0 LINE"
);
},
{
closed = 1;
nodes = (
"326 842 LINE",
"286 966 LINE",
"195 966 LINE",
"248 842 LINE"
);
},
{
closed = 1;
nodes = (
"336 741 LINE",
"437 831 LINE",
"500 741 LINE",
"595 741 LINE",
"489 886 LINE",
"403 886 LINE",
"234 741 LINE"
);
}
);
width = 581;
}
);
leftKerningGroup = E;
note = Ecircumflexgrave;
rightKerningGroup = E;
unicode = 1EC0;
},
{
glyphname = Ecircumflexhookabove;
lastChange = "2015-10-28 09:02:20 +0000";
layers = (
{
layerId = "493B3A41-641C-4718-8E4F-15C1585391FA";
name = "Regular Italic";
paths = (
{
closed = 1;
nodes = (
"486 0 LINE",
"504 85 LINE",
"145 85 LINE",
"192 307 LINE",
"460 307 LINE",
"478 392 LINE",
"210 392 LINE",
"257 613 LINE",
"616 613 LINE",
"634 699 LINE",
"173 699 LINE",
"25 0 LINE"
);
},
{
closed = 1;
nodes = (
"343 741 LINE",
"444 831 LINE",
"507 741 LINE",
"602 741 LINE",
"496 886 LINE",
"410 886 LINE",
"241 741 LINE"
);
},
{
closed = 1;
nodes = (
"619 833 LINE",
"624 858 LINE",
"667 864 OFFCURVE",
"697 890 OFFCURVE",
"704 923 CURVE SMOOTH",
"713 964 OFFCURVE",
"685 991 OFFCURVE",
"627 991 CURVE SMOOTH",
"605 991 OFFCURVE",
"576 986 OFFCURVE",
"560 981 CURVE",
"551 938 LINE",
"562 943 OFFCURVE",
"580 946 OFFCURVE",
"595 946 CURVE SMOOTH",
"624 946 OFFCURVE",
"636 938 OFFCURVE",
"632 917 CURVE",
"626 893 OFFCURVE",
"605 883 OFFCURVE",
"566 883 CURVE",
"556 833 LINE"
);
}
);
width = 574;
}
);
leftKerningGroup = E;
note = Ecircumflexhookabove;
rightKerningGroup = E;
unicode = 1EC2;
},
{
glyphname = Ecircumflextilde;
lastChange = "2015-10-28 09:02:19 +0000";
layers = (
{
layerId = "493B3A41-641C-4718-8E4F-15C1585391FA";
name = "Regular Italic";
paths = (
{
closed = 1;
nodes = (
"486 0 LINE",
"504 85 LINE",
"145 85 LINE",
"192 307 LINE",
"460 307 LINE",
"478 392 LINE",
"210 392 LINE",
"257 613 LINE",
"616 613 LINE",
"634 699 LINE",
"173 699 LINE",
"25 0 LINE"
);
},
{
closed = 1;
nodes = (
"345 741 LINE",
"446 831 LINE",
"509 741 LINE",
"604 741 LINE",
"498 886 LINE",
"412 886 LINE",
"243 741 LINE"
);
},
{
closed = 1;
nodes = (
"334 927 OFFCURVE",
"361 938 OFFCURVE",
"392 938 CURVE SMOOTH",
"443 938 OFFCURVE",
"480 895 OFFCURVE",
"539 895 CURVE SMOOTH",
"574 895 OFFCURVE",
"603 904 OFFCURVE",
"626 930 CURVE",
"642 1005 LINE",
"612 972 OFFCURVE",
"583 961 OFFCURVE",
"553 961 CURVE SMOOTH",
"501 961 OFFCURVE",
"461 1005 OFFCURVE",
"406 1005 CURVE SMOOTH",
"371 1005 OFFCURVE",
"341 995 OFFCURVE",
"318 969 CURVE",
"302 894 LINE"
);
}
);
width = 571;
}
);
leftKerningGroup = E;
note = Ecircumflextilde;
rightKerningGroup = E;
unicode = 1EC4;
},
{
glyphname = Edieresis;
lastChange = "2015-10-28 09:02:18 +0000";
layers = (
{
layerId = "493B3A41-641C-4718-8E4F-15C1585391FA";
name = "Regular Italic";
paths = (
{
closed = 1;
nodes = (
"486 0 LINE",
"504 85 LINE",
"145 85 LINE",
"192 307 LINE",
"460 307 LINE",
"478 392 LINE",
"210 392 LINE",
"257 613 LINE",
"616 613 LINE",
"634 699 LINE",
"173 699 LINE",
"25 0 LINE"
);
},
{
closed = 1;
nodes = (
"322 751 OFFCURVE",
"353 777 OFFCURVE",
"360 809 CURVE SMOOTH",
"367 841 OFFCURVE",
"347 867 OFFCURVE",
"316 867 CURVE SMOOTH",
"284 867 OFFCURVE",
"252 841 OFFCURVE",
"245 809 CURVE SMOOTH",
"238 777 OFFCURVE",
"260 751 OFFCURVE",
"291 751 CURVE SMOOTH"
);
},
{
closed = 1;
nodes = (
"549 751 OFFCURVE",
"580 777 OFFCURVE",
"587 809 CURVE SMOOTH",
"594 841 OFFCURVE",
"574 867 OFFCURVE",
"543 867 CURVE SMOOTH",
"511 867 OFFCURVE",
"478 841 OFFCURVE",
"471 809 CURVE SMOOTH",
"464 777 OFFCURVE",
"486 751 OFFCURVE",
"518 751 CURVE SMOOTH"
);
}
);
width = 571;
}
);
leftKerningGroup = E;
note = Edieresis;
rightKerningGroup = E;
unicode = 00CB;
},
{
glyphname = Edotaccent;
lastChange = "2015-10-28 09:02:18 +0000";
layers = (
{
layerId = "493B3A41-641C-4718-8E4F-15C1585391FA";
name = "Regular Italic";
paths = (
{
closed = 1;
nodes = (
"486 0 LINE",
"504 85 LINE",
"145 85 LINE",
"192 307 LINE",
"460 307 LINE",
"478 392 LINE",
"210 392 LINE",
"257 613 LINE",
"616 613 LINE",
"634 699 LINE",
"173 699 LINE",
"25 0 LINE"
);
},
{
closed = 1;
nodes = (
"446 740 OFFCURVE",
"477 766 OFFCURVE",
"484 798 CURVE SMOOTH",
"491 830 OFFCURVE",
"471 856 OFFCURVE",
"440 856 CURVE SMOOTH",
"408 856 OFFCURVE",
"375 830 OFFCURVE",
"368 798 CURVE SMOOTH",
"361 766 OFFCURVE",
"383 740 OFFCURVE",
"415 740 CURVE SMOOTH"
);
}
);
width = 571;
}
);
leftKerningGroup = E;
note = Edotaccent;
rightKerningGroup = E;
unicode = 0116;
},
{
glyphname = Edotbelow;
lastChange = "2015-10-28 09:02:18 +0000";
layers = (
{
layerId = "493B3A41-641C-4718-8E4F-15C1585391FA";
name = "Regular Italic";
paths = (
{
closed = 1;
nodes = (
"486 0 LINE",
"504 85 LINE",
"145 85 LINE",
"192 307 LINE",
"460 307 LINE",
"478 392 LINE",
"210 392 LINE",
"257 613 LINE",
"616 613 LINE",
"634 699 LINE",
"173 699 LINE",
"25 0 LINE"
);
},
{
closed = 1;
nodes = (
"242 -166 OFFCURVE",
"273 -140 OFFCURVE",
"280 -108 CURVE SMOOTH",
"286 -76 OFFCURVE",
"266 -50 OFFCURVE",
"236 -50 CURVE SMOOTH",
"204 -50 OFFCURVE",
"171 -76 OFFCURVE",
"165 -108 CURVE SMOOTH",
"158 -140 OFFCURVE",
"179 -166 OFFCURVE",
"211 -166 CURVE SMOOTH"
);
}
);
width = 571;
}
);
leftKerningGroup = E;
note = Edotbelow;
rightKerningGroup = E;
unicode = 1EB8;
},
{
glyphname = Egrave;
lastChange = "2015-10-28 09:02:18 +0000";
layers = (
{
layerId = "493B3A41-641C-4718-8E4F-15C1585391FA";
name = "Regular Italic";
paths = (
{
closed = 1;
nodes = (
"486 0 LINE",
"504 85 LINE",
"145 85 LINE",
"192 307 LINE",
"460 307 LINE",
"478 392 LINE",
"210 392 LINE",
"257 613 LINE",
"616 613 LINE",
"634 699 LINE",
"173 699 LINE",
"25 0 LINE"
);
},
{
closed = 1;
nodes = (
"460 754 LINE",
"428 926 LINE",
"321 926 LINE",
"367 754 LINE"
);
}
);
width = 571;
}
);
leftKerningGroup = E;
note = Egrave;
rightKerningGroup = E;
unicode = 00C8;
},
{
glyphname = Ehookabove;
lastChange = "2015-10-28 09:02:19 +0000";
layers = (
{
layerId = "493B3A41-641C-4718-8E4F-15C1585391FA";
name = "Regular Italic";
paths = (
{
closed = 1;
nodes = (
"486 0 LINE",
"504 85 LINE",
"145 85 LINE",
"192 307 LINE",
"460 307 LINE",
"478 392 LINE",
"210 392 LINE",
"257 613 LINE",
"616 613 LINE",
"634 699 LINE",
"173 699 LINE",
"25 0 LINE"
);
},
{
closed = 1;
nodes = (
"444 742 LINE",
"451 776 LINE",
"513 784 OFFCURVE",
"553 822 OFFCURVE",
"563 870 CURVE SMOOTH",
"575 927 OFFCURVE",
"541 967 OFFCURVE",
"453 967 CURVE SMOOTH",
"421 967 OFFCURVE",
"384 961 OFFCURVE",
"363 954 CURVE",
"351 899 LINE",
"365 905 OFFCURVE",
"401 910 OFFCURVE",
"417 910 CURVE SMOOTH",
"463 910 OFFCURVE",
"480 897 OFFCURVE",
"473 866 CURVE SMOOTH",
"465 827 OFFCURVE",
"430 813 OFFCURVE",
"370 813 CURVE",
"355 742 LINE"
);
}
);
width = 571;
}
);
leftKerningGroup = E;
note = Ehookabove;
rightKerningGroup = E;
unicode = 1EBA;
},
{
glyphname = Emacron;
lastChange = "2015-10-28 09:02:18 +0000";
layers = (
{
layerId = "493B3A41-641C-4718-8E4F-15C1585391FA";
name = "Regular Italic";
paths = (
{
closed = 1;
nodes = (
"486 0 LINE",
"504 85 LINE",
"145 85 LINE",
"192 307 LINE",
"460 307 LINE",
"478 392 LINE",
"210 392 LINE",
"257 613 LINE",
"616 613 LINE",
"634 699 LINE",
"173 699 LINE",
"25 0 LINE"
);
},
{
closed = 1;
nodes = (
"576 762 LINE",
"591 831 LINE",
"280 831 LINE",
"265 762 LINE"
);
}
);
width = 571;
}
);
leftKerningGroup = E;
note = Emacron;
rightKerningGroup = E;
unicode = 0112;
},
{
glyphname = Eogonek;
lastChange = "2015-10-28 09:02:18 +0000";
layers = (
{
layerId = "493B3A41-641C-4718-8E4F-15C1585391FA";
name = "Regular Italic";
paths = (
{
closed = 1;
nodes = (
"406 -212 OFFCURVE",
"436 -207 OFFCURVE",
"456 -200 CURVE",
"469 -139 LINE",
"454 -145 OFFCURVE",
"437 -149 OFFCURVE",
"419 -149 CURVE SMOOTH",
"392 -149 OFFCURVE",
"379 -135 OFFCURVE",
"385 -106 CURVE SMOOTH",
"394 -65 OFFCURVE",
"427 -33 OFFCURVE",
"486 0 CURVE",
"504 85 LINE",
"145 85 LINE",
"192 307 LINE",
"460 307 LINE",
"478 392 LINE",
"210 392 LINE",
"257 613 LINE",
"616 613 LINE",
"634 699 LINE",
"173 699 LINE",
"25 0 LINE",
"392 0 LINE",
"345 -27 OFFCURVE",
"304 -70 OFFCURVE",
"293 -122 CURVE SMOOTH",
"280 -183 OFFCURVE",
"319 -212 OFFCURVE",
"377 -212 CURVE SMOOTH"
);
}
);
width = 571;
}
);
leftKerningGroup = E;
note = Eogonek;
rightKerningGroup = E;
unicode = 0118;
},
{
glyphname = Etilde;
lastChange = "2015-10-28 09:02:18 +0000";
layers = (
{
layerId = "493B3A41-641C-4718-8E4F-15C1585391FA";
name = "Regular Italic";
paths = (
{
closed = 1;
nodes = (
"486 0 LINE",
"504 85 LINE",
"145 85 LINE",
"192 307 LINE",
"460 307 LINE",
"478 392 LINE",
"210 392 LINE",
"257 613 LINE",
"616 613 LINE",
"634 699 LINE",
"173 699 LINE",
"25 0 LINE"
);
},
{
closed = 1;
nodes = (
"257 796 OFFCURVE",
"292 808 OFFCURVE",
"328 808 CURVE SMOOTH",
"392 808 OFFCURVE",
"429 758 OFFCURVE",
"502 758 CURVE SMOOTH",
"543 758 OFFCURVE",
"580 769 OFFCURVE",
"607 800 CURVE",
"625 886 LINE",
"590 847 OFFCURVE",
"556 835 OFFCURVE",
"519 835 CURVE SMOOTH",
"454 835 OFFCURVE",
"412 885 OFFCURVE",
"344 885 CURVE SMOOTH",
"304 885 OFFCURVE",
"266 873 OFFCURVE",
"237 842 CURVE",
"219 756 LINE"
);
}
);
width = 571;
}
);
leftKerningGroup = E;
note = Etilde;
rightKerningGroup = E;
unicode = 1EBC;
},
{
glyphname = F;
lastChange = "2015-10-28 09:02:18 +0000";
layers = (
{
layerId = "493B3A41-641C-4718-8E4F-15C1585391FA";
name = "Regular Italic";
paths = (
{
closed = 1;
nodes = (
"127 0 LINE",
"192 309 LINE",
"460 309 LINE",
"477 390 LINE",
"209 390 LINE",
"257 613 LINE",
"616 613 LINE",
"634 699 LINE",
"173 699 LINE",
"25 0 LINE"
);
}
);
width = 551;
}
);
note = F;
unicode = 0046;
},
{
glyphname = G;
lastChange = "2015-10-28 09:02:17 +0000";
layers = (
{
layerId = "493B3A41-641C-4718-8E4F-15C1585391FA";
name = "Regular Italic";
paths = (
{
closed = 1;
nodes = (
"476 -15 OFFCURVE",
"567 6 OFFCURVE",
"643 60 CURVE",
"711 380 LINE",
"476 380 LINE",
"459 297 LINE",
"592 297 LINE",
"553 114 LINE",
"513 89 OFFCURVE",
"456 77 OFFCURVE",
"396 77 CURVE SMOOTH",
"220 77 OFFCURVE",
"146 181 OFFCURVE",
"182 349 CURVE SMOOTH",
"217 516 OFFCURVE",
"357 620 OFFCURVE",
"515 620 CURVE SMOOTH",
"615 620 OFFCURVE",
"681 596 OFFCURVE",
"731 544 CURVE",
"752 642 LINE",
"697 691 OFFCURVE",
"624 714 OFFCURVE",
"526 714 CURVE SMOOTH",
"309 714 OFFCURVE",
"126 571 OFFCURVE",
"79 349 CURVE SMOOTH",
"31 127 OFFCURVE",
"165 -15 OFFCURVE",
"371 -15 CURVE SMOOTH"
);
}
);
width = 716;
}
);
leftKerningGroup = C;
note = G;
unicode = 0047;
},
{
glyphname = Gbreve;
lastChange = "2015-10-28 09:02:18 +0000";
layers = (
{
layerId = "493B3A41-641C-4718-8E4F-15C1585391FA";
name = "Regular Italic";
paths = (
{
closed = 1;
nodes = (
"476 -15 OFFCURVE",
"567 6 OFFCURVE",
"643 60 CURVE",
"711 380 LINE",
"476 380 LINE",
"459 297 LINE",
"592 297 LINE",
"553 114 LINE",
"513 89 OFFCURVE",
"456 77 OFFCURVE",
"396 77 CURVE SMOOTH",
"220 77 OFFCURVE",
"146 181 OFFCURVE",
"182 349 CURVE SMOOTH",
"217 516 OFFCURVE",
"357 620 OFFCURVE",
"515 620 CURVE SMOOTH",
"615 620 OFFCURVE",
"681 596 OFFCURVE",
"731 544 CURVE",
"752 642 LINE",
"697 691 OFFCURVE",
"624 714 OFFCURVE",
"526 714 CURVE SMOOTH",
"309 714 OFFCURVE",
"126 571 OFFCURVE",
"79 349 CURVE SMOOTH",
"31 127 OFFCURVE",
"165 -15 OFFCURVE",
"371 -15 CURVE SMOOTH"
);
},
{
closed = 1;
nodes = (
"628 742 OFFCURVE",
"698 800 OFFCURVE",
"715 882 CURVE",
"635 882 LINE",
"625 837 OFFCURVE",
"593 811 OFFCURVE",
"547 811 CURVE SMOOTH",
"501 811 OFFCURVE",
"479 837 OFFCURVE",
"489 882 CURVE",
"414 882 LINE",
"398 800 OFFCURVE",
"441 742 OFFCURVE",
"535 742 CURVE SMOOTH"
);
}
);
width = 716;
}
);
leftKerningGroup = C;
note = Gbreve;
unicode = 011E;
},
{
glyphname = Gcaron;
lastChange = "2015-10-28 09:02:18 +0000";
layers = (
{
layerId = "493B3A41-641C-4718-8E4F-15C1585391FA";
name = "Regular Italic";
paths = (
{
closed = 1;
nodes = (
"476 -15 OFFCURVE",
"567 6 OFFCURVE",
"643 60 CURVE",
"711 380 LINE",
"476 380 LINE",
"459 297 LINE",
"592 297 LINE",
"553 114 LINE",
"513 89 OFFCURVE",
"456 77 OFFCURVE",
"396 77 CURVE SMOOTH",
"220 77 OFFCURVE",
"146 181 OFFCURVE",
"182 349 CURVE SMOOTH",
"217 516 OFFCURVE",
"357 620 OFFCURVE",
"515 620 CURVE SMOOTH",
"615 620 OFFCURVE",
"681 596 OFFCURVE",
"731 544 CURVE",
"752 642 LINE",
"697 691 OFFCURVE",
"624 714 OFFCURVE",
"526 714 CURVE SMOOTH",
"309 714 OFFCURVE",
"126 571 OFFCURVE",
"79 349 CURVE SMOOTH",
"31 127 OFFCURVE",
"165 -15 OFFCURVE",
"371 -15 CURVE SMOOTH"
);
},
{
closed = 1;
nodes = (
"540 753 LINE",
"718 919 LINE",
"613 919 LINE",
"506 812 LINE",
"445 919 LINE",
"346 919 LINE",
"451 753 LINE"
);
}
);
width = 716;
}
);
leftKerningGroup = C;
note = Gcaron;
unicode = 01E6;
},
{
glyphname = Gcircumflex;
lastChange = "2015-10-28 09:02:17 +0000";
layers = (
{
layerId = "493B3A41-641C-4718-8E4F-15C1585391FA";
name = "Regular Italic";
paths = (
{
closed = 1;
nodes = (
"476 -15 OFFCURVE",
"567 6 OFFCURVE",
"643 60 CURVE",
"711 380 LINE",
"476 380 LINE",
"459 297 LINE",
"592 297 LINE",
"553 114 LINE",
"513 89 OFFCURVE",
"456 77 OFFCURVE",
"396 77 CURVE SMOOTH",
"220 77 OFFCURVE",
"146 181 OFFCURVE",
"182 349 CURVE SMOOTH",
"217 516 OFFCURVE",
"357 620 OFFCURVE",
"515 620 CURVE SMOOTH",
"615 620 OFFCURVE",
"681 596 OFFCURVE",
"731 544 CURVE",
"752 642 LINE",
"697 691 OFFCURVE",
"624 714 OFFCURVE",
"526 714 CURVE SMOOTH",
"309 714 OFFCURVE",
"126 571 OFFCURVE",
"79 349 CURVE SMOOTH",
"31 127 OFFCURVE",
"165 -15 OFFCURVE",
"371 -15 CURVE SMOOTH"
);
},
{
closed = 1;
nodes = (
"446 741 LINE",
"553 848 LINE",
"614 741 LINE",
"713 741 LINE",
"607 907 LINE",
"518 907 LINE",
"341 741 LINE"
);
}
);
width = 716;
}
);
leftKerningGroup = C;
note = Gcircumflex;
unicode = 011C;
},
{
glyphname = Gcommaaccent;
lastChange = "2015-10-28 09:02:18 +0000";
layers = (
{
layerId = "493B3A41-641C-4718-8E4F-15C1585391FA";
name = "Regular Italic";
paths = (
{
closed = 1;
nodes = (
"476 -15 OFFCURVE",
"567 6 OFFCURVE",
"643 60 CURVE",
"711 380 LINE",
"476 380 LINE",
"459 297 LINE",
"592 297 LINE",
"553 114 LINE",
"513 89 OFFCURVE",
"456 77 OFFCURVE",
"396 77 CURVE SMOOTH",
"220 77 OFFCURVE",
"146 181 OFFCURVE",
"182 349 CURVE SMOOTH",
"217 516 OFFCURVE",
"357 620 OFFCURVE",
"515 620 CURVE SMOOTH",
"615 620 OFFCURVE",
"681 596 OFFCURVE",
"731 544 CURVE",
"752 642 LINE",
"697 691 OFFCURVE",
"624 714 OFFCURVE",
"526 714 CURVE SMOOTH",
"309 714 OFFCURVE",
"126 571 OFFCURVE",
"79 349 CURVE SMOOTH",
"31 127 OFFCURVE",
"165 -15 OFFCURVE",
"371 -15 CURVE SMOOTH"
);
},
{
closed = 1;
nodes = (
"286 -260 LINE",
"424 -60 LINE",
"318 -60 LINE",
"195 -260 LINE"
);
}
);
width = 716;
}
);
leftKerningGroup = C;
note = Gcommaaccent;
unicode = 0122;
},
{
glyphname = Gdotaccent;
lastChange = "2015-10-28 09:02:19 +0000";
layers = (
{
layerId = "493B3A41-641C-4718-8E4F-15C1585391FA";
name = "Regular Italic";
paths = (
{
closed = 1;
nodes = (
"476 -15 OFFCURVE",
"567 6 OFFCURVE",
"643 60 CURVE",
"711 380 LINE",
"476 380 LINE",
"459 297 LINE",
"592 297 LINE",
"553 114 LINE",
"513 89 OFFCURVE",
"456 77 OFFCURVE",
"396 77 CURVE SMOOTH",
"220 77 OFFCURVE",
"146 181 OFFCURVE",
"182 349 CURVE SMOOTH",
"217 516 OFFCURVE",
"357 620 OFFCURVE",
"515 620 CURVE SMOOTH",
"615 620 OFFCURVE",
"681 596 OFFCURVE",
"731 544 CURVE",
"752 642 LINE",
"697 691 OFFCURVE",
"624 714 OFFCURVE",
"526 714 CURVE SMOOTH",
"309 714 OFFCURVE",
"126 571 OFFCURVE",
"79 349 CURVE SMOOTH",
"31 127 OFFCURVE",
"165 -15 OFFCURVE",
"371 -15 CURVE SMOOTH"
);
},
{
closed = 1;
nodes = (
"563 741 OFFCURVE",
"594 767 OFFCURVE",
"601 799 CURVE SMOOTH",
"608 831 OFFCURVE",
"588 857 OFFCURVE",
"557 857 CURVE SMOOTH",
"525 857 OFFCURVE",
"492 831 OFFCURVE",
"485 799 CURVE SMOOTH",
"478 767 OFFCURVE",
"500 741 OFFCURVE",
"532 741 CURVE SMOOTH"
);
}
);
width = 716;
}
);
leftKerningGroup = C;
note = Gdotaccent;
unicode = 0120;
},
{
glyphname = Gmacron;
lastChange = "2015-10-28 09:02:19 +0000";
layers = (
{
layerId = "493B3A41-641C-4718-8E4F-15C1585391FA";
name = "Regular Italic";
paths = (
{
closed = 1;
nodes = (
"476 -15 OFFCURVE",
"567 6 OFFCURVE",
"643 60 CURVE",
"711 380 LINE",
"476 380 LINE",
"459 297 LINE",
"592 297 LINE",
"553 114 LINE",
"513 89 OFFCURVE",
"456 77 OFFCURVE",
"396 77 CURVE SMOOTH",
"220 77 OFFCURVE",
"146 181 OFFCURVE",
"182 349 CURVE SMOOTH",
"217 516 OFFCURVE",
"357 620 OFFCURVE",
"515 620 CURVE SMOOTH",
"615 620 OFFCURVE",
"681 596 OFFCURVE",
"731 544 CURVE",
"752 642 LINE",
"697 691 OFFCURVE",
"624 714 OFFCURVE",
"526 714 CURVE SMOOTH",
"309 714 OFFCURVE",
"126 571 OFFCURVE",
"79 349 CURVE SMOOTH",
"31 127 OFFCURVE",
"165 -15 OFFCURVE",
"371 -15 CURVE SMOOTH"
);
},
{
closed = 1;
nodes = (
"693 762 LINE",
"708 831 LINE",
"397 831 LINE",
"382 762 LINE"
);
}
);
width = 716;
}
);
leftKerningGroup = C;
note = Gmacron;
unicode = 1E20;
},
{
glyphname = H;
lastChange = "2015-10-28 09:02:17 +0000";
layers = (
{
layerId = "493B3A41-641C-4718-8E4F-15C1585391FA";
name = "Regular Italic";
paths = (
{
closed = 1;
nodes = (
"127 0 LINE",
"193 313 LINE",
"558 313 LINE",
"492 0 LINE",
"594 0 LINE",
"742 699 LINE",
"640 699 LINE",
"576 399 LINE",
"211 399 LINE",
"275 699 LINE",
"173 699 LINE",
"25 0 LINE"
);
}
);
width = 699;
}
);
note = H;
unicode = 0048;
},
{
glyphname = Hbar;
lastChange = "2015-10-28 09:02:17 +0000";
layers = (
{
layerId = "493B3A41-641C-4718-8E4F-15C1585391FA";
name = "Regular Italic";
paths = (
{
closed = 1;
nodes = (
"133 0 LINE",
"199 312 LINE",
"564 312 LINE",
"498 0 LINE",
"600 0 LINE",
"707 505 LINE",
"759 505 LINE",
"776 588 LINE",
"724 588 LINE",
"748 699 LINE",
"646 699 LINE",
"622 588 LINE",
"257 588 LINE",
"281 699 LINE",
"179 699 LINE",
"155 588 LINE",
"106 588 LINE",
"89 505 LINE",
"138 505 LINE",
"31 0 LINE"
);
},
{
closed = 1;
nodes = (
"240 505 LINE",
"605 505 LINE",
"583 400 LINE",
"218 400 LINE"
);
}
);
width = 720;
}
);
note = Hbar;
unicode = 0126;
},
{
glyphname = Hbrevebelow;
lastChange = "2015-10-28 09:02:19 +0000";
layers = (
{
layerId = "493B3A41-641C-4718-8E4F-15C1585391FA";
name = "Regular Italic";
paths = (
{
closed = 1;
nodes = (
"127 0 LINE",
"193 313 LINE",
"558 313 LINE",
"492 0 LINE",
"594 0 LINE",
"742 699 LINE",
"640 699 LINE",
"576 399 LINE",
"211 399 LINE",
"275 699 LINE",
"173 699 LINE",
"25 0 LINE"
);
},
{
closed = 1;
nodes = (
"360 -202 OFFCURVE",
"429 -144 OFFCURVE",
"447 -61 CURVE",
"367 -61 LINE",
"357 -106 OFFCURVE",
"324 -133 OFFCURVE",
"279 -133 CURVE SMOOTH",
"233 -133 OFFCURVE",
"212 -106 OFFCURVE",
"222 -61 CURVE",
"147 -61 LINE",
"129 -144 OFFCURVE",
"174 -202 OFFCURVE",
"268 -202 CURVE SMOOTH"
);
}
);
width = 699;
}
);
note = Hbrevebelow;
unicode = 1E2A;
},
{
glyphname = Hcircumflex;
lastChange = "2015-10-28 09:02:19 +0000";
layers = (
{
layerId = "493B3A41-641C-4718-8E4F-15C1585391FA";
name = "Regular Italic";
paths = (
{
closed = 1;
nodes = (
"127 0 LINE",
"193 313 LINE",
"558 313 LINE",
"492 0 LINE",
"594 0 LINE",
"742 699 LINE",
"640 699 LINE",
"576 399 LINE",
"211 399 LINE",
"275 699 LINE",
"173 699 LINE",
"25 0 LINE"
);
},
{
closed = 1;
nodes = (
"385 741 LINE",
"492 848 LINE",
"553 741 LINE",
"652 741 LINE",
"546 907 LINE",
"457 907 LINE",
"280 741 LINE"
);
}
);
width = 699;
}
);
note = Hcircumflex;
unicode = 0124;
},
{
glyphname = Hdotbelow;
lastChange = "2015-10-28 09:02:19 +0000";
layers = (
{
layerId = "493B3A41-641C-4718-8E4F-15C1585391FA";
name = "Regular Italic";
paths = (
{
closed = 1;
nodes = (
"127 0 LINE",
"193 313 LINE",
"558 313 LINE",
"492 0 LINE",
"594 0 LINE",
"742 699 LINE",
"640 699 LINE",
"576 399 LINE",
"211 399 LINE",
"275 699 LINE",
"173 699 LINE",
"25 0 LINE"
);
},
{
closed = 1;
nodes = (
"306 -166 OFFCURVE",
"337 -140 OFFCURVE",
"344 -108 CURVE SMOOTH",
"350 -76 OFFCURVE",
"330 -50 OFFCURVE",
"300 -50 CURVE SMOOTH",
"268 -50 OFFCURVE",
"235 -76 OFFCURVE",
"229 -108 CURVE SMOOTH",
"222 -140 OFFCURVE",
"243 -166 OFFCURVE",
"275 -166 CURVE SMOOTH"
);
}
);
width = 699;
}
);
note = Hdotbelow;
unicode = 1E24;
},
{
glyphname = I;
lastChange = "2015-10-28 09:02:18 +0000";
layers = (
{
layerId = "493B3A41-641C-4718-8E4F-15C1585391FA";
name = "Regular Italic";
paths = (
{
closed = 1;
nodes = (
"128 0 LINE",
"276 699 LINE",
"173 699 LINE",
"25 0 LINE"
);
}
);
width = 233;
}
);
note = I;
unicode = 0049;
},
{
glyphname = IJ;
lastChange = "2015-10-28 09:02:18 +0000";
layers = (
{
layerId = "493B3A41-641C-4718-8E4F-15C1585391FA";
name = "Regular Italic";
paths = (
{
closed = 1;
nodes = (
"450 -15 OFFCURVE",
"521 52 OFFCURVE",
"546 168 CURVE SMOOTH",
"659 699 LINE",
"557 699 LINE",
"446 175 LINE SMOOTH",
"431 106 OFFCURVE",
"396 75 OFFCURVE",
"321 75 CURVE SMOOTH",
"295 75 OFFCURVE",
"261 80 OFFCURVE",
"241 89 CURVE",
"223 2 LINE",
"243 -8 OFFCURVE",
"288 -15 OFFCURVE",
"325 -15 CURVE SMOOTH"
);
},
{
closed = 1;
nodes = (
"129 0 LINE",
"277 699 LINE",
"174 699 LINE",
"26 0 LINE"
);
}
);
width = 613;
}
);
note = IJ;
rightKerningGroup = J;
unicode = 0132;
},
{
glyphname = Iacute;
lastChange = "2015-10-28 09:02:19 +0000";
layers = (
{
layerId = "493B3A41-641C-4718-8E4F-15C1585391FA";
name = "Regular Italic";
paths = (
{
closed = 1;
nodes = (
"129 0 LINE",
"277 699 LINE",
"174 699 LINE",
"26 0 LINE"
);
},
{
closed = 1;
nodes = (
"281 741 LINE",
"401 913 LINE",
"294 913 LINE",
"189 741 LINE"
);
}
);
width = 236;
}
);
note = Iacute;
unicode = 00CD;
},
{
glyphname = Ibreve;
lastChange = "2015-10-28 09:02:18 +0000";
layers = (
{
layerId = "493B3A41-641C-4718-8E4F-15C1585391FA";
name = "Regular Italic";
paths = (
{
closed = 1;
nodes = (
"129 0 LINE",
"277 699 LINE",
"174 699 LINE",
"26 0 LINE"
);
},
{
closed = 1;
nodes = (
"327 742 OFFCURVE",
"397 800 OFFCURVE",
"414 882 CURVE",
"334 882 LINE",
"324 837 OFFCURVE",
"292 811 OFFCURVE",
"246 811 CURVE SMOOTH",
"200 811 OFFCURVE",
"178 837 OFFCURVE",
"188 882 CURVE",
"113 882 LINE",
"97 800 OFFCURVE",
"140 742 OFFCURVE",
"234 742 CURVE SMOOTH"
);
}
);
width = 236;
}
);
note = Ibreve;
unicode = 012C;
},
{
glyphname = Icaron;
lastChange = "2015-10-28 09:02:17 +0000";
layers = (
{
layerId = "493B3A41-641C-4718-8E4F-15C1585391FA";
name = "Regular Italic";
paths = (
{
closed = 1;
nodes = (
"147 0 LINE",
"295 699 LINE",
"192 699 LINE",
"44 0 LINE"
);
},
{
closed = 1;
nodes = (
"287 753 LINE",
"465 919 LINE",
"360 919 LINE",
"253 812 LINE",
"192 919 LINE",
"93 919 LINE",
"198 753 LINE"
);
}
);
width = 247;
}
);
note = Icaron;
unicode = 01CF;
},
{
glyphname = Icircumflex;
lastChange = "2015-10-28 09:02:18 +0000";
layers = (
{
layerId = "493B3A41-641C-4718-8E4F-15C1585391FA";
name = "Regular Italic";
paths = (
{
closed = 1;
nodes = (
"129 0 LINE",
"277 699 LINE",
"174 699 LINE",
"26 0 LINE"
);
},
{
closed = 1;
nodes = (
"153 741 LINE",
"260 848 LINE",
"321 741 LINE",
"420 741 LINE",
"314 907 LINE",
"225 907 LINE",
"48 741 LINE"
);
}
);
width = 236;
}
);
note = Icircumflex;
unicode = 00CE;
},
{
glyphname = Idieresis;
lastChange = "2015-10-28 09:02:18 +0000";
layers = (
{
layerId = "493B3A41-641C-4718-8E4F-15C1585391FA";
name = "Regular Italic";
paths = (
{
closed = 1;
nodes = (
"129 0 LINE",
"277 699 LINE",
"174 699 LINE",
"26 0 LINE"
);
},
{
closed = 1;
nodes = (
"152 741 OFFCURVE",
"183 767 OFFCURVE",
"190 799 CURVE SMOOTH",
"197 831 OFFCURVE",
"177 857 OFFCURVE",
"146 857 CURVE SMOOTH",
"114 857 OFFCURVE",
"82 831 OFFCURVE",
"75 799 CURVE SMOOTH",
"68 767 OFFCURVE",
"90 741 OFFCURVE",
"121 741 CURVE SMOOTH"
);
},
{
closed = 1;
nodes = (
"379 741 OFFCURVE",
"410 767 OFFCURVE",
"417 799 CURVE SMOOTH",
"424 831 OFFCURVE",
"404 857 OFFCURVE",
"373 857 CURVE SMOOTH",
"341 857 OFFCURVE",
"308 831 OFFCURVE",
"301 799 CURVE SMOOTH",
"294 767 OFFCURVE",
"316 741 OFFCURVE",
"348 741 CURVE SMOOTH"
);
}
);
width = 236;
}
);
note = Idieresis;
unicode = 00CF;
},
{
glyphname = Idotaccent;
lastChange = "2015-10-28 09:02:18 +0000";
layers = (
{
layerId = "493B3A41-641C-4718-8E4F-15C1585391FA";
name = "Regular Italic";
paths = (
{
closed = 1;
nodes = (
"129 0 LINE",
"277 699 LINE",
"174 699 LINE",
"26 0 LINE"
);
},
{
closed = 1;
nodes = (
"267 741 OFFCURVE",
"298 767 OFFCURVE",
"305 799 CURVE SMOOTH",
"312 831 OFFCURVE",
"292 857 OFFCURVE",
"261 857 CURVE SMOOTH",
"229 857 OFFCURVE",
"196 831 OFFCURVE",
"189 799 CURVE SMOOTH",
"182 767 OFFCURVE",
"204 741 OFFCURVE",
"236 741 CURVE SMOOTH"
);
}
);
width = 236;
}
);
note = Idotaccent;
unicode = 0130;
},
{
glyphname = Idotbelow;
lastChange = "2015-10-28 09:02:19 +0000";
layers = (
{
layerId = "493B3A41-641C-4718-8E4F-15C1585391FA";
name = "Regular Italic";
paths = (
{
closed = 1;
nodes = (
"129 0 LINE",
"277 699 LINE",
"174 699 LINE",
"26 0 LINE"
);
},
{
closed = 1;
nodes = (
"75 -166 OFFCURVE",
"106 -140 OFFCURVE",
"113 -108 CURVE SMOOTH",
"119 -76 OFFCURVE",
"99 -50 OFFCURVE",
"69 -50 CURVE SMOOTH",
"37 -50 OFFCURVE",
"4 -76 OFFCURVE",
"-2 -108 CURVE SMOOTH",
"-9 -140 OFFCURVE",
"12 -166 OFFCURVE",
"44 -166 CURVE SMOOTH"
);
}
);
width = 236;
}
);
note = Idotbelow;
unicode = 1ECA;
},
{
glyphname = Igrave;
lastChange = "2015-10-28 09:02:18 +0000";
layers = (
{
layerId = "493B3A41-641C-4718-8E4F-15C1585391FA";
name = "Regular Italic";
paths = (
{
closed = 1;
nodes = (
"129 0 LINE",
"277 699 LINE",
"174 699 LINE",
"26 0 LINE"
);
},
{
closed = 1;
nodes = (
"281 741 LINE",
"249 913 LINE",
"142 913 LINE",
"188 741 LINE"
);
}
);
width = 236;
}
);
note = Igrave;
unicode = 00CC;
},
{
glyphname = Ihookabove;
lastChange = "2015-10-28 09:02:17 +0000";
layers = (
{
layerId = "493B3A41-641C-4718-8E4F-15C1585391FA";
name = "Regular Italic";
paths = (
{
closed = 1;
nodes = (
"129 0 LINE",
"277 699 LINE",
"174 699 LINE",
"26 0 LINE"
);
},
{
closed = 1;
nodes = (
"279 742 LINE",
"286 776 LINE",
"348 784 OFFCURVE",
"388 822 OFFCURVE",
"398 870 CURVE SMOOTH",
"410 927 OFFCURVE",
"376 967 OFFCURVE",
"288 967 CURVE SMOOTH",
"256 967 OFFCURVE",
"219 961 OFFCURVE",
"198 954 CURVE",
"186 899 LINE",
"200 905 OFFCURVE",
"236 910 OFFCURVE",
"252 910 CURVE SMOOTH",
"298 910 OFFCURVE",
"315 897 OFFCURVE",
"308 866 CURVE SMOOTH",
"300 827 OFFCURVE",
"265 813 OFFCURVE",
"205 813 CURVE",
"190 742 LINE"
);
}
);
width = 236;
}
);
note = Ihookabove;
unicode = 1EC8;
},
{
glyphname = Imacron;
lastChange = "2015-10-28 09:02:18 +0000";
layers = (
{
layerId = "493B3A41-641C-4718-8E4F-15C1585391FA";
name = "Regular Italic";
paths = (
{
closed = 1;
nodes = (
"129 0 LINE",
"277 699 LINE",
"174 699 LINE",
"26 0 LINE"
);
},
{
closed = 1;
nodes = (
"399 762 LINE",
"414 832 LINE",
"95 832 LINE",
"80 762 LINE"
);
}
);
width = 236;
}
);
note = Imacron;
unicode = 012A;
},
{
glyphname = Iogonek;
lastChange = "2015-10-28 09:02:18 +0000";
layers = (
{
layerId = "493B3A41-641C-4718-8E4F-15C1585391FA";
name = "Regular Italic";
paths = (
{
closed = 1;
nodes = (
"129 0 LINE",
"277 699 LINE",
"174 699 LINE",
"26 0 LINE"
);
},
{
closed = 1;
nodes = (
"46 -212 OFFCURVE",
"76 -207 OFFCURVE",
"96 -200 CURVE",
"109 -139 LINE",
"94 -145 OFFCURVE",
"77 -149 OFFCURVE",
"59 -149 CURVE SMOOTH",
"32 -149 OFFCURVE",
"19 -135 OFFCURVE",
"25 -106 CURVE SMOOTH",
"34 -65 OFFCURVE",
"67 -33 OFFCURVE",
"126 0 CURVE",
"32 0 LINE",
"-15 -27 OFFCURVE",
"-56 -70 OFFCURVE",
"-67 -122 CURVE SMOOTH",
"-80 -183 OFFCURVE",
"-41 -212 OFFCURVE",
"17 -212 CURVE SMOOTH"
);
}
);
width = 236;
}
);
note = Iogonek;
unicode = 012E;
},
{
glyphname = Itilde;
lastChange = "2015-10-28 09:02:17 +0000";
layers = (
{
layerId = "493B3A41-641C-4718-8E4F-15C1585391FA";
name = "Regular Italic";
paths = (
{
closed = 1;
nodes = (
"129 0 LINE",
"277 699 LINE",
"174 699 LINE",
"26 0 LINE"
);
},
{
closed = 1;
nodes = (
"83 782 OFFCURVE",
"118 794 OFFCURVE",
"154 794 CURVE SMOOTH",
"218 794 OFFCURVE",
"255 744 OFFCURVE",
"328 744 CURVE SMOOTH",
"369 744 OFFCURVE",
"406 755 OFFCURVE",
"433 786 CURVE",
"451 872 LINE",
"416 833 OFFCURVE",
"382 821 OFFCURVE",
"345 821 CURVE SMOOTH",
"280 821 OFFCURVE",
"238 871 OFFCURVE",
"170 871 CURVE SMOOTH",
"130 871 OFFCURVE",
"92 859 OFFCURVE",
"63 828 CURVE",
"45 742 LINE"
);
}
);
width = 236;
}
);
note = Itilde;
unicode = 0128;
},
{
glyphname = J;
lastChange = "2015-10-28 09:02:19 +0000";
layers = (
{
layerId = "493B3A41-641C-4718-8E4F-15C1585391FA";
name = "Regular Italic";
paths = (
{
closed = 1;
nodes = (
"212 -15 OFFCURVE",
"283 52 OFFCURVE",
"308 168 CURVE SMOOTH",
"421 699 LINE",
"319 699 LINE",
"208 175 LINE SMOOTH",
"193 106 OFFCURVE",
"158 75 OFFCURVE",
"83 75 CURVE SMOOTH",
"57 75 OFFCURVE",
"23 80 OFFCURVE",
"3 89 CURVE",
"-15 2 LINE",
"5 -8 OFFCURVE",
"50 -15 OFFCURVE",
"87 -15 CURVE SMOOTH"
);
}
);
width = 373;
}
);
note = J;
rightKerningGroup = J;
unicode = 004A;
},
{
glyphname = Jcircumflex;
lastChange = "2015-10-28 09:02:18 +0000";
layers = (
{
layerId = "493B3A41-641C-4718-8E4F-15C1585391FA";
name = "Regular Italic";
paths = (
{
closed = 1;
nodes = (
"212 -15 OFFCURVE",
"283 52 OFFCURVE",
"308 168 CURVE SMOOTH",
"421 699 LINE",
"319 699 LINE",
"208 175 LINE SMOOTH",
"193 106 OFFCURVE",
"158 75 OFFCURVE",
"83 75 CURVE SMOOTH",
"57 75 OFFCURVE",
"23 80 OFFCURVE",
"3 89 CURVE",
"-15 2 LINE",
"5 -8 OFFCURVE",
"50 -15 OFFCURVE",
"87 -15 CURVE SMOOTH"
);
},
{
closed = 1;
nodes = (
"297 741 LINE",
"404 848 LINE",
"465 741 LINE",
"564 741 LINE",
"458 907 LINE",
"369 907 LINE",
"192 741 LINE"
);
}
);
width = 375;
}
);
note = Jcircumflex;
rightKerningGroup = J;
unicode = 0134;
},
{
glyphname = K;
lastChange = "2015-10-28 09:02:18 +0000";
layers = (
{
layerId = "493B3A41-641C-4718-8E4F-15C1585391FA";
name = "Regular Italic";
paths = (
{
closed = 1;
nodes = (
"593 0 LINE",
"329 354 LINE",
"723 699 LINE",
"599 699 LINE",
"207 356 LINE",
"471 0 LINE"
);
},
{
closed = 1;
nodes = (
"127 0 LINE",
"275 699 LINE",
"173 699 LINE",
"25 0 LINE"
);
}
);
width = 670;
}
);
leftKerningGroup = K;
note = K;
rightKerningGroup = K;
unicode = 004B;
},
{
glyphname = Kcommaaccent;
lastChange = "2015-10-28 09:02:18 +0000";
layers = (
{
layerId = "493B3A41-641C-4718-8E4F-15C1585391FA";
name = "Regular Italic";
paths = (
{
closed = 1;
nodes = (
"593 0 LINE",
"329 354 LINE",
"723 699 LINE",
"599 699 LINE",
"207 356 LINE",
"471 0 LINE"
);
},
{
closed = 1;
nodes = (
"178 -260 LINE",
"316 -60 LINE",
"210 -60 LINE",
"87 -260 LINE"
);
},
{
closed = 1;
nodes = (
"127 0 LINE",
"275 699 LINE",
"173 699 LINE",
"25 0 LINE"
);
}
);
width = 670;
}
);
leftKerningGroup = K;
note = Kcommaaccent;
rightKerningGroup = K;
unicode = 0136;
},
{
glyphname = L;
lastChange = "2015-10-28 09:02:20 +0000";
layers = (
{
layerId = "493B3A41-641C-4718-8E4F-15C1585391FA";
name = "Regular Italic";
paths = (
{
closed = 1;
nodes = (
"481 0 LINE",
"499 85 LINE",
"145 85 LINE",
"275 699 LINE",
"173 699 LINE",
"25 0 LINE"
);
}
);
width = 546;
}
);
note = L;
rightKerningGroup = L;
unicode = 004C;
},
{
glyphname = Lacute;
lastChange = "2015-10-28 09:02:18 +0000";
layers = (
{
layerId = "493B3A41-641C-4718-8E4F-15C1585391FA";
name = "Regular Italic";
paths = (
{
closed = 1;
nodes = (
"481 0 LINE",
"499 85 LINE",
"145 85 LINE",
"275 699 LINE",
"173 699 LINE",
"25 0 LINE"
);
},
{
closed = 1;
nodes = (
"282 757 LINE",
"402 929 LINE",
"295 929 LINE",
"190 757 LINE"
);
}
);
width = 546;
}
);
note = Lacute;
rightKerningGroup = L;
unicode = 0139;
},
{
glyphname = Lcaron;
lastChange = "2015-10-28 09:02:18 +0000";
layers = (
{
layerId = "493B3A41-641C-4718-8E4F-15C1585391FA";
name = "Regular Italic";
paths = (
{
closed = 1;
nodes = (
"481 0 LINE",
"499 85 LINE",
"145 85 LINE",
"275 699 LINE",
"173 699 LINE",
"25 0 LINE"
);
},
{
closed = 1;
nodes = (
"430 502 LINE",
"568 702 LINE",
"462 702 LINE",
"339 502 LINE"
);
}
);
width = 546;
}
);
note = Lcaron;
rightKerningGroup = L;
unicode = 013D;
},
{
glyphname = Lcommaaccent;
lastChange = "2015-10-28 09:02:19 +0000";
layers = (
{
layerId = "493B3A41-641C-4718-8E4F-15C1585391FA";
name = "Regular Italic";
paths = (
{
closed = 1;
nodes = (
"481 0 LINE",
"499 85 LINE",
"145 85 LINE",
"275 699 LINE",
"173 699 LINE",
"25 0 LINE"
);
},
{
closed = 1;
nodes = (
"161 -260 LINE",
"299 -60 LINE",
"193 -60 LINE",
"70 -260 LINE"
);
}
);
width = 546;
}
);
note = Lcommaaccent;
rightKerningGroup = L;
unicode = 013B;
},
{
glyphname = Ldot;
lastChange = "2015-10-28 09:02:19 +0000";
layers = (
{
layerId = "493B3A41-641C-4718-8E4F-15C1585391FA";
name = "Regular Italic";
paths = (
{
closed = 1;
nodes = (
"481 0 LINE",
"499 85 LINE",
"145 85 LINE",
"275 699 LINE",
"173 699 LINE",
"25 0 LINE"
);
},
{
closed = 1;
nodes = (
"422 325 OFFCURVE",
"454 351 OFFCURVE",
"461 383 CURVE SMOOTH",
"468 415 OFFCURVE",
"447 441 OFFCURVE",
"416 441 CURVE SMOOTH",
"385 441 OFFCURVE",
"352 415 OFFCURVE",
"345 383 CURVE SMOOTH",
"338 351 OFFCURVE",
"360 325 OFFCURVE",
"391 325 CURVE SMOOTH"
);
}
);
width = 546;
}
);
note = Ldot;
rightKerningGroup = L;
unicode = 013F;
},
{
glyphname = Ldotbelow;
lastChange = "2015-10-28 09:02:20 +0000";
layers = (
{
layerId = "493B3A41-641C-4718-8E4F-15C1585391FA";
name = "Regular Italic";
paths = (
{
closed = 1;
nodes = (
"481 0 LINE",
"499 85 LINE",
"145 85 LINE",
"275 699 LINE",
"173 699 LINE",
"25 0 LINE"
);
},
{
closed = 1;
nodes = (
"229 -166 OFFCURVE",
"260 -140 OFFCURVE",
"267 -108 CURVE SMOOTH",
"273 -76 OFFCURVE",
"253 -50 OFFCURVE",
"223 -50 CURVE SMOOTH",
"191 -50 OFFCURVE",
"158 -76 OFFCURVE",
"152 -108 CURVE SMOOTH",
"145 -140 OFFCURVE",
"166 -166 OFFCURVE",
"198 -166 CURVE SMOOTH"
);
}
);
width = 546;
}
);
note = Ldotbelow;
rightKerningGroup = L;
unicode = 1E36;
},
{
glyphname = Ldotbelowmacron;
lastChange = "2015-10-28 09:02:19 +0000";
layers = (
{
layerId = "493B3A41-641C-4718-8E4F-15C1585391FA";
name = "Regular Italic";
paths = (
{
closed = 1;
nodes = (
"489 0 LINE",
"507 85 LINE",
"153 85 LINE",
"283 699 LINE",
"181 699 LINE",
"33 0 LINE"
);
},
{
closed = 1;
nodes = (
"252 -166 OFFCURVE",
"283 -140 OFFCURVE",
"290 -108 CURVE SMOOTH",
"296 -76 OFFCURVE",
"276 -50 OFFCURVE",
"246 -50 CURVE SMOOTH",
"214 -50 OFFCURVE",
"181 -76 OFFCURVE",
"175 -108 CURVE SMOOTH",
"168 -140 OFFCURVE",
"189 -166 OFFCURVE",
"221 -166 CURVE SMOOTH"
);
},
{
closed = 1;
nodes = (
"505 773 LINE",
"520 842 LINE",
"209 842 LINE",
"194 773 LINE"
);
}
);
width = 554;
}
);
note = Ldotbelowmacron;
rightKerningGroup = L;
unicode = 1E38;
},
{
glyphname = Llinebelow;
lastChange = "2015-10-28 09:02:19 +0000";
layers = (
{
layerId = "493B3A41-641C-4718-8E4F-15C1585391FA";
name = "Regular Italic";
paths = (
{
closed = 1;
nodes = (
"481 0 LINE",
"499 85 LINE",
"145 85 LINE",
"275 699 LINE",
"173 699 LINE",
"25 0 LINE"
);
},
{
closed = 1;
nodes = (
"376 -141 LINE",
"390 -71 LINE",
"77 -71 LINE",
"63 -141 LINE"
);
}
);
width = 546;
}
);
note = Llinebelow;
rightKerningGroup = L;
unicode = 1E3A;
},
{
glyphname = Lslash;
lastChange = "2015-10-28 09:02:17 +0000";
layers = (
{
layerId = "493B3A41-641C-4718-8E4F-15C1585391FA";
name = "Regular Italic";
paths = (
{
closed = 1;
nodes = (
"533 0 LINE",
"551 85 LINE",
"197 85 LINE",
"251 342 LINE",
"429 415 LINE",
"449 511 LINE",
"272 438 LINE",
"327 699 LINE",
"225 699 LINE",
"160 393 LINE",
"48 347 LINE",
"28 251 LINE",
"140 296 LINE",
"77 0 LINE"
);
}
);
width = 598;
}
);
note = Lslash;
rightKerningGroup = L;
unicode = 0141;
},
{
glyphname = M;
lastChange = "2015-10-28 09:02:17 +0000";
layers = (
{
layerId = "493B3A41-641C-4718-8E4F-15C1585391FA";
name = "Regular Italic";
paths = (
{
closed = 1;
nodes = (
"123 0 LINE",
"228 497 LINE",
"351 0 LINE",
"401 0 LINE",
"733 497 LINE",
"628 0 LINE",
"727 0 LINE",
"875 699 LINE",
"770 699 LINE",
"405 154 LINE",
"272 699 LINE",
"173 699 LINE",
"25 0 LINE"
);
}
);
width = 832;
}
);
note = M;
unicode = 004D;
},
{
glyphname = Mdotbelow;
lastChange = "2015-10-28 09:02:18 +0000";
layers = (
{
layerId = "493B3A41-641C-4718-8E4F-15C1585391FA";
name = "Regular Italic";
paths = (
{
closed = 1;
nodes = (
"123 0 LINE",
"228 497 LINE",
"351 0 LINE",
"401 0 LINE",
"733 497 LINE",
"628 0 LINE",
"727 0 LINE",
"875 699 LINE",
"770 699 LINE",
"405 154 LINE",
"272 699 LINE",
"173 699 LINE",
"25 0 LINE"
);
},
{
closed = 1;
nodes = (
"373 -166 OFFCURVE",
"404 -140 OFFCURVE",
"411 -108 CURVE SMOOTH",
"417 -76 OFFCURVE",
"397 -50 OFFCURVE",
"367 -50 CURVE SMOOTH",
"335 -50 OFFCURVE",
"302 -76 OFFCURVE",
"296 -108 CURVE SMOOTH",
"289 -140 OFFCURVE",
"310 -166 OFFCURVE",
"342 -166 CURVE SMOOTH"
);
}
);
width = 832;
}
);
note = Mdotbelow;
unicode = 1E42;
},
{
glyphname = N;
lastChange = "2015-10-28 09:02:19 +0000";
layers = (
{
layerId = "493B3A41-641C-4718-8E4F-15C1585391FA";
name = "Regular Italic";
paths = (
{
closed = 1;
nodes = (
"127 0 LINE",
"239 527 LINE",
"483 0 LINE",
"581 0 LINE",
"729 699 LINE",
"626 699 LINE",
"514 172 LINE",
"270 699 LINE",
"173 699 LINE",
"25 0 LINE"
);
}
);
width = 686;
}
);
note = N;
unicode = 004E;
},
{
glyphname = Nacute;
lastChange = "2015-10-28 09:02:18 +0000";
layers = (
{
layerId = "493B3A41-641C-4718-8E4F-15C1585391FA";
name = "Regular Italic";
paths = (
{
closed = 1;
nodes = (
"127 0 LINE",
"239 527 LINE",
"483 0 LINE",
"581 0 LINE",
"729 699 LINE",
"626 699 LINE",
"514 172 LINE",
"270 699 LINE",
"173 699 LINE",
"25 0 LINE"
);
},
{
closed = 1;
nodes = (
"499 741 LINE",
"619 913 LINE",
"512 913 LINE",
"407 741 LINE"
);
}
);
width = 686;
}
);
note = Nacute;
unicode = 0143;
},
{
glyphname = Ncaron;
lastChange = "2015-10-28 09:02:18 +0000";
layers = (
{
layerId = "493B3A41-641C-4718-8E4F-15C1585391FA";
name = "Regular Italic";
paths = (
{
closed = 1;
nodes = (
"127 0 LINE",
"239 527 LINE",
"483 0 LINE",
"581 0 LINE",
"729 699 LINE",
"626 699 LINE",
"514 172 LINE",
"270 699 LINE",
"173 699 LINE",
"25 0 LINE"
);
},
{
closed = 1;
nodes = (
"505 742 LINE",
"683 908 LINE",
"578 908 LINE",
"471 801 LINE",
"410 908 LINE",
"311 908 LINE",
"416 742 LINE"
);
}
);
width = 686;
}
);
note = Ncaron;
unicode = 0147;
},
{
glyphname = Ncommaaccent;
lastChange = "2015-10-28 09:02:18 +0000";
layers = (
{
layerId = "493B3A41-641C-4718-8E4F-15C1585391FA";
name = "Regular Italic";
paths = (
{
closed = 1;
nodes = (
"127 0 LINE",
"239 527 LINE",
"483 0 LINE",
"581 0 LINE",
"729 699 LINE",
"626 699 LINE",
"514 172 LINE",
"270 699 LINE",
"173 699 LINE",
"25 0 LINE"
);
},
{
closed = 1;
nodes = (
"218 -260 LINE",
"356 -60 LINE",
"250 -60 LINE",
"127 -260 LINE"
);
}
);
width = 686;
}
);
note = Ncommaaccent;
unicode = 0145;
},
{
glyphname = Ndotaccent;
lastChange = "2015-10-28 09:02:18 +0000";
layers = (
{
layerId = "493B3A41-641C-4718-8E4F-15C1585391FA";
name = "Regular Italic";
paths = (
{
closed = 1;
nodes = (
"127 0 LINE",
"239 527 LINE",
"483 0 LINE",
"581 0 LINE",
"729 699 LINE",
"626 699 LINE",
"514 172 LINE",
"270 699 LINE",
"173 699 LINE",
"25 0 LINE"
);
},
{
closed = 1;
nodes = (
"498 741 OFFCURVE",
"529 767 OFFCURVE",
"536 799 CURVE SMOOTH",
"543 831 OFFCURVE",
"523 857 OFFCURVE",
"492 857 CURVE SMOOTH",
"460 857 OFFCURVE",
"427 831 OFFCURVE",
"420 799 CURVE SMOOTH",
"413 767 OFFCURVE",
"435 741 OFFCURVE",
"467 741 CURVE SMOOTH"
);
}
);
width = 686;
}
);
note = Ndotaccent;
unicode = 1E44;
},
{
glyphname = Ndotbelow;
lastChange = "2015-10-28 09:02:19 +0000";
layers = (
{
layerId = "493B3A41-641C-4718-8E4F-15C1585391FA";
name = "Regular Italic";
paths = (
{
closed = 1;
nodes = (
"127 0 LINE",
"239 527 LINE",
"483 0 LINE",
"581 0 LINE",
"729 699 LINE",
"626 699 LINE",
"514 172 LINE",
"270 699 LINE",
"173 699 LINE",
"25 0 LINE"
);
},
{
closed = 1;
nodes = (
"303 -166 OFFCURVE",
"334 -140 OFFCURVE",
"341 -108 CURVE SMOOTH",
"347 -76 OFFCURVE",
"327 -50 OFFCURVE",
"297 -50 CURVE SMOOTH",
"265 -50 OFFCURVE",
"232 -76 OFFCURVE",
"226 -108 CURVE SMOOTH",
"219 -140 OFFCURVE",
"240 -166 OFFCURVE",
"272 -166 CURVE SMOOTH"
);
}
);
width = 686;
}
);
note = Ndotbelow;
unicode = 1E46;
},
{
glyphname = Eng;
lastChange = "2015-10-28 09:02:17 +0000";
layers = (
{
layerId = "493B3A41-641C-4718-8E4F-15C1585391FA";
name = "Regular Italic";
paths = (
{
closed = 1;
nodes = (
"461 -231 OFFCURVE",
"542 -179 OFFCURVE",
"567 -64 CURVE SMOOTH",
"580 0 LINE",
"581 0 LINE",
"729 699 LINE",
"626 699 LINE",
"514 172 LINE",
"270 699 LINE",
"173 699 LINE",
"25 0 LINE",
"127 0 LINE",
"239 527 LINE",
"480 7 LINE",
"466 -58 LINE SMOOTH",
"453 -121 OFFCURVE",
"423 -149 OFFCURVE",
"363 -149 CURVE SMOOTH",
"341 -149 OFFCURVE",
"321 -144 OFFCURVE",
"306 -136 CURVE",
"288 -220 LINE",
"306 -227 OFFCURVE",
"330 -231 OFFCURVE",
"361 -231 CURVE SMOOTH"
);
}
);
width = 686;
}
);
note = Eng;
unicode = 014A;
},
{
glyphname = Nlinebelow;
lastChange = "2015-10-28 09:02:18 +0000";
layers = (
{
layerId = "493B3A41-641C-4718-8E4F-15C1585391FA";
name = "Regular Italic";
paths = (
{
closed = 1;
nodes = (
"127 0 LINE",
"239 527 LINE",
"483 0 LINE",
"581 0 LINE",
"729 699 LINE",
"626 699 LINE",
"514 172 LINE",
"270 699 LINE",
"173 699 LINE",
"25 0 LINE"
);
},
{
closed = 1;
nodes = (
"439 -141 LINE",
"453 -71 LINE",
"140 -71 LINE",
"126 -141 LINE"
);
}
);
width = 686;
}
);
note = Nlinebelow;
unicode = 1E48;
},
{
glyphname = Ntilde;
lastChange = "2015-10-28 09:02:18 +0000";
layers = (
{
layerId = "493B3A41-641C-4718-8E4F-15C1585391FA";
name = "Regular Italic";
paths = (
{
closed = 1;
nodes = (
"127 0 LINE",
"239 527 LINE",
"483 0 LINE",
"581 0 LINE",
"729 699 LINE",
"626 699 LINE",
"514 172 LINE",
"270 699 LINE",
"173 699 LINE",
"25 0 LINE"
);
},
{
closed = 1;
nodes = (
"320 782 OFFCURVE",
"355 794 OFFCURVE",
"391 794 CURVE SMOOTH",
"455 794 OFFCURVE",
"492 744 OFFCURVE",
"565 744 CURVE SMOOTH",
"606 744 OFFCURVE",
"643 755 OFFCURVE",
"670 786 CURVE",
"688 872 LINE",
"653 833 OFFCURVE",
"619 821 OFFCURVE",
"582 821 CURVE SMOOTH",
"517 821 OFFCURVE",
"475 871 OFFCURVE",
"407 871 CURVE SMOOTH",
"367 871 OFFCURVE",
"329 859 OFFCURVE",
"300 828 CURVE",
"282 742 LINE"
);
}
);
width = 686;
}
);
note = Ntilde;
unicode = 00D1;
},
{
glyphname = O;
lastChange = "2015-10-28 09:02:17 +0000";
layers = (
{
layerId = "493B3A41-641C-4718-8E4F-15C1585391FA";
name = "Regular Italic";
paths = (
{
closed = 1;
nodes = (
"592 -15 OFFCURVE",
"768 131 OFFCURVE",
"815 349 CURVE SMOOTH",
"861 568 OFFCURVE",
"723 714 OFFCURVE",
"524 714 CURVE SMOOTH",
"306 714 OFFCURVE",
"125 568 OFFCURVE",
"79 349 CURVE SMOOTH",
"32 131 OFFCURVE",
"175 -15 OFFCURVE",
"369 -15 CURVE SMOOTH"
);
},
{
closed = 1;
nodes = (
"225 77 OFFCURVE",
"146 181 OFFCURVE",
"182 349 CURVE SMOOTH",
"217 515 OFFCURVE",
"355 620 OFFCURVE",
"504 620 CURVE SMOOTH",
"673 620 OFFCURVE",
"747 515 OFFCURVE",
"712 349 CURVE SMOOTH",
"676 181 OFFCURVE",
"536 77 OFFCURVE",
"389 77 CURVE SMOOTH"
);
}
);
width = 826;
}
);
leftKerningGroup = O;
note = O;
rightKerningGroup = O;
unicode = 004F;
},
{
glyphname = Oacute;
lastChange = "2015-10-28 09:02:19 +0000";
layers = (
{
layerId = "493B3A41-641C-4718-8E4F-15C1585391FA";
name = "Regular Italic";
paths = (
{
closed = 1;
nodes = (
"592 -15 OFFCURVE",
"768 131 OFFCURVE",
"815 349 CURVE SMOOTH",
"861 568 OFFCURVE",
"723 714 OFFCURVE",
"524 714 CURVE SMOOTH",
"306 714 OFFCURVE",
"125 568 OFFCURVE",
"79 349 CURVE SMOOTH",
"32 131 OFFCURVE",
"175 -15 OFFCURVE",
"369 -15 CURVE SMOOTH"
);
},
{
closed = 1;
nodes = (
"225 77 OFFCURVE",
"146 181 OFFCURVE",
"182 349 CURVE SMOOTH",
"217 515 OFFCURVE",
"355 620 OFFCURVE",
"504 620 CURVE SMOOTH",
"673 620 OFFCURVE",
"747 515 OFFCURVE",
"712 349 CURVE SMOOTH",
"676 181 OFFCURVE",
"536 77 OFFCURVE",
"389 77 CURVE SMOOTH"
);
},
{
closed = 1;
nodes = (
"575 741 LINE",
"695 913 LINE",
"588 913 LINE",
"483 741 LINE"
);
}
);
width = 826;
}
);
leftKerningGroup = O;
note = Oacute;
rightKerningGroup = O;
unicode = 00D3;
},
{
glyphname = Obreve;
lastChange = "2015-10-28 09:02:18 +0000";
layers = (
{
layerId = "493B3A41-641C-4718-8E4F-15C1585391FA";
name = "Regular Italic";
paths = (
{
closed = 1;
nodes = (
"592 -15 OFFCURVE",
"768 131 OFFCURVE",
"815 349 CURVE SMOOTH",
"861 568 OFFCURVE",
"723 714 OFFCURVE",
"524 714 CURVE SMOOTH",
"306 714 OFFCURVE",
"125 568 OFFCURVE",
"79 349 CURVE SMOOTH",
"32 131 OFFCURVE",
"175 -15 OFFCURVE",
"369 -15 CURVE SMOOTH"
);
},
{
closed = 1;
nodes = (
"225 77 OFFCURVE",
"146 181 OFFCURVE",
"182 349 CURVE SMOOTH",
"217 515 OFFCURVE",
"355 620 OFFCURVE",
"504 620 CURVE SMOOTH",
"673 620 OFFCURVE",
"747 515 OFFCURVE",
"712 349 CURVE SMOOTH",
"676 181 OFFCURVE",
"536 77 OFFCURVE",
"389 77 CURVE SMOOTH"
);
},
{
closed = 1;
nodes = (
"622 742 OFFCURVE",
"692 800 OFFCURVE",
"709 882 CURVE",
"629 882 LINE",
"619 837 OFFCURVE",
"587 811 OFFCURVE",
"541 811 CURVE SMOOTH",
"495 811 OFFCURVE",
"473 837 OFFCURVE",
"483 882 CURVE",
"408 882 LINE",
"392 800 OFFCURVE",
"435 742 OFFCURVE",
"529 742 CURVE SMOOTH"
);
}
);
width = 826;
}
);
leftKerningGroup = O;
note = Obreve;
rightKerningGroup = O;
unicode = 014E;
},
{
glyphname = Ocaron;
lastChange = "2015-10-28 09:02:19 +0000";
layers = (
{
layerId = "493B3A41-641C-4718-8E4F-15C1585391FA";
name = "Regular Italic";
paths = (
{
closed = 1;
nodes = (
"592 -15 OFFCURVE",
"768 131 OFFCURVE",
"815 349 CURVE SMOOTH",
"861 568 OFFCURVE",
"723 714 OFFCURVE",
"524 714 CURVE SMOOTH",
"306 714 OFFCURVE",
"125 568 OFFCURVE",
"79 349 CURVE SMOOTH",
"32 131 OFFCURVE",
"175 -15 OFFCURVE",
"369 -15 CURVE SMOOTH"
);
},
{
closed = 1;
nodes = (
"225 77 OFFCURVE",
"146 181 OFFCURVE",
"182 349 CURVE SMOOTH",
"217 515 OFFCURVE",
"355 620 OFFCURVE",
"504 620 CURVE SMOOTH",
"673 620 OFFCURVE",
"747 515 OFFCURVE",
"712 349 CURVE SMOOTH",
"676 181 OFFCURVE",
"536 77 OFFCURVE",
"389 77 CURVE SMOOTH"
);
},
{
closed = 1;
nodes = (
"574 742 LINE",
"752 908 LINE",
"647 908 LINE",
"540 801 LINE",
"479 908 LINE",
"380 908 LINE",
"485 742 LINE"
);
}
);
width = 826;
}
);
leftKerningGroup = O;
note = Ocaron;
rightKerningGroup = O;
unicode = 01D1;
},
{
glyphname = Ocircumflex;
lastChange = "2015-10-28 09:02:18 +0000";
layers = (
{
layerId = "493B3A41-641C-4718-8E4F-15C1585391FA";
name = "Regular Italic";
paths = (
{
closed = 1;
nodes = (
"592 -15 OFFCURVE",
"768 131 OFFCURVE",
"815 349 CURVE SMOOTH",
"861 568 OFFCURVE",
"723 714 OFFCURVE",
"524 714 CURVE SMOOTH",
"306 714 OFFCURVE",
"125 568 OFFCURVE",
"79 349 CURVE SMOOTH",
"32 131 OFFCURVE",
"175 -15 OFFCURVE",
"369 -15 CURVE SMOOTH"
);
},
{
closed = 1;
nodes = (
"225 77 OFFCURVE",
"146 181 OFFCURVE",
"182 349 CURVE SMOOTH",
"217 515 OFFCURVE",
"355 620 OFFCURVE",
"504 620 CURVE SMOOTH",
"673 620 OFFCURVE",
"747 515 OFFCURVE",
"712 349 CURVE SMOOTH",
"676 181 OFFCURVE",
"536 77 OFFCURVE",
"389 77 CURVE SMOOTH"
);
},
{
closed = 1;
nodes = (
"449 741 LINE",
"556 848 LINE",
"617 741 LINE",
"716 741 LINE",
"610 907 LINE",
"521 907 LINE",
"344 741 LINE"
);
}
);
width = 826;
}
);
leftKerningGroup = O;
note = Ocircumflex;
rightKerningGroup = O;
unicode = 00D4;
},
{
glyphname = Ocircumflexacute;
lastChange = "2015-10-28 09:02:17 +0000";
layers = (
{
layerId = "493B3A41-641C-4718-8E4F-15C1585391FA";
name = "Regular Italic";
paths = (
{
closed = 1;
nodes = (
"592 -15 OFFCURVE",
"768 131 OFFCURVE",
"815 349 CURVE SMOOTH",
"861 568 OFFCURVE",
"723 714 OFFCURVE",
"524 714 CURVE SMOOTH",
"306 714 OFFCURVE",
"125 568 OFFCURVE",
"79 349 CURVE SMOOTH",
"32 131 OFFCURVE",
"175 -15 OFFCURVE",
"369 -15 CURVE SMOOTH"
);
},
{
closed = 1;
nodes = (
"225 77 OFFCURVE",
"146 181 OFFCURVE",
"182 349 CURVE SMOOTH",
"217 515 OFFCURVE",
"355 620 OFFCURVE",
"504 620 CURVE SMOOTH",
"673 620 OFFCURVE",
"747 515 OFFCURVE",
"712 349 CURVE SMOOTH",
"676 181 OFFCURVE",
"536 77 OFFCURVE",
"389 77 CURVE SMOOTH"
);
},
{
closed = 1;
nodes = (
"462 741 LINE",
"563 831 LINE",
"626 741 LINE",
"721 741 LINE",
"615 886 LINE",
"529 886 LINE",
"360 741 LINE"
);
},
{
closed = 1;
nodes = (
"751 842 LINE",
"856 966 LINE",
"765 966 LINE",
"674 842 LINE"
);
}
);
width = 826;
}
);
leftKerningGroup = O;
note = Ocircumflexacute;
rightKerningGroup = O;
unicode = 1ED0;
},
{
glyphname = Ocircumflexdotbelow;
lastChange = "2015-10-28 09:02:19 +0000";
layers = (
{
layerId = "493B3A41-641C-4718-8E4F-15C1585391FA";
name = "Regular Italic";
paths = (
{
closed = 1;
nodes = (
"592 -15 OFFCURVE",
"768 131 OFFCURVE",
"815 349 CURVE SMOOTH",
"861 568 OFFCURVE",
"723 714 OFFCURVE",
"524 714 CURVE SMOOTH",
"306 714 OFFCURVE",
"125 568 OFFCURVE",
"79 349 CURVE SMOOTH",
"32 131 OFFCURVE",
"175 -15 OFFCURVE",
"369 -15 CURVE SMOOTH"
);
},
{
closed = 1;
nodes = (
"370 -166 OFFCURVE",
"401 -140 OFFCURVE",
"408 -108 CURVE SMOOTH",
"414 -76 OFFCURVE",
"394 -50 OFFCURVE",
"364 -50 CURVE SMOOTH",
"332 -50 OFFCURVE",
"299 -76 OFFCURVE",
"293 -108 CURVE SMOOTH",
"286 -140 OFFCURVE",
"307 -166 OFFCURVE",
"339 -166 CURVE SMOOTH"
);
},
{
closed = 1;
nodes = (
"225 77 OFFCURVE",
"146 181 OFFCURVE",
"182 349 CURVE SMOOTH",
"217 515 OFFCURVE",
"355 620 OFFCURVE",
"504 620 CURVE SMOOTH",
"673 620 OFFCURVE",
"747 515 OFFCURVE",
"712 349 CURVE SMOOTH",
"676 181 OFFCURVE",
"536 77 OFFCURVE",
"389 77 CURVE SMOOTH"
);
},
{
closed = 1;
nodes = (
"448 741 LINE",
"555 848 LINE",
"616 741 LINE",
"715 741 LINE",
"609 907 LINE",
"520 907 LINE",
"343 741 LINE"
);
}
);
width = 826;
}
);
leftKerningGroup = O;
note = Ocircumflexdotbelow;
rightKerningGroup = O;
unicode = 1ED8;
},
{
glyphname = Ocircumflexgrave;
lastChange = "2015-10-28 09:02:19 +0000";
layers = (
{
layerId = "493B3A41-641C-4718-8E4F-15C1585391FA";
name = "Regular Italic";
paths = (
{
closed = 1;
nodes = (
"592 -15 OFFCURVE",
"768 131 OFFCURVE",
"815 349 CURVE SMOOTH",
"861 568 OFFCURVE",
"723 714 OFFCURVE",
"524 714 CURVE SMOOTH",
"306 714 OFFCURVE",
"125 568 OFFCURVE",
"79 349 CURVE SMOOTH",
"32 131 OFFCURVE",
"175 -15 OFFCURVE",
"369 -15 CURVE SMOOTH"
);
},
{
closed = 1;
nodes = (
"225 77 OFFCURVE",
"146 181 OFFCURVE",
"182 349 CURVE SMOOTH",
"217 515 OFFCURVE",
"355 620 OFFCURVE",
"504 620 CURVE SMOOTH",
"673 620 OFFCURVE",
"747 515 OFFCURVE",
"712 349 CURVE SMOOTH",
"676 181 OFFCURVE",
"536 77 OFFCURVE",
"389 77 CURVE SMOOTH"
);
},
{
closed = 1;
nodes = (
"443 842 LINE",
"403 966 LINE",
"312 966 LINE",
"365 842 LINE"
);
},
{
closed = 1;
nodes = (
"453 741 LINE",
"554 831 LINE",
"617 741 LINE",
"712 741 LINE",
"606 886 LINE",
"520 886 LINE",
"351 741 LINE"
);
}
);
width = 826;
}
);
leftKerningGroup = O;
note = Ocircumflexgrave;
rightKerningGroup = O;
unicode = 1ED2;
},
{
glyphname = Ocircumflexhookabove;
lastChange = "2015-10-28 09:02:19 +0000";
layers = (
{
layerId = "493B3A41-641C-4718-8E4F-15C1585391FA";
name = "Regular Italic";
paths = (
{
closed = 1;
nodes = (
"592 -15 OFFCURVE",
"768 131 OFFCURVE",
"815 349 CURVE SMOOTH",
"861 568 OFFCURVE",
"723 714 OFFCURVE",
"524 714 CURVE SMOOTH",
"306 714 OFFCURVE",
"125 568 OFFCURVE",
"79 349 CURVE SMOOTH",
"32 131 OFFCURVE",
"175 -15 OFFCURVE",
"369 -15 CURVE SMOOTH"
);
},
{
closed = 1;
nodes = (
"225 77 OFFCURVE",
"146 181 OFFCURVE",
"182 349 CURVE SMOOTH",
"217 515 OFFCURVE",
"355 620 OFFCURVE",
"504 620 CURVE SMOOTH",
"673 620 OFFCURVE",
"747 515 OFFCURVE",
"712 349 CURVE SMOOTH",
"676 181 OFFCURVE",
"536 77 OFFCURVE",
"389 77 CURVE SMOOTH"
);
},
{
closed = 1;
nodes = (
"456 741 LINE",
"557 831 LINE",
"620 741 LINE",
"715 741 LINE",
"609 886 LINE",
"523 886 LINE",
"354 741 LINE"
);
},
{
closed = 1;
nodes = (
"732 833 LINE",
"737 858 LINE",
"780 864 OFFCURVE",
"810 890 OFFCURVE",
"817 923 CURVE SMOOTH",
"826 964 OFFCURVE",
"798 991 OFFCURVE",
"740 991 CURVE SMOOTH",
"718 991 OFFCURVE",
"689 986 OFFCURVE",
"673 981 CURVE",
"664 938 LINE",
"675 943 OFFCURVE",
"693 946 OFFCURVE",
"708 946 CURVE SMOOTH",
"737 946 OFFCURVE",
"749 938 OFFCURVE",
"745 917 CURVE",
"739 893 OFFCURVE",
"718 883 OFFCURVE",
"679 883 CURVE",
"669 833 LINE"
);
}
);
width = 826;
}
);
leftKerningGroup = O;
note = Ocircumflexhookabove;
rightKerningGroup = O;
unicode = 1ED4;
},
{
glyphname = Ocircumflextilde;
lastChange = "2015-10-28 09:02:19 +0000";
layers = (
{
layerId = "493B3A41-641C-4718-8E4F-15C1585391FA";
name = "Regular Italic";
paths = (
{
closed = 1;
nodes = (
"592 -15 OFFCURVE",
"768 131 OFFCURVE",
"815 349 CURVE SMOOTH",
"861 568 OFFCURVE",
"723 714 OFFCURVE",
"524 714 CURVE SMOOTH",
"306 714 OFFCURVE",
"125 568 OFFCURVE",
"79 349 CURVE SMOOTH",
"32 131 OFFCURVE",
"175 -15 OFFCURVE",
"369 -15 CURVE SMOOTH"
);
},
{
closed = 1;
nodes = (
"225 77 OFFCURVE",
"146 181 OFFCURVE",
"182 349 CURVE SMOOTH",
"217 515 OFFCURVE",
"355 620 OFFCURVE",
"504 620 CURVE SMOOTH",
"673 620 OFFCURVE",
"747 515 OFFCURVE",
"712 349 CURVE SMOOTH",
"676 181 OFFCURVE",
"536 77 OFFCURVE",
"389 77 CURVE SMOOTH"
);
},
{
closed = 1;
nodes = (
"624 742 OFFCURVE",
"691 798 OFFCURVE",
"708 879 CURVE",
"631 879 LINE",
"622 835 OFFCURVE",
"590 809 OFFCURVE",
"544 809 CURVE SMOOTH",
"499 809 OFFCURVE",
"478 835 OFFCURVE",
"487 879 CURVE",
"416 879 LINE",
"399 798 OFFCURVE",
"442 742 OFFCURVE",
"533 742 CURVE SMOOTH"
);
},
{
closed = 1;
nodes = (
"439 939 OFFCURVE",
"466 950 OFFCURVE",
"497 950 CURVE SMOOTH",
"548 950 OFFCURVE",
"585 907 OFFCURVE",
"644 907 CURVE SMOOTH",
"679 907 OFFCURVE",
"708 916 OFFCURVE",
"731 942 CURVE",
"747 1017 LINE",
"717 984 OFFCURVE",
"688 973 OFFCURVE",
"658 973 CURVE SMOOTH",
"606 973 OFFCURVE",
"566 1017 OFFCURVE",
"511 1017 CURVE SMOOTH",
"476 1017 OFFCURVE",
"446 1007 OFFCURVE",
"423 981 CURVE",
"407 906 LINE"
);
}
);
width = 826;
}
);
leftKerningGroup = O;
note = Ocircumflextilde;
rightKerningGroup = O;
unicode = 1ED6;
},
{
glyphname = Odieresis;
lastChange = "2015-10-28 09:02:18 +0000";
layers = (
{
layerId = "493B3A41-641C-4718-8E4F-15C1585391FA";
name = "Regular Italic";
paths = (
{
closed = 1;
nodes = (
"592 -15 OFFCURVE",
"768 131 OFFCURVE",
"815 349 CURVE SMOOTH",
"861 568 OFFCURVE",
"723 714 OFFCURVE",
"524 714 CURVE SMOOTH",
"306 714 OFFCURVE",
"125 568 OFFCURVE",
"79 349 CURVE SMOOTH",
"32 131 OFFCURVE",
"175 -15 OFFCURVE",
"369 -15 CURVE SMOOTH"
);
},
{
closed = 1;
nodes = (
"225 77 OFFCURVE",
"146 181 OFFCURVE",
"182 349 CURVE SMOOTH",
"217 515 OFFCURVE",
"355 620 OFFCURVE",
"504 620 CURVE SMOOTH",
"673 620 OFFCURVE",
"747 515 OFFCURVE",
"712 349 CURVE SMOOTH",
"676 181 OFFCURVE",
"536 77 OFFCURVE",
"389 77 CURVE SMOOTH"
);
},
{
closed = 1;
nodes = (
"448 741 OFFCURVE",
"479 767 OFFCURVE",
"486 799 CURVE SMOOTH",
"493 831 OFFCURVE",
"473 857 OFFCURVE",
"442 857 CURVE SMOOTH",
"410 857 OFFCURVE",
"378 831 OFFCURVE",
"371 799 CURVE SMOOTH",
"364 767 OFFCURVE",
"386 741 OFFCURVE",
"417 741 CURVE SMOOTH"
);
},
{
closed = 1;
nodes = (
"675 741 OFFCURVE",
"706 767 OFFCURVE",
"713 799 CURVE SMOOTH",
"720 831 OFFCURVE",
"700 857 OFFCURVE",
"669 857 CURVE SMOOTH",
"637 857 OFFCURVE",
"604 831 OFFCURVE",
"597 799 CURVE SMOOTH",
"590 767 OFFCURVE",
"612 741 OFFCURVE",
"644 741 CURVE SMOOTH"
);
}
);
width = 826;
}
);
leftKerningGroup = O;
note = Odieresis;
rightKerningGroup = O;
unicode = 00D6;
},
{
glyphname = Odotbelow;
lastChange = "2015-10-28 09:02:17 +0000";
layers = (
{
layerId = "493B3A41-641C-4718-8E4F-15C1585391FA";
name = "Regular Italic";
paths = (
{
closed = 1;
nodes = (
"592 -15 OFFCURVE",
"768 131 OFFCURVE",
"815 349 CURVE SMOOTH",
"861 568 OFFCURVE",
"723 714 OFFCURVE",
"524 714 CURVE SMOOTH",
"306 714 OFFCURVE",
"125 568 OFFCURVE",
"79 349 CURVE SMOOTH",
"32 131 OFFCURVE",
"175 -15 OFFCURVE",
"369 -15 CURVE SMOOTH"
);
},
{
closed = 1;
nodes = (
"370 -166 OFFCURVE",
"401 -140 OFFCURVE",
"408 -108 CURVE SMOOTH",
"414 -76 OFFCURVE",
"394 -50 OFFCURVE",
"364 -50 CURVE SMOOTH",
"332 -50 OFFCURVE",
"299 -76 OFFCURVE",
"293 -108 CURVE SMOOTH",
"286 -140 OFFCURVE",
"307 -166 OFFCURVE",
"339 -166 CURVE SMOOTH"
);
},
{
closed = 1;
nodes = (
"225 77 OFFCURVE",
"146 181 OFFCURVE",
"182 349 CURVE SMOOTH",
"217 515 OFFCURVE",
"355 620 OFFCURVE",
"504 620 CURVE SMOOTH",
"673 620 OFFCURVE",
"747 515 OFFCURVE",
"712 349 CURVE SMOOTH",
"676 181 OFFCURVE",
"536 77 OFFCURVE",
"389 77 CURVE SMOOTH"
);
}
);
width = 826;
}
);
leftKerningGroup = O;
note = Odotbelow;
rightKerningGroup = O;
unicode = 1ECC;
},
{
glyphname = Ograve;
lastChange = "2015-10-28 09:02:17 +0000";
layers = (
{
layerId = "493B3A41-641C-4718-8E4F-15C1585391FA";
name = "Regular Italic";
paths = (
{
closed = 1;
nodes = (
"592 -15 OFFCURVE",
"768 131 OFFCURVE",
"815 349 CURVE SMOOTH",
"861 568 OFFCURVE",
"723 714 OFFCURVE",
"524 714 CURVE SMOOTH",
"306 714 OFFCURVE",
"125 568 OFFCURVE",
"79 349 CURVE SMOOTH",
"32 131 OFFCURVE",
"175 -15 OFFCURVE",
"369 -15 CURVE SMOOTH"
);
},
{
closed = 1;
nodes = (
"225 77 OFFCURVE",
"146 181 OFFCURVE",
"182 349 CURVE SMOOTH",
"217 515 OFFCURVE",
"355 620 OFFCURVE",
"504 620 CURVE SMOOTH",
"673 620 OFFCURVE",
"747 515 OFFCURVE",
"712 349 CURVE SMOOTH",
"676 181 OFFCURVE",
"536 77 OFFCURVE",
"389 77 CURVE SMOOTH"
);
},
{
closed = 1;
nodes = (
"587 741 LINE",
"555 913 LINE",
"448 913 LINE",
"494 741 LINE"
);
}
);
width = 826;
}
);
leftKerningGroup = O;
note = Ograve;
rightKerningGroup = O;
unicode = 00D2;
},
{
glyphname = Ohookabove;
lastChange = "2015-10-28 09:02:19 +0000";
layers = (
{
layerId = "493B3A41-641C-4718-8E4F-15C1585391FA";
name = "Regular Italic";
paths = (
{
closed = 1;
nodes = (
"592 -15 OFFCURVE",
"768 131 OFFCURVE",
"815 349 CURVE SMOOTH",
"861 568 OFFCURVE",
"723 714 OFFCURVE",
"524 714 CURVE SMOOTH",
"306 714 OFFCURVE",
"125 568 OFFCURVE",
"79 349 CURVE SMOOTH",
"32 131 OFFCURVE",
"175 -15 OFFCURVE",
"369 -15 CURVE SMOOTH"
);
},
{
closed = 1;
nodes = (
"225 77 OFFCURVE",
"146 181 OFFCURVE",
"182 349 CURVE SMOOTH",
"217 515 OFFCURVE",
"355 620 OFFCURVE",
"504 620 CURVE SMOOTH",
"673 620 OFFCURVE",
"747 515 OFFCURVE",
"712 349 CURVE SMOOTH",
"676 181 OFFCURVE",
"536 77 OFFCURVE",
"389 77 CURVE SMOOTH"
);
},
{
closed = 1;
nodes = (
"574 742 LINE",
"581 776 LINE",
"643 784 OFFCURVE",
"683 822 OFFCURVE",
"693 870 CURVE SMOOTH",
"705 927 OFFCURVE",
"671 967 OFFCURVE",
"583 967 CURVE SMOOTH",
"551 967 OFFCURVE",
"514 961 OFFCURVE",
"493 954 CURVE",
"481 899 LINE",
"495 905 OFFCURVE",
"531 910 OFFCURVE",
"547 910 CURVE SMOOTH",
"593 910 OFFCURVE",
"610 897 OFFCURVE",
"603 866 CURVE SMOOTH",
"595 827 OFFCURVE",
"560 813 OFFCURVE",
"500 813 CURVE",
"485 742 LINE"
);
}
);
width = 826;
}
);
leftKerningGroup = O;
note = Ohookabove;
rightKerningGroup = O;
unicode = 1ECE;
},
{
glyphname = Ohorn;
lastChange = "2015-10-28 09:02:18 +0000";
layers = (
{
layerId = "493B3A41-641C-4718-8E4F-15C1585391FA";
name = "Regular Italic";
paths = (
{
closed = 1;
nodes = (
"592 -15 OFFCURVE",
"769 131 OFFCURVE",
"815 349 CURVE SMOOTH",
"831 425 OFFCURVE",
"825 493 OFFCURVE",
"801 549 CURVE",
"879 568 OFFCURVE",
"939 631 OFFCURVE",
"955 706 CURVE SMOOTH",
"963 747 LINE",
"869 747 LINE",
"862 711 LINE SMOOTH",
"849 651 OFFCURVE",
"818 624 OFFCURVE",
"752 624 CURVE",
"698 681 OFFCURVE",
"618 714 OFFCURVE",
"524 714 CURVE SMOOTH",
"306 714 OFFCURVE",
"126 568 OFFCURVE",
"79 349 CURVE SMOOTH",
"33 131 OFFCURVE",
"175 -15 OFFCURVE",
"369 -15 CURVE SMOOTH"
);
},
{
closed = 1;
nodes = (
"225 77 OFFCURVE",
"146 181 OFFCURVE",
"182 349 CURVE SMOOTH",
"217 515 OFFCURVE",
"355 620 OFFCURVE",
"504 620 CURVE SMOOTH",
"673 620 OFFCURVE",
"747 515 OFFCURVE",
"712 349 CURVE SMOOTH",
"676 181 OFFCURVE",
"536 77 OFFCURVE",
"389 77 CURVE SMOOTH"
);
}
);
width = 862;
}
);
leftKerningGroup = O;
note = Ohorn;
rightKerningGroup = O;
unicode = 01A0;
},
{
glyphname = Ohornacute;
lastChange = "2015-10-28 09:02:19 +0000";
layers = (
{
layerId = "493B3A41-641C-4718-8E4F-15C1585391FA";
name = "Regular Italic";
paths = (
{
closed = 1;
nodes = (
"592 -15 OFFCURVE",
"769 131 OFFCURVE",
"815 349 CURVE SMOOTH",
"831 425 OFFCURVE",
"825 493 OFFCURVE",
"801 549 CURVE",
"879 568 OFFCURVE",
"939 631 OFFCURVE",
"955 706 CURVE SMOOTH",
"963 747 LINE",
"869 747 LINE",
"862 711 LINE SMOOTH",
"849 651 OFFCURVE",
"818 624 OFFCURVE",
"752 624 CURVE",
"698 681 OFFCURVE",
"618 714 OFFCURVE",
"524 714 CURVE SMOOTH",
"306 714 OFFCURVE",
"126 568 OFFCURVE",
"79 349 CURVE SMOOTH",
"33 131 OFFCURVE",
"175 -15 OFFCURVE",
"369 -15 CURVE SMOOTH"
);
},
{
closed = 1;
nodes = (
"225 77 OFFCURVE",
"146 181 OFFCURVE",
"182 349 CURVE SMOOTH",
"217 515 OFFCURVE",
"355 620 OFFCURVE",
"504 620 CURVE SMOOTH",
"673 620 OFFCURVE",
"747 515 OFFCURVE",
"712 349 CURVE SMOOTH",
"676 181 OFFCURVE",
"536 77 OFFCURVE",
"389 77 CURVE SMOOTH"
);
},
{
closed = 1;
nodes = (
"580 741 LINE",
"700 913 LINE",
"593 913 LINE",
"488 741 LINE"
);
}
);
width = 865;
}
);
leftKerningGroup = O;
note = Ohornacute;
rightKerningGroup = O;
unicode = 1EDA;
},
{
glyphname = Ohorndotbelow;
lastChange = "2015-10-28 09:02:19 +0000";
layers = (
{
layerId = "493B3A41-641C-4718-8E4F-15C1585391FA";
name = "Regular Italic";
paths = (
{
closed = 1;
nodes = (
"592 -15 OFFCURVE",
"769 131 OFFCURVE",
"815 349 CURVE SMOOTH",
"831 425 OFFCURVE",
"825 493 OFFCURVE",
"801 549 CURVE",
"879 568 OFFCURVE",
"939 631 OFFCURVE",
"955 706 CURVE SMOOTH",
"963 747 LINE",
"869 747 LINE",
"862 711 LINE SMOOTH",
"849 651 OFFCURVE",
"818 624 OFFCURVE",
"752 624 CURVE",
"698 681 OFFCURVE",
"618 714 OFFCURVE",
"524 714 CURVE SMOOTH",
"306 714 OFFCURVE",
"126 568 OFFCURVE",
"79 349 CURVE SMOOTH",
"33 131 OFFCURVE",
"175 -15 OFFCURVE",
"369 -15 CURVE SMOOTH"
);
},
{
closed = 1;
nodes = (
"367 -166 OFFCURVE",
"398 -140 OFFCURVE",
"405 -108 CURVE SMOOTH",
"411 -76 OFFCURVE",
"391 -50 OFFCURVE",
"361 -50 CURVE SMOOTH",
"329 -50 OFFCURVE",
"296 -76 OFFCURVE",
"290 -108 CURVE SMOOTH",
"283 -140 OFFCURVE",
"304 -166 OFFCURVE",
"336 -166 CURVE SMOOTH"
);
},
{
closed = 1;
nodes = (
"225 77 OFFCURVE",
"146 181 OFFCURVE",
"182 349 CURVE SMOOTH",
"217 515 OFFCURVE",
"355 620 OFFCURVE",
"504 620 CURVE SMOOTH",
"673 620 OFFCURVE",
"747 515 OFFCURVE",
"712 349 CURVE SMOOTH",
"676 181 OFFCURVE",
"536 77 OFFCURVE",
"389 77 CURVE SMOOTH"
);
}
);
width = 865;
}
);
leftKerningGroup = O;
note = Ohorndotbelow;
rightKerningGroup = O;
unicode = 1EE2;
},
{
glyphname = Ohorngrave;
lastChange = "2015-10-28 09:02:19 +0000";
layers = (
{
layerId = "493B3A41-641C-4718-8E4F-15C1585391FA";
name = "Regular Italic";
paths = (
{
closed = 1;
nodes = (
"592 -15 OFFCURVE",
"769 131 OFFCURVE",
"815 349 CURVE SMOOTH",
"831 425 OFFCURVE",
"825 493 OFFCURVE",
"801 549 CURVE",
"879 568 OFFCURVE",
"939 631 OFFCURVE",
"955 706 CURVE SMOOTH",
"963 747 LINE",
"869 747 LINE",
"862 711 LINE SMOOTH",
"849 651 OFFCURVE",
"818 624 OFFCURVE",
"752 624 CURVE",
"698 681 OFFCURVE",
"618 714 OFFCURVE",
"524 714 CURVE SMOOTH",
"306 714 OFFCURVE",
"126 568 OFFCURVE",
"79 349 CURVE SMOOTH",
"33 131 OFFCURVE",
"175 -15 OFFCURVE",
"369 -15 CURVE SMOOTH"
);
},
{
closed = 1;
nodes = (
"225 77 OFFCURVE",
"146 181 OFFCURVE",
"182 349 CURVE SMOOTH",
"217 515 OFFCURVE",
"355 620 OFFCURVE",
"504 620 CURVE SMOOTH",
"673 620 OFFCURVE",
"747 515 OFFCURVE",
"712 349 CURVE SMOOTH",
"676 181 OFFCURVE",
"536 77 OFFCURVE",
"389 77 CURVE SMOOTH"
);
},
{
closed = 1;
nodes = (
"572 741 LINE",
"540 913 LINE",
"433 913 LINE",
"479 741 LINE"
);
}
);
width = 865;
}
);
leftKerningGroup = O;
note = Ohorngrave;
rightKerningGroup = O;
unicode = 1EDC;
},
{
glyphname = Ohornhookabove;
lastChange = "2015-10-28 09:02:19 +0000";
layers = (
{
layerId = "493B3A41-641C-4718-8E4F-15C1585391FA";
name = "Regular Italic";
paths = (
{
closed = 1;
nodes = (
"592 -15 OFFCURVE",
"769 131 OFFCURVE",
"815 349 CURVE SMOOTH",
"831 425 OFFCURVE",
"825 493 OFFCURVE",
"801 549 CURVE",
"879 568 OFFCURVE",
"939 631 OFFCURVE",
"955 706 CURVE SMOOTH",
"963 747 LINE",
"869 747 LINE",
"862 711 LINE SMOOTH",
"849 651 OFFCURVE",
"818 624 OFFCURVE",
"752 624 CURVE",
"698 681 OFFCURVE",
"618 714 OFFCURVE",
"524 714 CURVE SMOOTH",
"306 714 OFFCURVE",
"126 568 OFFCURVE",
"79 349 CURVE SMOOTH",
"33 131 OFFCURVE",
"175 -15 OFFCURVE",
"369 -15 CURVE SMOOTH"
);
},
{
closed = 1;
nodes = (
"225 77 OFFCURVE",
"146 181 OFFCURVE",
"182 349 CURVE SMOOTH",
"217 515 OFFCURVE",
"355 620 OFFCURVE",
"504 620 CURVE SMOOTH",
"673 620 OFFCURVE",
"747 515 OFFCURVE",
"712 349 CURVE SMOOTH",
"676 181 OFFCURVE",
"536 77 OFFCURVE",
"389 77 CURVE SMOOTH"
);
},
{
closed = 1;
nodes = (
"576 742 LINE",
"583 776 LINE",
"645 784 OFFCURVE",
"685 822 OFFCURVE",
"695 870 CURVE SMOOTH",
"707 927 OFFCURVE",
"673 967 OFFCURVE",
"585 967 CURVE SMOOTH",
"553 967 OFFCURVE",
"516 961 OFFCURVE",
"495 954 CURVE",
"483 899 LINE",
"497 905 OFFCURVE",
"533 910 OFFCURVE",
"549 910 CURVE SMOOTH",
"595 910 OFFCURVE",
"612 897 OFFCURVE",
"605 866 CURVE SMOOTH",
"597 827 OFFCURVE",
"562 813 OFFCURVE",
"502 813 CURVE",
"487 742 LINE"
);
}
);
width = 865;
}
);
leftKerningGroup = O;
note = Ohornhookabove;
rightKerningGroup = O;
unicode = 1EDE;
},
{
glyphname = Ohorntilde;
lastChange = "2015-10-28 09:02:19 +0000";
layers = (
{
layerId = "493B3A41-641C-4718-8E4F-15C1585391FA";
name = "Regular Italic";
paths = (
{
closed = 1;
nodes = (
"592 -15 OFFCURVE",
"769 131 OFFCURVE",
"815 349 CURVE SMOOTH",
"831 425 OFFCURVE",
"825 493 OFFCURVE",
"801 549 CURVE",
"879 568 OFFCURVE",
"939 631 OFFCURVE",
"955 706 CURVE SMOOTH",
"963 747 LINE",
"869 747 LINE",
"862 711 LINE SMOOTH",
"849 651 OFFCURVE",
"818 624 OFFCURVE",
"752 624 CURVE",
"698 681 OFFCURVE",
"618 714 OFFCURVE",
"524 714 CURVE SMOOTH",
"306 714 OFFCURVE",
"126 568 OFFCURVE",
"79 349 CURVE SMOOTH",
"33 131 OFFCURVE",
"175 -15 OFFCURVE",
"369 -15 CURVE SMOOTH"
);
},
{
closed = 1;
nodes = (
"225 77 OFFCURVE",
"146 181 OFFCURVE",
"182 349 CURVE SMOOTH",
"217 515 OFFCURVE",
"355 620 OFFCURVE",
"504 620 CURVE SMOOTH",
"673 620 OFFCURVE",
"747 515 OFFCURVE",
"712 349 CURVE SMOOTH",
"676 181 OFFCURVE",
"536 77 OFFCURVE",
"389 77 CURVE SMOOTH"
);
},
{
closed = 1;
nodes = (
"397 782 OFFCURVE",
"432 794 OFFCURVE",
"468 794 CURVE SMOOTH",
"532 794 OFFCURVE",
"569 744 OFFCURVE",
"642 744 CURVE SMOOTH",
"683 744 OFFCURVE",
"720 755 OFFCURVE",
"747 786 CURVE",
"765 872 LINE",
"730 833 OFFCURVE",
"696 821 OFFCURVE",
"659 821 CURVE SMOOTH",
"594 821 OFFCURVE",
"552 871 OFFCURVE",
"484 871 CURVE SMOOTH",
"444 871 OFFCURVE",
"406 859 OFFCURVE",
"377 828 CURVE",
"359 742 LINE"
);
}
);
width = 865;
}
);
leftKerningGroup = O;
note = Ohorntilde;
rightKerningGroup = O;
unicode = 1EE0;
},
{
glyphname = Ohungarumlaut;
lastChange = "2015-10-28 09:02:18 +0000";
layers = (
{
layerId = "493B3A41-641C-4718-8E4F-15C1585391FA";
name = "Regular Italic";
paths = (
{
closed = 1;
nodes = (
"592 -15 OFFCURVE",
"768 131 OFFCURVE",
"815 349 CURVE SMOOTH",
"861 568 OFFCURVE",
"723 714 OFFCURVE",
"524 714 CURVE SMOOTH",
"306 714 OFFCURVE",
"125 568 OFFCURVE",
"79 349 CURVE SMOOTH",
"32 131 OFFCURVE",
"175 -15 OFFCURVE",
"369 -15 CURVE SMOOTH"
);
},
{
closed = 1;
nodes = (
"225 77 OFFCURVE",
"146 181 OFFCURVE",
"182 349 CURVE SMOOTH",
"217 515 OFFCURVE",
"355 620 OFFCURVE",
"504 620 CURVE SMOOTH",
"673 620 OFFCURVE",
"747 515 OFFCURVE",
"712 349 CURVE SMOOTH",
"676 181 OFFCURVE",
"536 77 OFFCURVE",
"389 77 CURVE SMOOTH"
);
},
{
closed = 1;
nodes = (
"459 741 LINE",
"579 913 LINE",
"477 913 LINE",
"373 741 LINE"
);
},
{
closed = 1;
nodes = (
"666 741 LINE",
"786 913 LINE",
"684 913 LINE",
"578 741 LINE"
);
}
);
width = 826;
}
);
leftKerningGroup = O;
note = Ohungarumlaut;
rightKerningGroup = O;
unicode = 0150;
},
{
glyphname = Omacron;
lastChange = "2015-10-28 09:02:18 +0000";
layers = (
{
layerId = "493B3A41-641C-4718-8E4F-15C1585391FA";
name = "Regular Italic";
paths = (
{
closed = 1;
nodes = (
"592 -15 OFFCURVE",
"768 131 OFFCURVE",
"815 349 CURVE SMOOTH",
"861 568 OFFCURVE",
"723 714 OFFCURVE",
"524 714 CURVE SMOOTH",
"306 714 OFFCURVE",
"125 568 OFFCURVE",
"79 349 CURVE SMOOTH",
"32 131 OFFCURVE",
"175 -15 OFFCURVE",
"369 -15 CURVE SMOOTH"
);
},
{
closed = 1;
nodes = (
"225 77 OFFCURVE",
"146 181 OFFCURVE",
"182 349 CURVE SMOOTH",
"217 515 OFFCURVE",
"355 620 OFFCURVE",
"504 620 CURVE SMOOTH",
"673 620 OFFCURVE",
"747 515 OFFCURVE",
"712 349 CURVE SMOOTH",
"676 181 OFFCURVE",
"536 77 OFFCURVE",
"389 77 CURVE SMOOTH"
);
},
{
closed = 1;
nodes = (
"690 762 LINE",
"705 831 LINE",
"394 831 LINE",
"379 762 LINE"
);
}
);
width = 826;
}
);
leftKerningGroup = O;
note = Omacron;
rightKerningGroup = O;
unicode = 014C;
},
{
glyphname = Oslash;
lastChange = "2015-10-28 09:02:19 +0000";
layers = (
{
layerId = "493B3A41-641C-4718-8E4F-15C1585391FA";
name = "Regular Italic";
paths = (
{
closed = 1;
nodes = (
"232 -86 LINE",
"282 -5 LINE",
"309 -11 OFFCURVE",
"338 -15 OFFCURVE",
"369 -15 CURVE SMOOTH",
"592 -15 OFFCURVE",
"768 131 OFFCURVE",
"815 349 CURVE SMOOTH",
"846 496 OFFCURVE",
"795 610 OFFCURVE",
"696 669 CURVE",
"767 784 LINE",
"667 784 LINE",
"617 702 LINE",
"588 710 OFFCURVE",
"557 714 OFFCURVE",
"524 714 CURVE SMOOTH",
"306 714 OFFCURVE",
"125 568 OFFCURVE",
"79 349 CURVE SMOOTH",
"47 200 OFFCURVE",
"101 85 OFFCURVE",
"201 27 CURVE",
"132 -86 LINE"
);
},
{
closed = 1;
nodes = (
"177 149 OFFCURVE",
"157 234 OFFCURVE",
"182 349 CURVE SMOOTH",
"217 515 OFFCURVE",
"355 620 OFFCURVE",
"504 620 CURVE SMOOTH",
"525 620 OFFCURVE",
"545 618 OFFCURVE",
"563 616 CURVE",
"250 107 LINE"
);
},
{
closed = 1;
nodes = (
"369 77 OFFCURVE",
"351 78 OFFCURVE",
"334 80 CURVE",
"646 588 LINE",
"717 545 OFFCURVE",
"735 461 OFFCURVE",
"712 349 CURVE SMOOTH",
"676 181 OFFCURVE",
"536 77 OFFCURVE",
"389 77 CURVE SMOOTH"
);
}
);
width = 826;
}
);
leftKerningGroup = O;
note = Oslash;
rightKerningGroup = O;
unicode = 00D8;
},
{
glyphname = Oslashacute;
lastChange = "2015-10-28 09:02:18 +0000";
layers = (
{
layerId = "493B3A41-641C-4718-8E4F-15C1585391FA";
name = "Regular Italic";
paths = (
{
closed = 1;
nodes = (
"232 -86 LINE",
"282 -5 LINE",
"309 -11 OFFCURVE",
"338 -15 OFFCURVE",
"369 -15 CURVE SMOOTH",
"592 -15 OFFCURVE",
"768 131 OFFCURVE",
"815 349 CURVE SMOOTH",
"846 496 OFFCURVE",
"795 610 OFFCURVE",
"696 669 CURVE",
"767 784 LINE",
"667 784 LINE",
"617 702 LINE",
"588 710 OFFCURVE",
"557 714 OFFCURVE",
"524 714 CURVE SMOOTH",
"306 714 OFFCURVE",
"125 568 OFFCURVE",
"79 349 CURVE SMOOTH",
"47 200 OFFCURVE",
"101 85 OFFCURVE",
"201 27 CURVE",
"132 -86 LINE"
);
},
{
closed = 1;
nodes = (
"177 149 OFFCURVE",
"157 234 OFFCURVE",
"182 349 CURVE SMOOTH",
"217 515 OFFCURVE",
"355 620 OFFCURVE",
"504 620 CURVE SMOOTH",
"525 620 OFFCURVE",
"545 618 OFFCURVE",
"563 616 CURVE",
"250 107 LINE"
);
},
{
closed = 1;
nodes = (
"369 77 OFFCURVE",
"351 78 OFFCURVE",
"334 80 CURVE",
"646 588 LINE",
"717 545 OFFCURVE",
"735 461 OFFCURVE",
"712 349 CURVE SMOOTH",
"676 181 OFFCURVE",
"536 77 OFFCURVE",
"389 77 CURVE SMOOTH"
);
},
{
closed = 1;
nodes = (
"573 748 LINE",
"693 920 LINE",
"586 920 LINE",
"480 748 LINE"
);
}
);
width = 826;
}
);
leftKerningGroup = O;
note = Oslashacute;
rightKerningGroup = O;
unicode = 01FE;
},
{
glyphname = Otilde;
lastChange = "2015-10-28 09:02:17 +0000";
layers = (
{
layerId = "493B3A41-641C-4718-8E4F-15C1585391FA";
name = "Regular Italic";
paths = (
{
closed = 1;
nodes = (
"592 -15 OFFCURVE",
"768 131 OFFCURVE",
"815 349 CURVE SMOOTH",
"861 568 OFFCURVE",
"723 714 OFFCURVE",
"524 714 CURVE SMOOTH",
"306 714 OFFCURVE",
"125 568 OFFCURVE",
"79 349 CURVE SMOOTH",
"32 131 OFFCURVE",
"175 -15 OFFCURVE",
"369 -15 CURVE SMOOTH"
);
},
{
closed = 1;
nodes = (
"225 77 OFFCURVE",
"146 181 OFFCURVE",
"182 349 CURVE SMOOTH",
"217 515 OFFCURVE",
"355 620 OFFCURVE",
"504 620 CURVE SMOOTH",
"673 620 OFFCURVE",
"747 515 OFFCURVE",
"712 349 CURVE SMOOTH",
"676 181 OFFCURVE",
"536 77 OFFCURVE",
"389 77 CURVE SMOOTH"
);
},
{
closed = 1;
nodes = (
"379 782 OFFCURVE",
"414 794 OFFCURVE",
"450 794 CURVE SMOOTH",
"514 794 OFFCURVE",
"551 744 OFFCURVE",
"624 744 CURVE SMOOTH",
"665 744 OFFCURVE",
"702 755 OFFCURVE",
"729 786 CURVE",
"747 872 LINE",
"712 833 OFFCURVE",
"678 821 OFFCURVE",
"641 821 CURVE SMOOTH",
"576 821 OFFCURVE",
"534 871 OFFCURVE",
"466 871 CURVE SMOOTH",
"426 871 OFFCURVE",
"388 859 OFFCURVE",
"359 828 CURVE",
"341 742 LINE"
);
}
);
width = 826;
}
);
leftKerningGroup = O;
note = Otilde;
rightKerningGroup = O;
unicode = 00D5;
},
{
glyphname = OE;
lastChange = "2015-10-28 09:02:18 +0000";
layers = (
{
layerId = "493B3A41-641C-4718-8E4F-15C1585391FA";
name = "Regular Italic";
paths = (
{
closed = 1;
nodes = (
"806 0 LINE",
"824 85 LINE",
"515 85 LINE",
"562 307 LINE",
"781 307 LINE",
"799 392 LINE",
"580 392 LINE",
"627 613 LINE",
"936 613 LINE",
"954 699 LINE",
"530 699 LINE SMOOTH",
"306 699 OFFCURVE",
"125 568 OFFCURVE",
"79 349 CURVE SMOOTH",
"32 131 OFFCURVE",
"174 0 OFFCURVE",
"382 0 CURVE SMOOTH"
);
},
{
closed = 1;
nodes = (
"216 85 OFFCURVE",
"146 182 OFFCURVE",
"182 349 CURVE SMOOTH",
"217 515 OFFCURVE",
"362 613 OFFCURVE",
"505 613 CURVE SMOOTH",
"525 613 LINE",
"413 85 LINE",
"393 85 LINE SMOOTH"
);
}
);
width = 891;
}
);
leftKerningGroup = O;
note = OE;
rightKerningGroup = E;
unicode = 0152;
},
{
glyphname = P;
lastChange = "2015-10-28 09:02:19 +0000";
layers = (
{
layerId = "493B3A41-641C-4718-8E4F-15C1585391FA";
name = "Regular Italic";
paths = (
{
closed = 1;
nodes = (
"127 0 LINE",
"183 267 LINE",
"350 267 LINE SMOOTH",
"498 267 OFFCURVE",
"611 337 OFFCURVE",
"640 482 CURVE SMOOTH",
"667 618 OFFCURVE",
"581 699 OFFCURVE",
"442 699 CURVE SMOOTH",
"173 699 LINE",
"25 0 LINE"
);
},
{
closed = 1;
nodes = (
"257 613 LINE",
"413 613 LINE SMOOTH",
"516 613 OFFCURVE",
"559 586 OFFCURVE",
"537 482 CURVE SMOOTH",
"515 379 OFFCURVE",
"440 352 OFFCURVE",
"357 352 CURVE SMOOTH",
"201 352 LINE"
);
}
);
width = 603;
}
);
note = P;
unicode = 0050;
},
{
glyphname = Thorn;
lastChange = "2015-10-28 09:02:19 +0000";
layers = (
{
layerId = "493B3A41-641C-4718-8E4F-15C1585391FA";
name = "Regular Italic";
paths = (
{
closed = 1;
nodes = (
"127 0 LINE",
"156 141 LINE",
"329 141 LINE SMOOTH",
"483 141 OFFCURVE",
"584 204 OFFCURVE",
"612 350 CURVE SMOOTH",
"639 488 OFFCURVE",
"560 561 OFFCURVE",
"419 561 CURVE SMOOTH",
"246 561 LINE",
"275 699 LINE",
"173 699 LINE",
"25 0 LINE"
);
},
{
closed = 1;
nodes = (
"227 475 LINE",
"383 475 LINE SMOOTH",
"478 475 OFFCURVE",
"531 454 OFFCURVE",
"509 350 CURVE SMOOTH",
"487 247 OFFCURVE",
"414 226 OFFCURVE",
"331 226 CURVE SMOOTH",
"175 226 LINE"
);
}
);
width = 603;
}
);
note = Thorn;
unicode = 00DE;
},
{
glyphname = Q;
lastChange = "2015-10-28 09:02:19 +0000";
layers = (
{
layerId = "493B3A41-641C-4718-8E4F-15C1585391FA";
name = "Regular Italic";
paths = (
{
closed = 1;
nodes = (
"752 0 LINE",
"770 88 LINE",
"619 88 LINE",
"713 137 OFFCURVE",
"791 236 OFFCURVE",
"815 351 CURVE SMOOTH",
"862 570 OFFCURVE",
"732 714 OFFCURVE",
"524 714 CURVE SMOOTH",
"306 714 OFFCURVE",
"126 570 OFFCURVE",
"79 351 CURVE SMOOTH",
"34 137 OFFCURVE",
"160 0 OFFCURVE",
"391 0 CURVE SMOOTH"
);
},
{
closed = 1;
nodes = (
"220 93 OFFCURVE",
"147 184 OFFCURVE",
"182 351 CURVE SMOOTH",
"217 516 OFFCURVE",
"356 620 OFFCURVE",
"504 620 CURVE SMOOTH",
"680 620 OFFCURVE",
"746 516 OFFCURVE",
"711 351 CURVE SMOOTH",
"676 185 OFFCURVE",
"545 93 OFFCURVE",
"392 93 CURVE SMOOTH"
);
}
);
width = 817;
}
);
leftKerningGroup = O;
note = Q;
rightKerningGroup = O;
unicode = 0051;
},
{
glyphname = R;
lastChange = "2015-10-28 09:02:19 +0000";
layers = (
{
layerId = "493B3A41-641C-4718-8E4F-15C1585391FA";
name = "Regular Italic";
paths = (
{
closed = 1;
nodes = (
"127 0 LINE",
"185 276 LINE",
"338 276 LINE",
"429 0 LINE",
"535 0 LINE",
"441 284 LINE",
"553 309 OFFCURVE",
"619 385 OFFCURVE",
"641 487 CURVE SMOOTH",
"669 618 OFFCURVE",
"595 699 OFFCURVE",
"454 699 CURVE SMOOTH",
"173 699 LINE",
"25 0 LINE"
);
},
{
closed = 1;
nodes = (
"257 613 LINE",
"427 613 LINE SMOOTH",
"518 613 OFFCURVE",
"559 584 OFFCURVE",
"538 487 CURVE SMOOTH",
"520 402 OFFCURVE",
"451 362 OFFCURVE",
"365 362 CURVE SMOOTH",
"203 362 LINE"
);
}
);
width = 623;
}
);
note = R;
rightKerningGroup = R;
unicode = 0052;
},
{
glyphname = Racute;
lastChange = "2015-10-28 09:02:19 +0000";
layers = (
{
layerId = "493B3A41-641C-4718-8E4F-15C1585391FA";
name = "Regular Italic";
paths = (
{
closed = 1;
nodes = (
"127 0 LINE",
"185 276 LINE",
"338 276 LINE",
"429 0 LINE",
"535 0 LINE",
"441 284 LINE",
"553 309 OFFCURVE",
"619 385 OFFCURVE",
"641 487 CURVE SMOOTH",
"669 618 OFFCURVE",
"595 699 OFFCURVE",
"454 699 CURVE SMOOTH",
"173 699 LINE",
"25 0 LINE"
);
},
{
closed = 1;
nodes = (
"257 613 LINE",
"427 613 LINE SMOOTH",
"518 613 OFFCURVE",
"559 584 OFFCURVE",
"538 487 CURVE SMOOTH",
"520 402 OFFCURVE",
"451 362 OFFCURVE",
"365 362 CURVE SMOOTH",
"203 362 LINE"
);
},
{
closed = 1;
nodes = (
"436 741 LINE",
"556 913 LINE",
"449 913 LINE",
"344 741 LINE"
);
}
);
width = 623;
}
);
note = Racute;
rightKerningGroup = R;
unicode = 0154;
},
{
glyphname = Rcaron;
lastChange = "2015-10-28 09:02:18 +0000";
layers = (
{
layerId = "493B3A41-641C-4718-8E4F-15C1585391FA";
name = "Regular Italic";
paths = (
{
closed = 1;
nodes = (
"127 0 LINE",
"185 276 LINE",
"338 276 LINE",
"429 0 LINE",
"535 0 LINE",
"441 284 LINE",
"553 309 OFFCURVE",
"619 385 OFFCURVE",
"641 487 CURVE SMOOTH",
"669 618 OFFCURVE",
"595 699 OFFCURVE",
"454 699 CURVE SMOOTH",
"173 699 LINE",
"25 0 LINE"
);
},
{
closed = 1;
nodes = (
"257 613 LINE",
"427 613 LINE SMOOTH",
"518 613 OFFCURVE",
"559 584 OFFCURVE",
"538 487 CURVE SMOOTH",
"520 402 OFFCURVE",
"451 362 OFFCURVE",
"365 362 CURVE SMOOTH",
"203 362 LINE"
);
},
{
closed = 1;
nodes = (
"438 742 LINE",
"616 908 LINE",
"511 908 LINE",
"404 801 LINE",
"343 908 LINE",
"244 908 LINE",
"349 742 LINE"
);
}
);
width = 623;
}
);
note = Rcaron;
rightKerningGroup = R;
unicode = 0158;
},
{
glyphname = Rcommaaccent;
lastChange = "2015-10-28 09:02:19 +0000";
layers = (
{
layerId = "493B3A41-641C-4718-8E4F-15C1585391FA";
name = "Regular Italic";
paths = (
{
closed = 1;
nodes = (
"127 0 LINE",
"185 276 LINE",
"338 276 LINE",
"429 0 LINE",
"535 0 LINE",
"441 284 LINE",
"553 309 OFFCURVE",
"619 385 OFFCURVE",
"641 487 CURVE SMOOTH",
"669 618 OFFCURVE",
"595 699 OFFCURVE",
"454 699 CURVE SMOOTH",
"173 699 LINE",
"25 0 LINE"
);
},
{
closed = 1;
nodes = (
"165 -260 LINE",
"303 -60 LINE",
"197 -60 LINE",
"74 -260 LINE"
);
},
{
closed = 1;
nodes = (
"257 613 LINE",
"427 613 LINE SMOOTH",
"518 613 OFFCURVE",
"559 584 OFFCURVE",
"538 487 CURVE SMOOTH",
"520 402 OFFCURVE",
"451 362 OFFCURVE",
"365 362 CURVE SMOOTH",
"203 362 LINE"
);
}
);
width = 623;
}
);
note = Rcommaaccent;
rightKerningGroup = R;
unicode = 0156;
},
{
glyphname = Rdotbelow;
lastChange = "2015-10-28 09:02:19 +0000";
layers = (
{
layerId = "493B3A41-641C-4718-8E4F-15C1585391FA";
name = "Regular Italic";
paths = (
{
closed = 1;
nodes = (
"127 0 LINE",
"185 276 LINE",
"338 276 LINE",
"429 0 LINE",
"535 0 LINE",
"441 284 LINE",
"553 309 OFFCURVE",
"619 385 OFFCURVE",
"641 487 CURVE SMOOTH",
"669 618 OFFCURVE",
"595 699 OFFCURVE",
"454 699 CURVE SMOOTH",
"173 699 LINE",
"25 0 LINE"
);
},
{
closed = 1;
nodes = (
"257 -166 OFFCURVE",
"288 -140 OFFCURVE",
"295 -108 CURVE SMOOTH",
"301 -76 OFFCURVE",
"281 -50 OFFCURVE",
"251 -50 CURVE SMOOTH",
"219 -50 OFFCURVE",
"186 -76 OFFCURVE",
"180 -108 CURVE SMOOTH",
"173 -140 OFFCURVE",
"194 -166 OFFCURVE",
"226 -166 CURVE SMOOTH"
);
},
{
closed = 1;
nodes = (
"257 613 LINE",
"427 613 LINE SMOOTH",
"518 613 OFFCURVE",
"559 584 OFFCURVE",
"538 487 CURVE SMOOTH",
"520 402 OFFCURVE",
"451 362 OFFCURVE",
"365 362 CURVE SMOOTH",
"203 362 LINE"
);
}
);
width = 623;
}
);
note = Rdotbelow;
rightKerningGroup = R;
unicode = 1E5A;
},
{
glyphname = Rdotbelowmacron;
lastChange = "2015-10-28 09:02:19 +0000";
layers = (
{
layerId = "493B3A41-641C-4718-8E4F-15C1585391FA";
name = "Regular Italic";
paths = (
{
closed = 1;
nodes = (
"127 0 LINE",
"185 276 LINE",
"338 276 LINE",
"429 0 LINE",
"535 0 LINE",
"441 284 LINE",
"553 309 OFFCURVE",
"619 385 OFFCURVE",
"641 487 CURVE SMOOTH",
"669 618 OFFCURVE",
"595 699 OFFCURVE",
"454 699 CURVE SMOOTH",
"173 699 LINE",
"25 0 LINE"
);
},
{
closed = 1;
nodes = (
"236 -166 OFFCURVE",
"267 -140 OFFCURVE",
"274 -108 CURVE SMOOTH",
"280 -76 OFFCURVE",
"260 -50 OFFCURVE",
"230 -50 CURVE SMOOTH",
"198 -50 OFFCURVE",
"165 -76 OFFCURVE",
"159 -108 CURVE SMOOTH",
"152 -140 OFFCURVE",
"173 -166 OFFCURVE",
"205 -166 CURVE SMOOTH"
);
},
{
closed = 1;
nodes = (
"257 613 LINE",
"427 613 LINE SMOOTH",
"518 613 OFFCURVE",
"559 584 OFFCURVE",
"538 487 CURVE SMOOTH",
"520 402 OFFCURVE",
"451 362 OFFCURVE",
"365 362 CURVE SMOOTH",
"203 362 LINE"
);
},
{
closed = 1;
nodes = (
"559 774 LINE",
"574 843 LINE",
"263 843 LINE",
"248 774 LINE"
);
}
);
width = 623;
}
);
note = Rdotbelowmacron;
rightKerningGroup = R;
unicode = 1E5C;
},
{
glyphname = Rlinebelow;
lastChange = "2015-10-28 09:02:17 +0000";
layers = (
{
layerId = "493B3A41-641C-4718-8E4F-15C1585391FA";
name = "Regular Italic";
paths = (
{
closed = 1;
nodes = (
"127 0 LINE",
"185 276 LINE",
"338 276 LINE",
"429 0 LINE",
"535 0 LINE",
"441 284 LINE",
"553 309 OFFCURVE",
"619 385 OFFCURVE",
"641 487 CURVE SMOOTH",
"669 618 OFFCURVE",
"595 699 OFFCURVE",
"454 699 CURVE SMOOTH",
"173 699 LINE",
"25 0 LINE"
);
},
{
closed = 1;
nodes = (
"382 -141 LINE",
"396 -71 LINE",
"83 -71 LINE",
"69 -141 LINE"
);
},
{
closed = 1;
nodes = (
"257 613 LINE",
"427 613 LINE SMOOTH",
"518 613 OFFCURVE",
"559 584 OFFCURVE",
"538 487 CURVE SMOOTH",
"520 402 OFFCURVE",
"451 362 OFFCURVE",
"365 362 CURVE SMOOTH",
"203 362 LINE"
);
}
);
width = 623;
}
);
note = Rlinebelow;
rightKerningGroup = R;
unicode = 1E5E;
},
{
glyphname = S;
lastChange = "2015-10-28 09:02:18 +0000";
layers = (
{
layerId = "493B3A41-641C-4718-8E4F-15C1585391FA";
name = "Regular Italic";
paths = (
{
closed = 1;
nodes = (
"395 -15 OFFCURVE",
"488 57 OFFCURVE",
"513 176 CURVE SMOOTH",
"538 292 OFFCURVE",
"480 336 OFFCURVE",
"362 388 CURVE SMOOTH",
"259 434 OFFCURVE",
"215 459 OFFCURVE",
"230 527 CURVE SMOOTH",
"243 590 OFFCURVE",
"302 627 OFFCURVE",
"399 627 CURVE SMOOTH",
"461 627 OFFCURVE",
"514 614 OFFCURVE",
"566 588 CURVE",
"585 676 LINE",
"533 702 OFFCURVE",
"477 714 OFFCURVE",
"400 714 CURVE SMOOTH",
"249 714 OFFCURVE",
"146 639 OFFCURVE",
"123 527 CURVE SMOOTH",
"101 428 OFFCURVE",
"150 367 OFFCURVE",
"265 318 CURVE SMOOTH",
"375 271 OFFCURVE",
"421 250 OFFCURVE",
"405 176 CURVE SMOOTH",
"391 109 OFFCURVE",
"334 71 OFFCURVE",
"227 71 CURVE SMOOTH",
"159 71 OFFCURVE",
"89 85 OFFCURVE",
"29 116 CURVE",
"10 24 LINE",
"55 0 OFFCURVE",
"135 -15 OFFCURVE",
"215 -15 CURVE SMOOTH"
);
}
);
width = 561;
}
);
leftKerningGroup = S;
note = S;
rightKerningGroup = S;
unicode = 0053;
},
{
glyphname = Sacute;
lastChange = "2015-10-28 09:02:19 +0000";
layers = (
{
layerId = "493B3A41-641C-4718-8E4F-15C1585391FA";
name = "Regular Italic";
paths = (
{
closed = 1;
nodes = (
"395 -15 OFFCURVE",
"488 57 OFFCURVE",
"513 176 CURVE SMOOTH",
"538 292 OFFCURVE",
"480 336 OFFCURVE",
"362 388 CURVE SMOOTH",
"259 434 OFFCURVE",
"215 459 OFFCURVE",
"230 527 CURVE SMOOTH",
"243 590 OFFCURVE",
"302 627 OFFCURVE",
"399 627 CURVE SMOOTH",
"461 627 OFFCURVE",
"514 614 OFFCURVE",
"566 588 CURVE",
"585 676 LINE",
"533 702 OFFCURVE",
"477 714 OFFCURVE",
"400 714 CURVE SMOOTH",
"249 714 OFFCURVE",
"146 639 OFFCURVE",
"123 527 CURVE SMOOTH",
"101 428 OFFCURVE",
"150 367 OFFCURVE",
"265 318 CURVE SMOOTH",
"375 271 OFFCURVE",
"421 250 OFFCURVE",
"405 176 CURVE SMOOTH",
"391 109 OFFCURVE",
"334 71 OFFCURVE",
"227 71 CURVE SMOOTH",
"159 71 OFFCURVE",
"89 85 OFFCURVE",
"29 116 CURVE",
"10 24 LINE",
"55 0 OFFCURVE",
"135 -15 OFFCURVE",
"215 -15 CURVE SMOOTH"
);
},
{
closed = 1;
nodes = (
"440 741 LINE",
"560 913 LINE",
"453 913 LINE",
"348 741 LINE"
);
}
);
width = 561;
}
);
leftKerningGroup = S;
note = Sacute;
rightKerningGroup = S;
unicode = 015A;
},
{
glyphname = Scaron;
lastChange = "2015-10-28 09:02:17 +0000";
layers = (
{
layerId = "493B3A41-641C-4718-8E4F-15C1585391FA";
name = "Regular Italic";
paths = (
{
closed = 1;
nodes = (
"395 -15 OFFCURVE",
"488 57 OFFCURVE",
"513 176 CURVE SMOOTH",
"538 292 OFFCURVE",
"480 336 OFFCURVE",
"362 388 CURVE SMOOTH",
"259 434 OFFCURVE",
"215 459 OFFCURVE",
"230 527 CURVE SMOOTH",
"243 590 OFFCURVE",
"302 627 OFFCURVE",
"399 627 CURVE SMOOTH",
"461 627 OFFCURVE",
"514 614 OFFCURVE",
"566 588 CURVE",
"585 676 LINE",
"533 702 OFFCURVE",
"477 714 OFFCURVE",
"400 714 CURVE SMOOTH",
"249 714 OFFCURVE",
"146 639 OFFCURVE",
"123 527 CURVE SMOOTH",
"101 428 OFFCURVE",
"150 367 OFFCURVE",
"265 318 CURVE SMOOTH",
"375 271 OFFCURVE",
"421 250 OFFCURVE",
"405 176 CURVE SMOOTH",
"391 109 OFFCURVE",
"334 71 OFFCURVE",
"227 71 CURVE SMOOTH",
"159 71 OFFCURVE",
"89 85 OFFCURVE",
"29 116 CURVE",
"10 24 LINE",
"55 0 OFFCURVE",
"135 -15 OFFCURVE",
"215 -15 CURVE SMOOTH"
);
},
{
closed = 1;
nodes = (
"454 742 LINE",
"632 908 LINE",
"527 908 LINE",
"420 801 LINE",
"359 908 LINE",
"260 908 LINE",
"365 742 LINE"
);
}
);
width = 561;
}
);
leftKerningGroup = S;
note = Scaron;
rightKerningGroup = S;
unicode = 0160;
},
{
glyphname = Scedilla;
lastChange = "2015-10-28 09:02:18 +0000";
layers = (
{
layerId = "493B3A41-641C-4718-8E4F-15C1585391FA";
name = "Regular Italic";
paths = (
{
closed = 1;
nodes = (
"239 -248 OFFCURVE",
"298 -210 OFFCURVE",
"310 -151 CURVE SMOOTH",
"321 -99 OFFCURVE",
"299 -64 OFFCURVE",
"240 -56 CURVE",
"266 -13 LINE",
"413 0 OFFCURVE",
"490 69 OFFCURVE",
"513 176 CURVE SMOOTH",
"538 292 OFFCURVE",
"480 336 OFFCURVE",
"362 388 CURVE SMOOTH",
"259 434 OFFCURVE",
"215 459 OFFCURVE",
"230 527 CURVE SMOOTH",
"243 590 OFFCURVE",
"302 627 OFFCURVE",
"399 627 CURVE SMOOTH",
"461 627 OFFCURVE",
"514 614 OFFCURVE",
"566 588 CURVE",
"585 676 LINE",
"533 702 OFFCURVE",
"477 714 OFFCURVE",
"400 714 CURVE SMOOTH",
"249 714 OFFCURVE",
"146 639 OFFCURVE",
"123 527 CURVE SMOOTH",
"101 428 OFFCURVE",
"150 367 OFFCURVE",
"265 318 CURVE SMOOTH",
"375 271 OFFCURVE",
"421 250 OFFCURVE",
"405 176 CURVE SMOOTH",
"391 109 OFFCURVE",
"334 71 OFFCURVE",
"227 71 CURVE SMOOTH",
"159 71 OFFCURVE",
"89 85 OFFCURVE",
"29 116 CURVE",
"10 24 LINE",
"47 4 OFFCURVE",
"108 -9 OFFCURVE",
"174 -13 CURVE",
"130 -89 LINE",
"205 -89 OFFCURVE",
"226 -111 OFFCURVE",
"219 -144 CURVE SMOOTH",
"212 -176 OFFCURVE",
"186 -190 OFFCURVE",
"145 -190 CURVE SMOOTH",
"126 -190 OFFCURVE",
"102 -185 OFFCURVE",
"90 -179 CURVE",
"77 -237 LINE",
"93 -244 OFFCURVE",
"125 -248 OFFCURVE",
"157 -248 CURVE SMOOTH"
);
}
);
width = 561;
}
);
leftKerningGroup = S;
note = Scedilla;
rightKerningGroup = S;
unicode = 015E;
},
{
glyphname = Scircumflex;
lastChange = "2015-10-28 09:02:17 +0000";
layers = (
{
layerId = "493B3A41-641C-4718-8E4F-15C1585391FA";
name = "Regular Italic";
paths = (
{
closed = 1;
nodes = (
"395 -15 OFFCURVE",
"488 57 OFFCURVE",
"513 176 CURVE SMOOTH",
"538 292 OFFCURVE",
"480 336 OFFCURVE",
"362 388 CURVE SMOOTH",
"259 434 OFFCURVE",
"215 459 OFFCURVE",
"230 527 CURVE SMOOTH",
"243 590 OFFCURVE",
"302 627 OFFCURVE",
"399 627 CURVE SMOOTH",
"461 627 OFFCURVE",
"514 614 OFFCURVE",
"566 588 CURVE",
"585 676 LINE",
"533 702 OFFCURVE",
"477 714 OFFCURVE",
"400 714 CURVE SMOOTH",
"249 714 OFFCURVE",
"146 639 OFFCURVE",
"123 527 CURVE SMOOTH",
"101 428 OFFCURVE",
"150 367 OFFCURVE",
"265 318 CURVE SMOOTH",
"375 271 OFFCURVE",
"421 250 OFFCURVE",
"405 176 CURVE SMOOTH",
"391 109 OFFCURVE",
"334 71 OFFCURVE",
"227 71 CURVE SMOOTH",
"159 71 OFFCURVE",
"89 85 OFFCURVE",
"29 116 CURVE",
"10 24 LINE",
"55 0 OFFCURVE",
"135 -15 OFFCURVE",
"215 -15 CURVE SMOOTH"
);
},
{
closed = 1;
nodes = (
"317 741 LINE",
"424 848 LINE",
"485 741 LINE",
"584 741 LINE",
"478 907 LINE",
"389 907 LINE",
"212 741 LINE"
);
}
);
width = 561;
}
);
leftKerningGroup = S;
note = Scircumflex;
rightKerningGroup = S;
unicode = 015C;
},
{
glyphname = Scommaaccent;
lastChange = "2015-10-28 09:02:17 +0000";
layers = (
{
layerId = "493B3A41-641C-4718-8E4F-15C1585391FA";
name = "Regular Italic";
paths = (
{
closed = 1;
nodes = (
"395 -15 OFFCURVE",
"488 57 OFFCURVE",
"513 176 CURVE SMOOTH",
"538 292 OFFCURVE",
"480 336 OFFCURVE",
"362 388 CURVE SMOOTH",
"259 434 OFFCURVE",
"215 459 OFFCURVE",
"230 527 CURVE SMOOTH",
"243 590 OFFCURVE",
"302 627 OFFCURVE",
"399 627 CURVE SMOOTH",
"461 627 OFFCURVE",
"514 614 OFFCURVE",
"566 588 CURVE",
"585 676 LINE",
"533 702 OFFCURVE",
"477 714 OFFCURVE",
"400 714 CURVE SMOOTH",
"249 714 OFFCURVE",
"146 639 OFFCURVE",
"123 527 CURVE SMOOTH",
"101 428 OFFCURVE",
"150 367 OFFCURVE",
"265 318 CURVE SMOOTH",
"375 271 OFFCURVE",
"421 250 OFFCURVE",
"405 176 CURVE SMOOTH",
"391 109 OFFCURVE",
"334 71 OFFCURVE",
"227 71 CURVE SMOOTH",
"159 71 OFFCURVE",
"89 85 OFFCURVE",
"29 116 CURVE",
"10 24 LINE",
"55 0 OFFCURVE",
"135 -15 OFFCURVE",
"215 -15 CURVE SMOOTH"
);
},
{
closed = 1;
nodes = (
"138 -259 LINE",
"275 -60 LINE",
"170 -60 LINE",
"45 -259 LINE"
);
}
);
width = 561;
}
);
leftKerningGroup = S;
note = Scommaaccent;
rightKerningGroup = S;
unicode = 0218;
},
{
glyphname = Sdotaccent;
lastChange = "2015-10-28 09:02:18 +0000";
layers = (
{
layerId = "493B3A41-641C-4718-8E4F-15C1585391FA";
name = "Regular Italic";
paths = (
{
closed = 1;
nodes = (
"395 -15 OFFCURVE",
"488 57 OFFCURVE",
"513 176 CURVE SMOOTH",
"538 292 OFFCURVE",
"480 336 OFFCURVE",
"362 388 CURVE SMOOTH",
"259 434 OFFCURVE",
"215 459 OFFCURVE",
"230 527 CURVE SMOOTH",
"243 590 OFFCURVE",
"302 627 OFFCURVE",
"399 627 CURVE SMOOTH",
"461 627 OFFCURVE",
"514 614 OFFCURVE",
"566 588 CURVE",
"585 676 LINE",
"533 702 OFFCURVE",
"477 714 OFFCURVE",
"400 714 CURVE SMOOTH",
"249 714 OFFCURVE",
"146 639 OFFCURVE",
"123 527 CURVE SMOOTH",
"101 428 OFFCURVE",
"150 367 OFFCURVE",
"265 318 CURVE SMOOTH",
"375 271 OFFCURVE",
"421 250 OFFCURVE",
"405 176 CURVE SMOOTH",
"391 109 OFFCURVE",
"334 71 OFFCURVE",
"227 71 CURVE SMOOTH",
"159 71 OFFCURVE",
"89 85 OFFCURVE",
"29 116 CURVE",
"10 24 LINE",
"55 0 OFFCURVE",
"135 -15 OFFCURVE",
"215 -15 CURVE SMOOTH"
);
},
{
closed = 1;
nodes = (
"439 741 OFFCURVE",
"470 767 OFFCURVE",
"477 799 CURVE SMOOTH",
"484 831 OFFCURVE",
"464 857 OFFCURVE",
"433 857 CURVE SMOOTH",
"401 857 OFFCURVE",
"368 831 OFFCURVE",
"361 799 CURVE SMOOTH",
"354 767 OFFCURVE",
"376 741 OFFCURVE",
"408 741 CURVE SMOOTH"
);
}
);
width = 561;
}
);
leftKerningGroup = S;
note = Sdotaccent;
rightKerningGroup = S;
unicode = 1E60;
},
{
glyphname = Sdotbelow;
lastChange = "2015-10-28 09:02:19 +0000";
layers = (
{
layerId = "493B3A41-641C-4718-8E4F-15C1585391FA";
name = "Regular Italic";
paths = (
{
closed = 1;
nodes = (
"395 -15 OFFCURVE",
"488 57 OFFCURVE",
"513 176 CURVE SMOOTH",
"538 292 OFFCURVE",
"480 336 OFFCURVE",
"362 388 CURVE SMOOTH",
"259 434 OFFCURVE",
"215 459 OFFCURVE",
"230 527 CURVE SMOOTH",
"243 590 OFFCURVE",
"302 627 OFFCURVE",
"399 627 CURVE SMOOTH",
"461 627 OFFCURVE",
"514 614 OFFCURVE",
"566 588 CURVE",
"585 676 LINE",
"533 702 OFFCURVE",
"477 714 OFFCURVE",
"400 714 CURVE SMOOTH",
"249 714 OFFCURVE",
"146 639 OFFCURVE",
"123 527 CURVE SMOOTH",
"101 428 OFFCURVE",
"150 367 OFFCURVE",
"265 318 CURVE SMOOTH",
"375 271 OFFCURVE",
"421 250 OFFCURVE",
"405 176 CURVE SMOOTH",
"391 109 OFFCURVE",
"334 71 OFFCURVE",
"227 71 CURVE SMOOTH",
"159 71 OFFCURVE",
"89 85 OFFCURVE",
"29 116 CURVE",
"10 24 LINE",
"55 0 OFFCURVE",
"135 -15 OFFCURVE",
"215 -15 CURVE SMOOTH"
);
},
{
closed = 1;
nodes = (
"225 -166 OFFCURVE",
"256 -140 OFFCURVE",
"263 -108 CURVE SMOOTH",
"269 -76 OFFCURVE",
"249 -50 OFFCURVE",
"219 -50 CURVE SMOOTH",
"187 -50 OFFCURVE",
"154 -76 OFFCURVE",
"148 -108 CURVE SMOOTH",
"141 -140 OFFCURVE",
"162 -166 OFFCURVE",
"194 -166 CURVE SMOOTH"
);
}
);
width = 561;
}
);
leftKerningGroup = S;
note = Sdotbelow;
rightKerningGroup = S;
unicode = 1E62;
},
{
glyphname = Germandbls;
lastChange = "2015-10-28 09:02:17 +0000";
layers = (
{
layerId = "493B3A41-641C-4718-8E4F-15C1585391FA";
name = "Regular Italic";
paths = (
{
closed = 1;
nodes = (
"462 -15 OFFCURVE",
"556 74 OFFCURVE",
"583 198 CURVE SMOOTH",
"607 311 OFFCURVE",
"564 376 OFFCURVE",
"446 390 CURVE",
"594 511 LINE",
"612 621 OFFCURVE",
"556 714 OFFCURVE",
"406 714 CURVE SMOOTH",
"255 714 OFFCURVE",
"153 628 OFFCURVE",
"119 469 CURVE SMOOTH",
"20 0 LINE",
"122 0 LINE",
"222 473 LINE SMOOTH",
"244 577 OFFCURVE",
"311 620 OFFCURVE",
"386 620 CURVE SMOOTH",
"455 620 OFFCURVE",
"492 581 OFFCURVE",
"489 528 CURVE",
"318 386 LINE",
"305 325 LINE",
"346 325 LINE SMOOTH",
"432 325 OFFCURVE",
"501 297 OFFCURVE",
"480 201 CURVE SMOOTH",
"463 119 OFFCURVE",
"406 77 OFFCURVE",
"312 77 CURVE SMOOTH",
"268 77 OFFCURVE",
"235 83 OFFCURVE",
"205 98 CURVE",
"185 4 LINE",
"216 -10 OFFCURVE",
"264 -15 OFFCURVE",
"313 -15 CURVE SMOOTH"
);
}
);
width = 626;
}
);
note = uni1E9E;
unicode = 1E9E;
},
{
glyphname = Schwa;
lastChange = "2015-10-28 09:02:17 +0000";
layers = (
{
layerId = "493B3A41-641C-4718-8E4F-15C1585391FA";
name = "Regular Italic";
paths = (
{
closed = 1;
nodes = (
"625 -15 OFFCURVE",
"765 129 OFFCURVE",
"812 350 CURVE SMOOTH",
"861 581 OFFCURVE",
"741 714 OFFCURVE",
"486 714 CURVE SMOOTH",
"388 714 OFFCURVE",
"278 693 OFFCURVE",
"214 669 CURVE",
"195 582 LINE",
"265 608 OFFCURVE",
"366 626 OFFCURVE",
"455 626 CURVE SMOOTH",
"681 626 OFFCURVE",
"733 539 OFFCURVE",
"710 385 CURVE",
"86 385 LINE",
"75 333 LINE SMOOTH",
"34 137 OFFCURVE",
"122 -15 OFFCURVE",
"366 -15 CURVE SMOOTH"
);
},
{
closed = 1;
nodes = (
"192 71 OFFCURVE",
"145 170 OFFCURVE",
"169 307 CURVE",
"695 307 LINE",
"660 171 OFFCURVE",
"559 71 OFFCURVE",
"383 71 CURVE SMOOTH"
);
}
);
width = 823;
}
);
note = uni018F;
unicode = 018F;
},
{
glyphname = T;
lastChange = "2015-10-28 09:02:17 +0000";
layers = (
{
layerId = "493B3A41-641C-4718-8E4F-15C1585391FA";
name = "Regular Italic";
paths = (
{
closed = 1;
nodes = (
"305 0 LINE",
"435 613 LINE",
"652 613 LINE",
"670 699 LINE",
"133 699 LINE",
"115 613 LINE",
"332 613 LINE",
"202 0 LINE"
);
}
);
width = 587;
}
);
leftKerningGroup = T;
note = T;
rightKerningGroup = T;
unicode = 0054;
},
{
glyphname = Tbar;
lastChange = "2015-10-28 09:02:18 +0000";
layers = (
{
layerId = "493B3A41-641C-4718-8E4F-15C1585391FA";
name = "Regular Italic";
paths = (
{
closed = 1;
nodes = (
"306 0 LINE",
"368 292 LINE",
"493 292 LINE",
"511 378 LINE",
"386 378 LINE",
"435 610 LINE",
"651 610 LINE",
"670 699 LINE",
"133 699 LINE",
"114 610 LINE",
"330 610 LINE",
"281 378 LINE",
"156 378 LINE",
"138 292 LINE",
"263 292 LINE",
"201 0 LINE"
);
}
);
width = 587;
}
);
leftKerningGroup = T;
note = Tbar;
rightKerningGroup = T;
unicode = 0166;
},
{
glyphname = Tcaron;
lastChange = "2015-10-28 09:02:17 +0000";
layers = (
{
layerId = "493B3A41-641C-4718-8E4F-15C1585391FA";
name = "Regular Italic";
paths = (
{
closed = 1;
nodes = (
"305 0 LINE",
"435 613 LINE",
"652 613 LINE",
"670 699 LINE",
"133 699 LINE",
"115 613 LINE",
"332 613 LINE",
"202 0 LINE"
);
},
{
closed = 1;
nodes = (
"454 742 LINE",
"632 908 LINE",
"527 908 LINE",
"420 801 LINE",
"359 908 LINE",
"260 908 LINE",
"365 742 LINE"
);
}
);
width = 587;
}
);
leftKerningGroup = T;
note = Tcaron;
rightKerningGroup = T;
unicode = 0164;
},
{
glyphname = Tcedilla;
lastChange = "2015-10-28 09:02:19 +0000";
layers = (
{
layerId = "493B3A41-641C-4718-8E4F-15C1585391FA";
name = "Regular Italic";
paths = (
{
closed = 1;
nodes = (
"265 -248 OFFCURVE",
"324 -210 OFFCURVE",
"336 -151 CURVE SMOOTH",
"347 -99 OFFCURVE",
"325 -64 OFFCURVE",
"266 -56 CURVE",
"300 0 LINE",
"305 0 LINE",
"435 613 LINE",
"652 613 LINE",
"670 699 LINE",
"133 699 LINE",
"115 613 LINE",
"332 613 LINE",
"202 0 LINE",
"208 0 LINE",
"156 -89 LINE",
"231 -89 OFFCURVE",
"252 -111 OFFCURVE",
"245 -144 CURVE SMOOTH",
"238 -176 OFFCURVE",
"212 -190 OFFCURVE",
"171 -190 CURVE SMOOTH",
"152 -190 OFFCURVE",
"128 -185 OFFCURVE",
"116 -179 CURVE",
"103 -237 LINE",
"119 -244 OFFCURVE",
"151 -248 OFFCURVE",
"183 -248 CURVE SMOOTH"
);
}
);
width = 587;
}
);
leftKerningGroup = T;
note = Tcedilla;
rightKerningGroup = T;
unicode = 0162;
},
{
glyphname = Tcommaaccent;
lastChange = "2015-10-28 09:02:18 +0000";
layers = (
{
layerId = "493B3A41-641C-4718-8E4F-15C1585391FA";
name = "Regular Italic";
paths = (
{
closed = 1;
nodes = (
"305 0 LINE",
"435 613 LINE",
"652 613 LINE",
"670 699 LINE",
"133 699 LINE",
"115 613 LINE",
"332 613 LINE",
"202 0 LINE"
);
},
{
closed = 1;
nodes = (
"153 -260 LINE",
"291 -60 LINE",
"185 -60 LINE",
"62 -260 LINE"
);
}
);
width = 587;
}
);
leftKerningGroup = T;
note = Tcommaaccent;
rightKerningGroup = T;
unicode = 021A;
},
{
glyphname = Tdotbelow;
lastChange = "2015-10-28 09:02:19 +0000";
layers = (
{
layerId = "493B3A41-641C-4718-8E4F-15C1585391FA";
name = "Regular Italic";
paths = (
{
closed = 1;
nodes = (
"305 0 LINE",
"435 613 LINE",
"652 613 LINE",
"670 699 LINE",
"133 699 LINE",
"115 613 LINE",
"332 613 LINE",
"202 0 LINE"
);
},
{
closed = 1;
nodes = (
"250 -166 OFFCURVE",
"281 -140 OFFCURVE",
"288 -108 CURVE SMOOTH",
"294 -76 OFFCURVE",
"274 -50 OFFCURVE",
"244 -50 CURVE SMOOTH",
"212 -50 OFFCURVE",
"179 -76 OFFCURVE",
"173 -108 CURVE SMOOTH",
"166 -140 OFFCURVE",
"187 -166 OFFCURVE",
"219 -166 CURVE SMOOTH"
);
}
);
width = 587;
}
);
leftKerningGroup = T;
note = Tdotbelow;
rightKerningGroup = T;
unicode = 1E6C;
},
{
glyphname = Tlinebelow;
lastChange = "2015-10-28 09:02:17 +0000";
layers = (
{
layerId = "493B3A41-641C-4718-8E4F-15C1585391FA";
name = "Regular Italic";
paths = (
{
closed = 1;
nodes = (
"305 0 LINE",
"435 613 LINE",
"652 613 LINE",
"670 699 LINE",
"133 699 LINE",
"115 613 LINE",
"332 613 LINE",
"202 0 LINE"
);
},
{
closed = 1;
nodes = (
"380 -141 LINE",
"394 -71 LINE",
"81 -71 LINE",
"67 -141 LINE"
);
}
);
width = 587;
}
);
leftKerningGroup = T;
note = Tlinebelow;
rightKerningGroup = T;
unicode = 1E6E;
},
{
glyphname = U;
lastChange = "2015-10-28 09:02:17 +0000";
layers = (
{
layerId = "493B3A41-641C-4718-8E4F-15C1585391FA";
name = "Regular Italic";
paths = (
{
closed = 1;
nodes = (
"514 -15 OFFCURVE",
"617 95 OFFCURVE",
"652 261 CURVE SMOOTH",
"745 699 LINE",
"643 699 LINE",
"549 257 LINE SMOOTH",
"523 135 OFFCURVE",
"436 77 OFFCURVE",
"325 77 CURVE SMOOTH",
"198 77 OFFCURVE",
"149 131 OFFCURVE",
"176 257 CURVE SMOOTH",
"270 699 LINE",
"168 699 LINE",
"75 261 LINE SMOOTH",
"40 95 OFFCURVE",
"123 -15 OFFCURVE",
"305 -15 CURVE SMOOTH"
);
}
);
width = 697;
}
);
leftKerningGroup = U;
note = U;
rightKerningGroup = U;
unicode = 0055;
},
{
glyphname = Uacute;
lastChange = "2015-10-28 09:02:19 +0000";
layers = (
{
layerId = "493B3A41-641C-4718-8E4F-15C1585391FA";
name = "Regular Italic";
paths = (
{
closed = 1;
nodes = (
"514 -15 OFFCURVE",
"617 95 OFFCURVE",
"652 261 CURVE SMOOTH",
"745 699 LINE",
"643 699 LINE",
"549 257 LINE SMOOTH",
"523 135 OFFCURVE",
"436 77 OFFCURVE",
"325 77 CURVE SMOOTH",
"198 77 OFFCURVE",
"149 131 OFFCURVE",
"176 257 CURVE SMOOTH",
"270 699 LINE",
"168 699 LINE",
"75 261 LINE SMOOTH",
"40 95 OFFCURVE",
"123 -15 OFFCURVE",
"305 -15 CURVE SMOOTH"
);
},
{
closed = 1;
nodes = (
"504 741 LINE",
"624 913 LINE",
"517 913 LINE",
"412 741 LINE"
);
}
);
width = 697;
}
);
leftKerningGroup = U;
note = Uacute;
rightKerningGroup = U;
unicode = 00DA;
},
{
glyphname = Ubreve;
lastChange = "2015-10-28 09:02:19 +0000";
layers = (
{
layerId = "493B3A41-641C-4718-8E4F-15C1585391FA";
name = "Regular Italic";
paths = (
{
closed = 1;
nodes = (
"514 -15 OFFCURVE",
"617 95 OFFCURVE",
"652 261 CURVE SMOOTH",
"745 699 LINE",
"643 699 LINE",
"549 257 LINE SMOOTH",
"523 135 OFFCURVE",
"436 77 OFFCURVE",
"325 77 CURVE SMOOTH",
"198 77 OFFCURVE",
"149 131 OFFCURVE",
"176 257 CURVE SMOOTH",
"270 699 LINE",
"168 699 LINE",
"75 261 LINE SMOOTH",
"40 95 OFFCURVE",
"123 -15 OFFCURVE",
"305 -15 CURVE SMOOTH"
);
},
{
closed = 1;
nodes = (
"558 742 OFFCURVE",
"628 800 OFFCURVE",
"645 882 CURVE",
"565 882 LINE",
"555 837 OFFCURVE",
"523 811 OFFCURVE",
"477 811 CURVE SMOOTH",
"431 811 OFFCURVE",
"409 837 OFFCURVE",
"419 882 CURVE",
"344 882 LINE",
"328 800 OFFCURVE",
"371 742 OFFCURVE",
"465 742 CURVE SMOOTH"
);
}
);
width = 697;
}
);
leftKerningGroup = U;
note = Ubreve;
rightKerningGroup = U;
unicode = 016C;
},
{
glyphname = Ucaron;
lastChange = "2015-10-28 09:02:18 +0000";
layers = (
{
layerId = "493B3A41-641C-4718-8E4F-15C1585391FA";
name = "Regular Italic";
paths = (
{
closed = 1;
nodes = (
"514 -15 OFFCURVE",
"617 95 OFFCURVE",
"652 261 CURVE SMOOTH",
"745 699 LINE",
"643 699 LINE",
"549 257 LINE SMOOTH",
"523 135 OFFCURVE",
"436 77 OFFCURVE",
"325 77 CURVE SMOOTH",
"198 77 OFFCURVE",
"149 131 OFFCURVE",
"176 257 CURVE SMOOTH",
"270 699 LINE",
"168 699 LINE",
"75 261 LINE SMOOTH",
"40 95 OFFCURVE",
"123 -15 OFFCURVE",
"305 -15 CURVE SMOOTH"
);
},
{
closed = 1;
nodes = (
"509 742 LINE",
"687 908 LINE",
"582 908 LINE",
"475 801 LINE",
"414 908 LINE",
"315 908 LINE",
"420 742 LINE"
);
}
);
width = 697;
}
);
leftKerningGroup = U;
note = Ucaron;
rightKerningGroup = U;
unicode = 01D3;
},
{
glyphname = Ucircumflex;
lastChange = "2015-10-28 09:02:19 +0000";
layers = (
{
layerId = "493B3A41-641C-4718-8E4F-15C1585391FA";
name = "Regular Italic";
paths = (
{
closed = 1;
nodes = (
"514 -15 OFFCURVE",
"617 95 OFFCURVE",
"652 261 CURVE SMOOTH",
"745 699 LINE",
"643 699 LINE",
"549 257 LINE SMOOTH",
"523 135 OFFCURVE",
"436 77 OFFCURVE",
"325 77 CURVE SMOOTH",
"198 77 OFFCURVE",
"149 131 OFFCURVE",
"176 257 CURVE SMOOTH",
"270 699 LINE",
"168 699 LINE",
"75 261 LINE SMOOTH",
"40 95 OFFCURVE",
"123 -15 OFFCURVE",
"305 -15 CURVE SMOOTH"
);
},
{
closed = 1;
nodes = (
"384 741 LINE",
"491 848 LINE",
"552 741 LINE",
"651 741 LINE",
"545 907 LINE",
"456 907 LINE",
"279 741 LINE"
);
}
);
width = 697;
}
);
leftKerningGroup = U;
note = Ucircumflex;
rightKerningGroup = U;
unicode = 00DB;
},
{
glyphname = Udieresis;
lastChange = "2015-10-28 09:02:18 +0000";
layers = (
{
layerId = "493B3A41-641C-4718-8E4F-15C1585391FA";
name = "Regular Italic";
paths = (
{
closed = 1;
nodes = (
"514 -15 OFFCURVE",
"617 95 OFFCURVE",
"652 261 CURVE SMOOTH",
"745 699 LINE",
"643 699 LINE",
"549 257 LINE SMOOTH",
"523 135 OFFCURVE",
"436 77 OFFCURVE",
"325 77 CURVE SMOOTH",
"198 77 OFFCURVE",
"149 131 OFFCURVE",
"176 257 CURVE SMOOTH",
"270 699 LINE",
"168 699 LINE",
"75 261 LINE SMOOTH",
"40 95 OFFCURVE",
"123 -15 OFFCURVE",
"305 -15 CURVE SMOOTH"
);
},
{
closed = 1;
nodes = (
"383 741 OFFCURVE",
"414 767 OFFCURVE",
"421 799 CURVE SMOOTH",
"428 831 OFFCURVE",
"408 857 OFFCURVE",
"377 857 CURVE SMOOTH",
"345 857 OFFCURVE",
"313 831 OFFCURVE",
"306 799 CURVE SMOOTH",
"299 767 OFFCURVE",
"321 741 OFFCURVE",
"352 741 CURVE SMOOTH"
);
},
{
closed = 1;
nodes = (
"610 741 OFFCURVE",
"641 767 OFFCURVE",
"648 799 CURVE SMOOTH",
"655 831 OFFCURVE",
"635 857 OFFCURVE",
"604 857 CURVE SMOOTH",
"572 857 OFFCURVE",
"539 831 OFFCURVE",
"532 799 CURVE SMOOTH",
"525 767 OFFCURVE",
"547 741 OFFCURVE",
"579 741 CURVE SMOOTH"
);
}
);
width = 697;
}
);
leftKerningGroup = U;
note = Udieresis;
rightKerningGroup = U;
unicode = 00DC;
},
{
glyphname = Udieresisacute;
lastChange = "2015-10-28 09:02:19 +0000";
layers = (
{
layerId = "493B3A41-641C-4718-8E4F-15C1585391FA";
name = "Regular Italic";
paths = (
{
closed = 1;
nodes = (
"514 -15 OFFCURVE",
"617 95 OFFCURVE",
"652 261 CURVE SMOOTH",
"745 699 LINE",
"643 699 LINE",
"549 257 LINE SMOOTH",
"523 135 OFFCURVE",
"436 77 OFFCURVE",
"325 77 CURVE SMOOTH",
"198 77 OFFCURVE",
"149 131 OFFCURVE",
"176 257 CURVE SMOOTH",
"270 699 LINE",
"168 699 LINE",
"75 261 LINE SMOOTH",
"40 95 OFFCURVE",
"123 -15 OFFCURVE",
"305 -15 CURVE SMOOTH"
);
},
{
closed = 1;
nodes = (
"382 749 OFFCURVE",
"414 775 OFFCURVE",
"421 807 CURVE SMOOTH",
"428 839 OFFCURVE",
"407 865 OFFCURVE",
"376 865 CURVE SMOOTH",
"345 865 OFFCURVE",
"312 839 OFFCURVE",
"305 807 CURVE SMOOTH",
"298 775 OFFCURVE",
"320 749 OFFCURVE",
"351 749 CURVE SMOOTH"
);
},
{
closed = 1;
nodes = (
"618 749 OFFCURVE",
"650 775 OFFCURVE",
"657 807 CURVE SMOOTH",
"664 839 OFFCURVE",
"643 865 OFFCURVE",
"612 865 CURVE SMOOTH",
"581 865 OFFCURVE",
"548 839 OFFCURVE",
"541 807 CURVE SMOOTH",
"534 775 OFFCURVE",
"556 749 OFFCURVE",
"587 749 CURVE SMOOTH"
);
},
{
closed = 1;
nodes = (
"523 846 LINE",
"620 971 LINE",
"530 971 LINE",
"447 846 LINE"
);
}
);
width = 697;
}
);
leftKerningGroup = U;
note = Udieresisacute;
rightKerningGroup = U;
unicode = 01D7;
},
{
glyphname = Udieresiscaron;
lastChange = "2015-10-28 09:02:17 +0000";
layers = (
{
layerId = "493B3A41-641C-4718-8E4F-15C1585391FA";
name = "Regular Italic";
paths = (
{
closed = 1;
nodes = (
"514 -15 OFFCURVE",
"617 95 OFFCURVE",
"652 261 CURVE SMOOTH",
"745 699 LINE",
"643 699 LINE",
"549 257 LINE SMOOTH",
"523 135 OFFCURVE",
"436 77 OFFCURVE",
"325 77 CURVE SMOOTH",
"198 77 OFFCURVE",
"149 131 OFFCURVE",
"176 257 CURVE SMOOTH",
"270 699 LINE",
"168 699 LINE",
"75 261 LINE SMOOTH",
"40 95 OFFCURVE",
"123 -15 OFFCURVE",
"305 -15 CURVE SMOOTH"
);
},
{
closed = 1;
nodes = (
"378 741 OFFCURVE",
"410 767 OFFCURVE",
"417 799 CURVE SMOOTH",
"424 831 OFFCURVE",
"403 857 OFFCURVE",
"372 857 CURVE SMOOTH",
"341 857 OFFCURVE",
"308 831 OFFCURVE",
"301 799 CURVE SMOOTH",
"294 767 OFFCURVE",
"316 741 OFFCURVE",
"347 741 CURVE SMOOTH"
);
},
{
closed = 1;
nodes = (
"614 741 OFFCURVE",
"646 767 OFFCURVE",
"653 799 CURVE SMOOTH",
"660 831 OFFCURVE",
"639 857 OFFCURVE",
"608 857 CURVE SMOOTH",
"577 857 OFFCURVE",
"544 831 OFFCURVE",
"537 799 CURVE SMOOTH",
"530 767 OFFCURVE",
"552 741 OFFCURVE",
"583 741 CURVE SMOOTH"
);
},
{
closed = 1;
nodes = (
"525 843 LINE",
"670 968 LINE",
"585 968 LINE",
"499 890 LINE",
"444 968 LINE",
"359 968 LINE",
"452 843 LINE"
);
}
);
width = 697;
}
);
leftKerningGroup = U;
note = Udieresiscaron;
rightKerningGroup = U;
unicode = 01D9;
},
{
glyphname = Udieresisgrave;
lastChange = "2015-10-28 09:02:17 +0000";
layers = (
{
layerId = "493B3A41-641C-4718-8E4F-15C1585391FA";
name = "Regular Italic";
paths = (
{
closed = 1;
nodes = (
"514 -15 OFFCURVE",
"617 95 OFFCURVE",
"652 261 CURVE SMOOTH",
"745 699 LINE",
"643 699 LINE",
"549 257 LINE SMOOTH",
"523 135 OFFCURVE",
"436 77 OFFCURVE",
"325 77 CURVE SMOOTH",
"198 77 OFFCURVE",
"149 131 OFFCURVE",
"176 257 CURVE SMOOTH",
"270 699 LINE",
"168 699 LINE",
"75 261 LINE SMOOTH",
"40 95 OFFCURVE",
"123 -15 OFFCURVE",
"305 -15 CURVE SMOOTH"
);
},
{
closed = 1;
nodes = (
"381 741 OFFCURVE",
"413 767 OFFCURVE",
"420 799 CURVE SMOOTH",
"427 831 OFFCURVE",
"406 857 OFFCURVE",
"375 857 CURVE SMOOTH",
"344 857 OFFCURVE",
"311 831 OFFCURVE",
"304 799 CURVE SMOOTH",
"297 767 OFFCURVE",
"319 741 OFFCURVE",
"350 741 CURVE SMOOTH"
);
},
{
closed = 1;
nodes = (
"530 838 LINE",
"501 963 LINE",
"411 963 LINE",
"454 838 LINE"
);
},
{
closed = 1;
nodes = (
"617 741 OFFCURVE",
"649 767 OFFCURVE",
"656 799 CURVE SMOOTH",
"663 831 OFFCURVE",
"642 857 OFFCURVE",
"611 857 CURVE SMOOTH",
"580 857 OFFCURVE",
"547 831 OFFCURVE",
"540 799 CURVE SMOOTH",
"533 767 OFFCURVE",
"555 741 OFFCURVE",
"586 741 CURVE SMOOTH"
);
}
);
width = 697;
}
);
leftKerningGroup = U;
note = Udieresisgrave;
rightKerningGroup = U;
unicode = 01DB;
},
{
glyphname = Udieresismacron;
lastChange = "2015-10-28 09:02:19 +0000";
layers = (
{
layerId = "493B3A41-641C-4718-8E4F-15C1585391FA";
name = "Regular Italic";
paths = (
{
closed = 1;
nodes = (
"514 -15 OFFCURVE",
"617 95 OFFCURVE",
"652 261 CURVE SMOOTH",
"745 699 LINE",
"643 699 LINE",
"549 257 LINE SMOOTH",
"523 135 OFFCURVE",
"436 77 OFFCURVE",
"325 77 CURVE SMOOTH",
"198 77 OFFCURVE",
"149 131 OFFCURVE",
"176 257 CURVE SMOOTH",
"270 699 LINE",
"168 699 LINE",
"75 261 LINE SMOOTH",
"40 95 OFFCURVE",
"123 -15 OFFCURVE",
"305 -15 CURVE SMOOTH"
);
},
{
closed = 1;
nodes = (
"383 741 OFFCURVE",
"414 767 OFFCURVE",
"421 799 CURVE SMOOTH",
"428 831 OFFCURVE",
"408 857 OFFCURVE",
"377 857 CURVE SMOOTH",
"345 857 OFFCURVE",
"313 831 OFFCURVE",
"306 799 CURVE SMOOTH",
"299 767 OFFCURVE",
"321 741 OFFCURVE",
"352 741 CURVE SMOOTH"
);
},
{
closed = 1;
nodes = (
"610 741 OFFCURVE",
"641 767 OFFCURVE",
"648 799 CURVE SMOOTH",
"655 831 OFFCURVE",
"635 857 OFFCURVE",
"604 857 CURVE SMOOTH",
"572 857 OFFCURVE",
"539 831 OFFCURVE",
"532 799 CURVE SMOOTH",
"525 767 OFFCURVE",
"547 741 OFFCURVE",
"579 741 CURVE SMOOTH"
);
},
{
closed = 1;
nodes = (
"659 921 LINE",
"674 990 LINE",
"363 990 LINE",
"348 921 LINE"
);
}
);
width = 697;
}
);
leftKerningGroup = U;
note = Udieresismacron;
rightKerningGroup = U;
unicode = 01D5;
},
{
glyphname = Udotbelow;
lastChange = "2015-10-28 09:02:18 +0000";
layers = (
{
layerId = "493B3A41-641C-4718-8E4F-15C1585391FA";
name = "Regular Italic";
paths = (
{
closed = 1;
nodes = (
"514 -15 OFFCURVE",
"617 95 OFFCURVE",
"652 261 CURVE SMOOTH",
"745 699 LINE",
"643 699 LINE",
"549 257 LINE SMOOTH",
"523 135 OFFCURVE",
"436 77 OFFCURVE",
"325 77 CURVE SMOOTH",
"198 77 OFFCURVE",
"149 131 OFFCURVE",
"176 257 CURVE SMOOTH",
"270 699 LINE",
"168 699 LINE",
"75 261 LINE SMOOTH",
"40 95 OFFCURVE",
"123 -15 OFFCURVE",
"305 -15 CURVE SMOOTH"
);
},
{
closed = 1;
nodes = (
"305 -166 OFFCURVE",
"336 -140 OFFCURVE",
"343 -108 CURVE SMOOTH",
"349 -76 OFFCURVE",
"329 -50 OFFCURVE",
"299 -50 CURVE SMOOTH",
"267 -50 OFFCURVE",
"234 -76 OFFCURVE",
"228 -108 CURVE SMOOTH",
"221 -140 OFFCURVE",
"242 -166 OFFCURVE",
"274 -166 CURVE SMOOTH"
);
}
);
width = 697;
}
);
leftKerningGroup = U;
note = Udotbelow;
rightKerningGroup = U;
unicode = 1EE4;
},
{
glyphname = Ugrave;
lastChange = "2015-10-28 09:02:18 +0000";
layers = (
{
layerId = "493B3A41-641C-4718-8E4F-15C1585391FA";
name = "Regular Italic";
paths = (
{
closed = 1;
nodes = (
"514 -15 OFFCURVE",
"617 95 OFFCURVE",
"652 261 CURVE SMOOTH",
"745 699 LINE",
"643 699 LINE",
"549 257 LINE SMOOTH",
"523 135 OFFCURVE",
"436 77 OFFCURVE",
"325 77 CURVE SMOOTH",
"198 77 OFFCURVE",
"149 131 OFFCURVE",
"176 257 CURVE SMOOTH",
"270 699 LINE",
"168 699 LINE",
"75 261 LINE SMOOTH",
"40 95 OFFCURVE",
"123 -15 OFFCURVE",
"305 -15 CURVE SMOOTH"
);
},
{
closed = 1;
nodes = (
"517 741 LINE",
"485 913 LINE",
"378 913 LINE",
"424 741 LINE"
);
}
);
width = 697;
}
);
leftKerningGroup = U;
note = Ugrave;
rightKerningGroup = U;
unicode = 00D9;
},
{
glyphname = Uhookabove;
lastChange = "2015-10-28 09:02:19 +0000";
layers = (
{
layerId = "493B3A41-641C-4718-8E4F-15C1585391FA";
name = "Regular Italic";
paths = (
{
closed = 1;
nodes = (
"514 -15 OFFCURVE",
"617 95 OFFCURVE",
"652 261 CURVE SMOOTH",
"745 699 LINE",
"643 699 LINE",
"549 257 LINE SMOOTH",
"523 135 OFFCURVE",
"436 77 OFFCURVE",
"325 77 CURVE SMOOTH",
"198 77 OFFCURVE",
"149 131 OFFCURVE",
"176 257 CURVE SMOOTH",
"270 699 LINE",
"168 699 LINE",
"75 261 LINE SMOOTH",
"40 95 OFFCURVE",
"123 -15 OFFCURVE",
"305 -15 CURVE SMOOTH"
);
},
{
closed = 1;
nodes = (
"501 742 LINE",
"508 776 LINE",
"570 784 OFFCURVE",
"610 822 OFFCURVE",
"620 870 CURVE SMOOTH",
"632 927 OFFCURVE",
"598 967 OFFCURVE",
"510 967 CURVE SMOOTH",
"478 967 OFFCURVE",
"441 961 OFFCURVE",
"420 954 CURVE",
"408 899 LINE",
"422 905 OFFCURVE",
"458 910 OFFCURVE",
"474 910 CURVE SMOOTH",
"520 910 OFFCURVE",
"537 897 OFFCURVE",
"530 866 CURVE SMOOTH",
"522 827 OFFCURVE",
"487 813 OFFCURVE",
"427 813 CURVE",
"412 742 LINE"
);
}
);
width = 697;
}
);
leftKerningGroup = U;
note = Uhookabove;
rightKerningGroup = U;
unicode = 1EE6;
},
{
glyphname = Uhorn;
lastChange = "2015-10-28 09:02:18 +0000";
layers = (
{
layerId = "493B3A41-641C-4718-8E4F-15C1585391FA";
name = "Regular Italic";
paths = (
{
closed = 1;
nodes = (
"514 -15 OFFCURVE",
"617 95 OFFCURVE",
"652 261 CURVE SMOOTH",
"712 543 LINE",
"837 543 OFFCURVE",
"911 617 OFFCURVE",
"930 706 CURVE SMOOTH",
"938 747 LINE",
"844 747 LINE",
"837 711 LINE SMOOTH",
"824 650 OFFCURVE",
"796 624 OFFCURVE",
"729 624 CURVE",
"745 699 LINE",
"643 699 LINE",
"549 257 LINE SMOOTH",
"523 135 OFFCURVE",
"436 77 OFFCURVE",
"325 77 CURVE SMOOTH",
"198 77 OFFCURVE",
"149 131 OFFCURVE",
"176 257 CURVE SMOOTH",
"270 699 LINE",
"168 699 LINE",
"75 261 LINE SMOOTH",
"40 95 OFFCURVE",
"123 -15 OFFCURVE",
"305 -15 CURVE SMOOTH"
);
}
);
width = 838;
}
);
leftKerningGroup = U;
note = Uhorn;
rightKerningGroup = U;
unicode = 01AF;
},
{
glyphname = Uhornacute;
lastChange = "2015-10-28 09:02:18 +0000";
layers = (
{
layerId = "493B3A41-641C-4718-8E4F-15C1585391FA";
name = "Regular Italic";
paths = (
{
closed = 1;
nodes = (
"514 -15 OFFCURVE",
"617 95 OFFCURVE",
"652 261 CURVE SMOOTH",
"712 543 LINE",
"837 543 OFFCURVE",
"911 617 OFFCURVE",
"930 706 CURVE SMOOTH",
"938 747 LINE",
"844 747 LINE",
"837 711 LINE SMOOTH",
"824 650 OFFCURVE",
"796 624 OFFCURVE",
"729 624 CURVE",
"745 699 LINE",
"643 699 LINE",
"549 257 LINE SMOOTH",
"523 135 OFFCURVE",
"436 77 OFFCURVE",
"325 77 CURVE SMOOTH",
"198 77 OFFCURVE",
"149 131 OFFCURVE",
"176 257 CURVE SMOOTH",
"270 699 LINE",
"168 699 LINE",
"75 261 LINE SMOOTH",
"40 95 OFFCURVE",
"123 -15 OFFCURVE",
"305 -15 CURVE SMOOTH"
);
},
{
closed = 1;
nodes = (
"506 741 LINE",
"626 913 LINE",
"519 913 LINE",
"414 741 LINE"
);
}
);
width = 840;
}
);
leftKerningGroup = U;
note = Uhornacute;
rightKerningGroup = U;
unicode = 1EE8;
},
{
glyphname = Uhorndotbelow;
lastChange = "2015-10-28 09:02:17 +0000";
layers = (
{
layerId = "493B3A41-641C-4718-8E4F-15C1585391FA";
name = "Regular Italic";
paths = (
{
closed = 1;
nodes = (
"514 -15 OFFCURVE",
"617 95 OFFCURVE",
"652 261 CURVE SMOOTH",
"712 543 LINE",
"837 543 OFFCURVE",
"911 617 OFFCURVE",
"930 706 CURVE SMOOTH",
"938 747 LINE",
"844 747 LINE",
"837 711 LINE SMOOTH",
"824 650 OFFCURVE",
"796 624 OFFCURVE",
"729 624 CURVE",
"745 699 LINE",
"643 699 LINE",
"549 257 LINE SMOOTH",
"523 135 OFFCURVE",
"436 77 OFFCURVE",
"325 77 CURVE SMOOTH",
"198 77 OFFCURVE",
"149 131 OFFCURVE",
"176 257 CURVE SMOOTH",
"270 699 LINE",
"168 699 LINE",
"75 261 LINE SMOOTH",
"40 95 OFFCURVE",
"123 -15 OFFCURVE",
"305 -15 CURVE SMOOTH"
);
},
{
closed = 1;
nodes = (
"302 -166 OFFCURVE",
"333 -140 OFFCURVE",
"340 -108 CURVE SMOOTH",
"346 -76 OFFCURVE",
"326 -50 OFFCURVE",
"296 -50 CURVE SMOOTH",
"264 -50 OFFCURVE",
"231 -76 OFFCURVE",
"225 -108 CURVE SMOOTH",
"218 -140 OFFCURVE",
"239 -166 OFFCURVE",
"271 -166 CURVE SMOOTH"
);
}
);
width = 840;
}
);
leftKerningGroup = U;
note = Uhorndotbelow;
rightKerningGroup = U;
unicode = 1EF0;
},
{
glyphname = Uhorngrave;
lastChange = "2015-10-28 09:02:18 +0000";
layers = (
{
layerId = "493B3A41-641C-4718-8E4F-15C1585391FA";
name = "Regular Italic";
paths = (
{
closed = 1;
nodes = (
"514 -15 OFFCURVE",
"617 95 OFFCURVE",
"652 261 CURVE SMOOTH",
"712 543 LINE",
"837 543 OFFCURVE",
"911 617 OFFCURVE",
"930 706 CURVE SMOOTH",
"938 747 LINE",
"844 747 LINE",
"837 711 LINE SMOOTH",
"824 650 OFFCURVE",
"796 624 OFFCURVE",
"729 624 CURVE",
"745 699 LINE",
"643 699 LINE",
"549 257 LINE SMOOTH",
"523 135 OFFCURVE",
"436 77 OFFCURVE",
"325 77 CURVE SMOOTH",
"198 77 OFFCURVE",
"149 131 OFFCURVE",
"176 257 CURVE SMOOTH",
"270 699 LINE",
"168 699 LINE",
"75 261 LINE SMOOTH",
"40 95 OFFCURVE",
"123 -15 OFFCURVE",
"305 -15 CURVE SMOOTH"
);
},
{
closed = 1;
nodes = (
"520 741 LINE",
"488 913 LINE",
"381 913 LINE",
"427 741 LINE"
);
}
);
width = 840;
}
);
leftKerningGroup = U;
note = Uhorngrave;
rightKerningGroup = U;
unicode = 1EEA;
},
{
glyphname = Uhornhookabove;
lastChange = "2015-10-28 09:02:18 +0000";
layers = (
{
layerId = "493B3A41-641C-4718-8E4F-15C1585391FA";
name = "Regular Italic";
paths = (
{
closed = 1;
nodes = (
"514 -15 OFFCURVE",
"617 95 OFFCURVE",
"652 261 CURVE SMOOTH",
"712 543 LINE",
"837 543 OFFCURVE",
"911 617 OFFCURVE",
"930 706 CURVE SMOOTH",
"938 747 LINE",
"844 747 LINE",
"837 711 LINE SMOOTH",
"824 650 OFFCURVE",
"796 624 OFFCURVE",
"729 624 CURVE",
"745 699 LINE",
"643 699 LINE",
"549 257 LINE SMOOTH",
"523 135 OFFCURVE",
"436 77 OFFCURVE",
"325 77 CURVE SMOOTH",
"198 77 OFFCURVE",
"149 131 OFFCURVE",
"176 257 CURVE SMOOTH",
"270 699 LINE",
"168 699 LINE",
"75 261 LINE SMOOTH",
"40 95 OFFCURVE",
"123 -15 OFFCURVE",
"305 -15 CURVE SMOOTH"
);
},
{
closed = 1;
nodes = (
"505 742 LINE",
"512 776 LINE",
"574 784 OFFCURVE",
"614 822 OFFCURVE",
"624 870 CURVE SMOOTH",
"636 927 OFFCURVE",
"602 967 OFFCURVE",
"514 967 CURVE SMOOTH",
"482 967 OFFCURVE",
"445 961 OFFCURVE",
"424 954 CURVE",
"412 899 LINE",
"426 905 OFFCURVE",
"462 910 OFFCURVE",
"478 910 CURVE SMOOTH",
"524 910 OFFCURVE",
"541 897 OFFCURVE",
"534 866 CURVE SMOOTH",
"526 827 OFFCURVE",
"491 813 OFFCURVE",
"431 813 CURVE",
"416 742 LINE"
);
}
);
width = 840;
}
);
leftKerningGroup = U;
note = Uhornhookabove;
rightKerningGroup = U;
unicode = 1EEC;
},
{
glyphname = Uhorntilde;
lastChange = "2015-10-28 09:02:18 +0000";
layers = (
{
layerId = "493B3A41-641C-4718-8E4F-15C1585391FA";
name = "Regular Italic";
paths = (
{
closed = 1;
nodes = (
"514 -15 OFFCURVE",
"617 95 OFFCURVE",
"652 261 CURVE SMOOTH",
"712 543 LINE",
"837 543 OFFCURVE",
"911 617 OFFCURVE",
"930 706 CURVE SMOOTH",
"938 747 LINE",
"844 747 LINE",
"837 711 LINE SMOOTH",
"824 650 OFFCURVE",
"796 624 OFFCURVE",
"729 624 CURVE",
"745 699 LINE",
"643 699 LINE",
"549 257 LINE SMOOTH",
"523 135 OFFCURVE",
"436 77 OFFCURVE",
"325 77 CURVE SMOOTH",
"198 77 OFFCURVE",
"149 131 OFFCURVE",
"176 257 CURVE SMOOTH",
"270 699 LINE",
"168 699 LINE",
"75 261 LINE SMOOTH",
"40 95 OFFCURVE",
"123 -15 OFFCURVE",
"305 -15 CURVE SMOOTH"
);
},
{
closed = 1;
nodes = (
"322 782 OFFCURVE",
"357 794 OFFCURVE",
"393 794 CURVE SMOOTH",
"457 794 OFFCURVE",
"494 744 OFFCURVE",
"567 744 CURVE SMOOTH",
"608 744 OFFCURVE",
"645 755 OFFCURVE",
"672 786 CURVE",
"690 872 LINE",
"655 833 OFFCURVE",
"621 821 OFFCURVE",
"584 821 CURVE SMOOTH",
"519 821 OFFCURVE",
"477 871 OFFCURVE",
"409 871 CURVE SMOOTH",
"369 871 OFFCURVE",
"331 859 OFFCURVE",
"302 828 CURVE",
"284 742 LINE"
);
}
);
width = 840;
}
);
leftKerningGroup = U;
note = Uhorntilde;
rightKerningGroup = U;
unicode = 1EEE;
},
{
glyphname = Uhungarumlaut;
lastChange = "2015-10-28 09:02:18 +0000";
layers = (
{
layerId = "493B3A41-641C-4718-8E4F-15C1585391FA";
name = "Regular Italic";
paths = (
{
closed = 1;
nodes = (
"514 -15 OFFCURVE",
"617 95 OFFCURVE",
"652 261 CURVE SMOOTH",
"745 699 LINE",
"643 699 LINE",
"549 257 LINE SMOOTH",
"523 135 OFFCURVE",
"436 77 OFFCURVE",
"325 77 CURVE SMOOTH",
"198 77 OFFCURVE",
"149 131 OFFCURVE",
"176 257 CURVE SMOOTH",
"270 699 LINE",
"168 699 LINE",
"75 261 LINE SMOOTH",
"40 95 OFFCURVE",
"123 -15 OFFCURVE",
"305 -15 CURVE SMOOTH"
);
},
{
closed = 1;
nodes = (
"401 741 LINE",
"521 913 LINE",
"419 913 LINE",
"315 741 LINE"
);
},
{
closed = 1;
nodes = (
"608 741 LINE",
"728 913 LINE",
"626 913 LINE",
"520 741 LINE"
);
}
);
width = 697;
}
);
leftKerningGroup = U;
note = Uhungarumlaut;
rightKerningGroup = U;
unicode = 0170;
},
{
glyphname = Umacron;
lastChange = "2015-10-28 09:02:19 +0000";
layers = (
{
layerId = "493B3A41-641C-4718-8E4F-15C1585391FA";
name = "Regular Italic";
paths = (
{
closed = 1;
nodes = (
"514 -15 OFFCURVE",
"617 95 OFFCURVE",
"652 261 CURVE SMOOTH",
"745 699 LINE",
"643 699 LINE",
"549 257 LINE SMOOTH",
"523 135 OFFCURVE",
"436 77 OFFCURVE",
"325 77 CURVE SMOOTH",
"198 77 OFFCURVE",
"149 131 OFFCURVE",
"176 257 CURVE SMOOTH",
"270 699 LINE",
"168 699 LINE",
"75 261 LINE SMOOTH",
"40 95 OFFCURVE",
"123 -15 OFFCURVE",
"305 -15 CURVE SMOOTH"
);
},
{
closed = 1;
nodes = (
"625 762 LINE",
"640 831 LINE",
"329 831 LINE",
"314 762 LINE"
);
}
);
width = 697;
}
);
leftKerningGroup = U;
note = Umacron;
rightKerningGroup = U;
unicode = 016A;
},
{
glyphname = Uogonek;
lastChange = "2015-10-28 09:02:19 +0000";
layers = (
{
layerId = "493B3A41-641C-4718-8E4F-15C1585391FA";
name = "Regular Italic";
paths = (
{
closed = 1;
nodes = (
"514 -15 OFFCURVE",
"617 95 OFFCURVE",
"652 261 CURVE SMOOTH",
"745 699 LINE",
"643 699 LINE",
"549 257 LINE SMOOTH",
"523 135 OFFCURVE",
"436 77 OFFCURVE",
"325 77 CURVE SMOOTH",
"198 77 OFFCURVE",
"149 131 OFFCURVE",
"176 257 CURVE SMOOTH",
"270 699 LINE",
"168 699 LINE",
"75 261 LINE SMOOTH",
"40 95 OFFCURVE",
"123 -15 OFFCURVE",
"305 -15 CURVE SMOOTH"
);
},
{
closed = 1;
nodes = (
"293 -212 OFFCURVE",
"323 -207 OFFCURVE",
"343 -200 CURVE",
"356 -139 LINE",
"341 -145 OFFCURVE",
"324 -149 OFFCURVE",
"306 -149 CURVE SMOOTH",
"279 -149 OFFCURVE",
"266 -135 OFFCURVE",
"272 -106 CURVE SMOOTH",
"281 -65 OFFCURVE",
"314 -33 OFFCURVE",
"373 0 CURVE",
"279 0 LINE",
"232 -27 OFFCURVE",
"191 -70 OFFCURVE",
"180 -122 CURVE SMOOTH",
"167 -183 OFFCURVE",
"206 -212 OFFCURVE",
"264 -212 CURVE SMOOTH"
);
}
);
width = 697;
}
);
leftKerningGroup = U;
note = Uogonek;
rightKerningGroup = U;
unicode = 0172;
},
{
glyphname = Uring;
lastChange = "2015-10-28 09:02:19 +0000";
layers = (
{
layerId = "493B3A41-641C-4718-8E4F-15C1585391FA";
name = "Regular Italic";
paths = (
{
closed = 1;
nodes = (
"514 -15 OFFCURVE",
"617 95 OFFCURVE",
"652 261 CURVE SMOOTH",
"745 699 LINE",
"643 699 LINE",
"549 257 LINE SMOOTH",
"523 135 OFFCURVE",
"436 77 OFFCURVE",
"325 77 CURVE SMOOTH",
"198 77 OFFCURVE",
"149 131 OFFCURVE",
"176 257 CURVE SMOOTH",
"270 699 LINE",
"168 699 LINE",
"75 261 LINE SMOOTH",
"40 95 OFFCURVE",
"123 -15 OFFCURVE",
"305 -15 CURVE SMOOTH"
);
},
{
closed = 1;
nodes = (
"534 742 OFFCURVE",
"591 793 OFFCURVE",
"605 858 CURVE SMOOTH",
"619 922 OFFCURVE",
"578 974 OFFCURVE",
"514 974 CURVE SMOOTH",
"443 974 OFFCURVE",
"387 922 OFFCURVE",
"373 858 CURVE SMOOTH",
"359 793 OFFCURVE",
"399 742 OFFCURVE",
"464 742 CURVE SMOOTH"
);
},
{
closed = 1;
nodes = (
"440 803 OFFCURVE",
"429 828 OFFCURVE",
"435 858 CURVE SMOOTH",
"441 887 OFFCURVE",
"470 912 OFFCURVE",
"500 912 CURVE SMOOTH",
"536 912 OFFCURVE",
"549 887 OFFCURVE",
"543 858 CURVE SMOOTH",
"537 828 OFFCURVE",
"506 803 OFFCURVE",
"477 803 CURVE SMOOTH"
);
}
);
width = 697;
}
);
leftKerningGroup = U;
note = Uring;
rightKerningGroup = U;
unicode = 016E;
},
{
glyphname = Utilde;
lastChange = "2015-10-28 09:02:18 +0000";
layers = (
{
layerId = "493B3A41-641C-4718-8E4F-15C1585391FA";
name = "Regular Italic";
paths = (
{
closed = 1;
nodes = (
"514 -15 OFFCURVE",
"617 95 OFFCURVE",
"652 261 CURVE SMOOTH",
"745 699 LINE",
"643 699 LINE",
"549 257 LINE SMOOTH",
"523 135 OFFCURVE",
"436 77 OFFCURVE",
"325 77 CURVE SMOOTH",
"198 77 OFFCURVE",
"149 131 OFFCURVE",
"176 257 CURVE SMOOTH",
"270 699 LINE",
"168 699 LINE",
"75 261 LINE SMOOTH",
"40 95 OFFCURVE",
"123 -15 OFFCURVE",
"305 -15 CURVE SMOOTH"
);
},
{
closed = 1;
nodes = (
"317 782 OFFCURVE",
"352 794 OFFCURVE",
"388 794 CURVE SMOOTH",
"452 794 OFFCURVE",
"489 744 OFFCURVE",
"562 744 CURVE SMOOTH",
"603 744 OFFCURVE",
"640 755 OFFCURVE",
"667 786 CURVE",
"685 872 LINE",
"650 833 OFFCURVE",
"616 821 OFFCURVE",
"579 821 CURVE SMOOTH",
"514 821 OFFCURVE",
"472 871 OFFCURVE",
"404 871 CURVE SMOOTH",
"364 871 OFFCURVE",
"326 859 OFFCURVE",
"297 828 CURVE",
"279 742 LINE"
);
}
);
width = 697;
}
);
leftKerningGroup = U;
note = Utilde;
rightKerningGroup = U;
unicode = 0168;
},
{
glyphname = V;
lastChange = "2015-10-28 09:02:18 +0000";
layers = (
{
layerId = "493B3A41-641C-4718-8E4F-15C1585391FA";
name = "Regular Italic";
paths = (
{
closed = 1;
nodes = (
"382 0 LINE",
"809 699 LINE",
"698 699 LINE",
"359 139 LINE",
"258 699 LINE",
"153 699 LINE",
"284 0 LINE"
);
}
);
width = 746;
}
);
note = V;
unicode = 0056;
},
{
glyphname = W;
lastChange = "2015-10-28 09:02:18 +0000";
layers = (
{
layerId = "493B3A41-641C-4718-8E4F-15C1585391FA";
name = "Regular Italic";
paths = (
{
closed = 1;
nodes = (
"309 0 LINE",
"575 528 LINE",
"618 0 LINE",
"712 0 LINE",
"1064 699 LINE",
"958 699 LINE",
"689 168 LINE",
"649 699 LINE",
"569 699 LINE",
"302 168 LINE",
"259 699 LINE",
"153 699 LINE",
"209 0 LINE"
);
}
);
width = 1001;
}
);
leftKerningGroup = W;
note = W;
rightKerningGroup = W;
unicode = 0057;
},
{
glyphname = Wacute;
lastChange = "2015-10-28 09:02:19 +0000";
layers = (
{
layerId = "493B3A41-641C-4718-8E4F-15C1585391FA";
name = "Regular Italic";
paths = (
{
closed = 1;
nodes = (
"309 0 LINE",
"575 528 LINE",
"618 0 LINE",
"712 0 LINE",
"1064 699 LINE",
"958 699 LINE",
"689 168 LINE",
"649 699 LINE",
"569 699 LINE",
"302 168 LINE",
"259 699 LINE",
"153 699 LINE",
"209 0 LINE"
);
},
{
closed = 1;
nodes = (
"674 741 LINE",
"794 913 LINE",
"687 913 LINE",
"582 741 LINE"
);
}
);
width = 1001;
}
);
leftKerningGroup = W;
note = Wacute;
rightKerningGroup = W;
unicode = 1E82;
},
{
glyphname = Wcircumflex;
lastChange = "2015-10-28 09:02:19 +0000";
layers = (
{
layerId = "493B3A41-641C-4718-8E4F-15C1585391FA";
name = "Regular Italic";
paths = (
{
closed = 1;
nodes = (
"312 0 LINE",
"578 528 LINE",
"621 0 LINE",
"715 0 LINE",
"1067 699 LINE",
"961 699 LINE",
"692 168 LINE",
"652 699 LINE",
"572 699 LINE",
"305 168 LINE",
"262 699 LINE",
"156 699 LINE",
"212 0 LINE"
);
},
{
closed = 1;
nodes = (
"539 741 LINE",
"646 848 LINE",
"707 741 LINE",
"806 741 LINE",
"700 907 LINE",
"611 907 LINE",
"434 741 LINE"
);
}
);
width = 1007;
}
);
leftKerningGroup = W;
note = Wcircumflex;
rightKerningGroup = W;
unicode = 0174;
},
{
glyphname = Wdieresis;
lastChange = "2015-10-28 09:02:17 +0000";
layers = (
{
layerId = "493B3A41-641C-4718-8E4F-15C1585391FA";
name = "Regular Italic";
paths = (
{
closed = 1;
nodes = (
"309 0 LINE",
"575 528 LINE",
"618 0 LINE",
"712 0 LINE",
"1064 699 LINE",
"958 699 LINE",
"689 168 LINE",
"649 699 LINE",
"569 699 LINE",
"302 168 LINE",
"259 699 LINE",
"153 699 LINE",
"209 0 LINE"
);
},
{
closed = 1;
nodes = (
"535 741 OFFCURVE",
"566 767 OFFCURVE",
"573 799 CURVE SMOOTH",
"580 831 OFFCURVE",
"560 857 OFFCURVE",
"529 857 CURVE SMOOTH",
"497 857 OFFCURVE",
"465 831 OFFCURVE",
"458 799 CURVE SMOOTH",
"451 767 OFFCURVE",
"473 741 OFFCURVE",
"504 741 CURVE SMOOTH"
);
},
{
closed = 1;
nodes = (
"762 741 OFFCURVE",
"793 767 OFFCURVE",
"800 799 CURVE SMOOTH",
"807 831 OFFCURVE",
"787 857 OFFCURVE",
"756 857 CURVE SMOOTH",
"724 857 OFFCURVE",
"691 831 OFFCURVE",
"684 799 CURVE SMOOTH",
"677 767 OFFCURVE",
"699 741 OFFCURVE",
"731 741 CURVE SMOOTH"
);
}
);
width = 1001;
}
);
leftKerningGroup = W;
note = Wdieresis;
rightKerningGroup = W;
unicode = 1E84;
},
{
glyphname = Wgrave;
lastChange = "2015-10-28 09:02:19 +0000";
layers = (
{
layerId = "493B3A41-641C-4718-8E4F-15C1585391FA";
name = "Regular Italic";
paths = (
{
closed = 1;
nodes = (
"309 0 LINE",
"575 528 LINE",
"618 0 LINE",
"712 0 LINE",
"1064 699 LINE",
"958 699 LINE",
"689 168 LINE",
"649 699 LINE",
"569 699 LINE",
"302 168 LINE",
"259 699 LINE",
"153 699 LINE",
"209 0 LINE"
);
},
{
closed = 1;
nodes = (
"658 741 LINE",
"626 913 LINE",
"519 913 LINE",
"565 741 LINE"
);
}
);
width = 1001;
}
);
leftKerningGroup = W;
note = Wgrave;
rightKerningGroup = W;
unicode = 1E80;
},
{
glyphname = X;
lastChange = "2015-10-28 09:02:17 +0000";
layers = (
{
layerId = "493B3A41-641C-4718-8E4F-15C1585391FA";
name = "Regular Italic";
paths = (
{
closed = 1;
nodes = (
"123 0 LINE",
"384 276 LINE",
"529 0 LINE",
"646 0 LINE",
"459 355 LINE",
"785 699 LINE",
"668 699 LINE",
"418 435 LINE",
"280 699 LINE",
"163 699 LINE",
"342 355 LINE",
"6 0 LINE"
);
}
);
width = 732;
}
);
note = X;
unicode = 0058;
},
{
glyphname = Y;
lastChange = "2015-10-28 09:02:19 +0000";
layers = (
{
layerId = "493B3A41-641C-4718-8E4F-15C1585391FA";
name = "Regular Italic";
paths = (
{
closed = 1;
nodes = (
"358 0 LINE",
"414 265 LINE",
"763 699 LINE",
"652 699 LINE",
"382 362 LINE",
"259 699 LINE",
"153 699 LINE",
"315 265 LINE",
"259 0 LINE"
);
}
);
width = 700;
}
);
leftKerningGroup = Y;
note = Y;
rightKerningGroup = Y;
unicode = 0059;
},
{
glyphname = Yacute;
lastChange = "2015-10-28 09:02:19 +0000";
layers = (
{
layerId = "493B3A41-641C-4718-8E4F-15C1585391FA";
name = "Regular Italic";
paths = (
{
closed = 1;
nodes = (
"358 0 LINE",
"414 265 LINE",
"763 699 LINE",
"652 699 LINE",
"382 362 LINE",
"259 699 LINE",
"153 699 LINE",
"315 265 LINE",
"259 0 LINE"
);
},
{
closed = 1;
nodes = (
"499 754 LINE",
"619 926 LINE",
"512 926 LINE",
"407 754 LINE"
);
}
);
width = 700;
}
);
leftKerningGroup = Y;
note = Yacute;
rightKerningGroup = Y;
unicode = 00DD;
},
{
glyphname = Ycircumflex;
lastChange = "2015-10-28 09:02:19 +0000";
layers = (
{
layerId = "493B3A41-641C-4718-8E4F-15C1585391FA";
name = "Regular Italic";
paths = (
{
closed = 1;
nodes = (
"361 0 LINE",
"417 265 LINE",
"766 699 LINE",
"655 699 LINE",
"385 362 LINE",
"262 699 LINE",
"156 699 LINE",
"318 265 LINE",
"262 0 LINE"
);
},
{
closed = 1;
nodes = (
"388 741 LINE",
"495 848 LINE",
"556 741 LINE",
"655 741 LINE",
"549 907 LINE",
"460 907 LINE",
"283 741 LINE"
);
}
);
width = 706;
}
);
leftKerningGroup = Y;
note = Ycircumflex;
rightKerningGroup = Y;
unicode = 0176;
},
{
glyphname = Ydieresis;
lastChange = "2015-10-28 09:02:17 +0000";
layers = (
{
layerId = "493B3A41-641C-4718-8E4F-15C1585391FA";
name = "Regular Italic";
paths = (
{
closed = 1;
nodes = (
"358 0 LINE",
"414 265 LINE",
"763 699 LINE",
"652 699 LINE",
"382 362 LINE",
"259 699 LINE",
"153 699 LINE",
"315 265 LINE",
"259 0 LINE"
);
},
{
closed = 1;
nodes = (
"374 752 OFFCURVE",
"405 778 OFFCURVE",
"412 810 CURVE SMOOTH",
"419 842 OFFCURVE",
"399 868 OFFCURVE",
"368 868 CURVE SMOOTH",
"336 868 OFFCURVE",
"304 842 OFFCURVE",
"297 810 CURVE SMOOTH",
"290 778 OFFCURVE",
"312 752 OFFCURVE",
"343 752 CURVE SMOOTH"
);
},
{
closed = 1;
nodes = (
"601 752 OFFCURVE",
"632 778 OFFCURVE",
"639 810 CURVE SMOOTH",
"646 842 OFFCURVE",
"626 868 OFFCURVE",
"595 868 CURVE SMOOTH",
"563 868 OFFCURVE",
"530 842 OFFCURVE",
"523 810 CURVE SMOOTH",
"516 778 OFFCURVE",
"538 752 OFFCURVE",
"570 752 CURVE SMOOTH"
);
}
);
width = 700;
}
);
leftKerningGroup = Y;
note = Ydieresis;
rightKerningGroup = Y;
unicode = 0178;
},
{
glyphname = Ydotaccent;
lastChange = "2015-10-28 09:02:19 +0000";
layers = (
{
layerId = "493B3A41-641C-4718-8E4F-15C1585391FA";
name = "Regular Italic";
paths = (
{
closed = 1;
nodes = (
"358 0 LINE",
"414 265 LINE",
"763 699 LINE",
"652 699 LINE",
"382 362 LINE",
"259 699 LINE",
"153 699 LINE",
"315 265 LINE",
"259 0 LINE"
);
},
{
closed = 1;
nodes = (
"498 741 OFFCURVE",
"529 767 OFFCURVE",
"536 799 CURVE SMOOTH",
"543 831 OFFCURVE",
"523 857 OFFCURVE",
"492 857 CURVE SMOOTH",
"460 857 OFFCURVE",
"427 831 OFFCURVE",
"420 799 CURVE SMOOTH",
"413 767 OFFCURVE",
"435 741 OFFCURVE",
"467 741 CURVE SMOOTH"
);
}
);
width = 700;
}
);
leftKerningGroup = Y;
note = Ydotaccent;
rightKerningGroup = Y;
unicode = 1E8E;
},
{
glyphname = Ydotbelow;
lastChange = "2015-10-28 09:02:19 +0000";
layers = (
{
layerId = "493B3A41-641C-4718-8E4F-15C1585391FA";
name = "Regular Italic";
paths = (
{
closed = 1;
nodes = (
"358 0 LINE",
"414 265 LINE",
"763 699 LINE",
"652 699 LINE",
"382 362 LINE",
"259 699 LINE",
"153 699 LINE",
"315 265 LINE",
"259 0 LINE"
);
},
{
closed = 1;
nodes = (
"306 -166 OFFCURVE",
"337 -140 OFFCURVE",
"344 -108 CURVE SMOOTH",
"350 -76 OFFCURVE",
"330 -50 OFFCURVE",
"300 -50 CURVE SMOOTH",
"268 -50 OFFCURVE",
"235 -76 OFFCURVE",
"229 -108 CURVE SMOOTH",
"222 -140 OFFCURVE",
"243 -166 OFFCURVE",
"275 -166 CURVE SMOOTH"
);
}
);
width = 700;
}
);
leftKerningGroup = Y;
note = Ydotbelow;
rightKerningGroup = Y;
unicode = 1EF4;
},
{
glyphname = Ygrave;
lastChange = "2015-10-28 09:02:19 +0000";
layers = (
{
layerId = "493B3A41-641C-4718-8E4F-15C1585391FA";
name = "Regular Italic";
paths = (
{
closed = 1;
nodes = (
"358 0 LINE",
"414 265 LINE",
"763 699 LINE",
"652 699 LINE",
"382 362 LINE",
"259 699 LINE",
"153 699 LINE",
"315 265 LINE",
"259 0 LINE"
);
},
{
closed = 1;
nodes = (
"515 741 LINE",
"483 913 LINE",
"376 913 LINE",
"422 741 LINE"
);
}
);
width = 700;
}
);
leftKerningGroup = Y;
note = Ygrave;
rightKerningGroup = Y;
unicode = 1EF2;
},
{
glyphname = Yhookabove;
lastChange = "2015-10-28 09:02:18 +0000";
layers = (
{
layerId = "493B3A41-641C-4718-8E4F-15C1585391FA";
name = "Regular Italic";
paths = (
{
closed = 1;
nodes = (
"358 0 LINE",
"414 265 LINE",
"763 699 LINE",
"652 699 LINE",
"382 362 LINE",
"259 699 LINE",
"153 699 LINE",
"315 265 LINE",
"259 0 LINE"
);
},
{
closed = 1;
nodes = (
"505 742 LINE",
"512 776 LINE",
"574 784 OFFCURVE",
"614 822 OFFCURVE",
"624 870 CURVE SMOOTH",
"636 927 OFFCURVE",
"602 967 OFFCURVE",
"514 967 CURVE SMOOTH",
"482 967 OFFCURVE",
"445 961 OFFCURVE",
"424 954 CURVE",
"412 899 LINE",
"426 905 OFFCURVE",
"462 910 OFFCURVE",
"478 910 CURVE SMOOTH",
"524 910 OFFCURVE",
"541 897 OFFCURVE",
"534 866 CURVE SMOOTH",
"526 827 OFFCURVE",
"491 813 OFFCURVE",
"431 813 CURVE",
"416 742 LINE"
);
}
);
width = 700;
}
);
leftKerningGroup = Y;
note = Yhookabove;
rightKerningGroup = Y;
unicode = 1EF6;
},
{
glyphname = Ytilde;
lastChange = "2015-10-28 09:02:19 +0000";
layers = (
{
layerId = "493B3A41-641C-4718-8E4F-15C1585391FA";
name = "Regular Italic";
paths = (
{
closed = 1;
nodes = (
"358 0 LINE",
"414 265 LINE",
"763 699 LINE",
"652 699 LINE",
"382 362 LINE",
"259 699 LINE",
"153 699 LINE",
"315 265 LINE",
"259 0 LINE"
);
},
{
closed = 1;
nodes = (
"315 782 OFFCURVE",
"350 794 OFFCURVE",
"386 794 CURVE SMOOTH",
"450 794 OFFCURVE",
"487 744 OFFCURVE",
"560 744 CURVE SMOOTH",
"601 744 OFFCURVE",
"638 755 OFFCURVE",
"665 786 CURVE",
"683 872 LINE",
"648 833 OFFCURVE",
"614 821 OFFCURVE",
"577 821 CURVE SMOOTH",
"512 821 OFFCURVE",
"470 871 OFFCURVE",
"402 871 CURVE SMOOTH",
"362 871 OFFCURVE",
"324 859 OFFCURVE",
"295 828 CURVE",
"277 742 LINE"
);
}
);
width = 700;
}
);
leftKerningGroup = Y;
note = Ytilde;
rightKerningGroup = Y;
unicode = 1EF8;
},
{
glyphname = Z;
lastChange = "2015-10-28 09:02:19 +0000";
layers = (
{
layerId = "493B3A41-641C-4718-8E4F-15C1585391FA";
name = "Regular Italic";
paths = (
{
closed = 1;
nodes = (
"533 0 LINE",
"551 85 LINE",
"148 85 LINE",
"649 629 LINE",
"664 699 LINE",
"162 699 LINE",
"144 613 LINE",
"522 613 LINE",
"19 69 LINE",
"5 0 LINE"
);
}
);
width = 618;
}
);
leftKerningGroup = Z;
note = Z;
rightKerningGroup = Z;
unicode = 005A;
},
{
glyphname = Zacute;
lastChange = "2015-10-28 09:02:19 +0000";
layers = (
{
layerId = "493B3A41-641C-4718-8E4F-15C1585391FA";
name = "Regular Italic";
paths = (
{
closed = 1;
nodes = (
"533 0 LINE",
"551 85 LINE",
"148 85 LINE",
"649 629 LINE",
"664 699 LINE",
"162 699 LINE",
"144 613 LINE",
"522 613 LINE",
"19 69 LINE",
"5 0 LINE"
);
},
{
closed = 1;
nodes = (
"449 741 LINE",
"569 913 LINE",
"462 913 LINE",
"357 741 LINE"
);
}
);
width = 618;
}
);
leftKerningGroup = Z;
note = Zacute;
rightKerningGroup = Z;
unicode = 0179;
},
{
glyphname = Zcaron;
lastChange = "2015-10-28 09:02:17 +0000";
layers = (
{
layerId = "493B3A41-641C-4718-8E4F-15C1585391FA";
name = "Regular Italic";
paths = (
{
closed = 1;
nodes = (
"533 0 LINE",
"551 85 LINE",
"148 85 LINE",
"649 629 LINE",
"664 699 LINE",
"162 699 LINE",
"144 613 LINE",
"522 613 LINE",
"19 69 LINE",
"5 0 LINE"
);
},
{
closed = 1;
nodes = (
"468 742 LINE",
"646 908 LINE",
"541 908 LINE",
"434 801 LINE",
"373 908 LINE",
"274 908 LINE",
"379 742 LINE"
);
}
);
width = 618;
}
);
leftKerningGroup = Z;
note = Zcaron;
rightKerningGroup = Z;
unicode = 017D;
},
{
glyphname = Zdotaccent;
lastChange = "2015-10-28 09:02:18 +0000";
layers = (
{
layerId = "493B3A41-641C-4718-8E4F-15C1585391FA";
name = "Regular Italic";
paths = (
{
closed = 1;
nodes = (
"533 0 LINE",
"551 85 LINE",
"148 85 LINE",
"649 629 LINE",
"664 699 LINE",
"162 699 LINE",
"144 613 LINE",
"522 613 LINE",
"19 69 LINE",
"5 0 LINE"
);
},
{
closed = 1;
nodes = (
"447 741 OFFCURVE",
"478 767 OFFCURVE",
"485 799 CURVE SMOOTH",
"492 831 OFFCURVE",
"472 857 OFFCURVE",
"441 857 CURVE SMOOTH",
"409 857 OFFCURVE",
"376 831 OFFCURVE",
"369 799 CURVE SMOOTH",
"362 767 OFFCURVE",
"384 741 OFFCURVE",
"416 741 CURVE SMOOTH"
);
}
);
width = 618;
}
);
leftKerningGroup = Z;
note = Zdotaccent;
rightKerningGroup = Z;
unicode = 017B;
},
{
glyphname = Zdotbelow;
lastChange = "2015-10-28 09:02:18 +0000";
layers = (
{
layerId = "493B3A41-641C-4718-8E4F-15C1585391FA";
name = "Regular Italic";
paths = (
{
closed = 1;
nodes = (
"533 0 LINE",
"551 85 LINE",
"148 85 LINE",
"649 629 LINE",
"664 699 LINE",
"162 699 LINE",
"144 613 LINE",
"522 613 LINE",
"19 69 LINE",
"5 0 LINE"
);
},
{
closed = 1;
nodes = (
"275 -166 OFFCURVE",
"306 -140 OFFCURVE",
"313 -108 CURVE SMOOTH",
"319 -76 OFFCURVE",
"299 -50 OFFCURVE",
"269 -50 CURVE SMOOTH",
"237 -50 OFFCURVE",
"204 -76 OFFCURVE",
"198 -108 CURVE SMOOTH",
"191 -140 OFFCURVE",
"212 -166 OFFCURVE",
"244 -166 CURVE SMOOTH"
);
}
);
width = 618;
}
);
leftKerningGroup = Z;
note = Zdotbelow;
rightKerningGroup = Z;
unicode = 1E92;
},
{
glyphname = a;
lastChange = "2015-10-28 09:02:19 +0000";
layers = (
{
layerId = "493B3A41-641C-4718-8E4F-15C1585391FA";
name = "Regular Italic";
paths = (
{
closed = 1;
nodes = (
"340 -15 OFFCURVE",
"406 11 OFFCURVE",
"471 70 CURVE",
"457 0 LINE",
"555 0 LINE",
"657 480 LINE",
"556 480 LINE",
"542 416 LINE",
"508 469 OFFCURVE",
"446 495 OFFCURVE",
"362 495 CURVE SMOOTH",
"216 495 OFFCURVE",
"88 391 OFFCURVE",
"55 239 CURVE SMOOTH",
"22 84 OFFCURVE",
"120 -15 OFFCURVE",
"253 -15 CURVE SMOOTH"
);
},
{
closed = 1;
nodes = (
"165 65 OFFCURVE",
"135 134 OFFCURVE",
"157 239 CURVE SMOOTH",
"180 344 OFFCURVE",
"269 414 OFFCURVE",
"367 414 CURVE SMOOTH",
"450 414 OFFCURVE",
"509 367 OFFCURVE",
"516 293 CURVE",
"493 185 LINE",
"452 111 OFFCURVE",
"375 65 OFFCURVE",
"293 65 CURVE SMOOTH"
);
}
);
width = 660;
}
);
leftKerningGroup = a;
note = a;
rightKerningGroup = a;
unicode = 0061;
},
{
glyphname = aacute;
lastChange = "2015-10-28 09:02:19 +0000";
layers = (
{
layerId = "493B3A41-641C-4718-8E4F-15C1585391FA";
name = "Regular Italic";
paths = (
{
closed = 1;
nodes = (
"340 -15 OFFCURVE",
"406 11 OFFCURVE",
"471 70 CURVE",
"457 0 LINE",
"555 0 LINE",
"657 480 LINE",
"556 480 LINE",
"542 416 LINE",
"508 469 OFFCURVE",
"446 495 OFFCURVE",
"362 495 CURVE SMOOTH",
"216 495 OFFCURVE",
"88 391 OFFCURVE",
"55 239 CURVE SMOOTH",
"22 84 OFFCURVE",
"120 -15 OFFCURVE",
"253 -15 CURVE SMOOTH"
);
},
{
closed = 1;
nodes = (
"165 65 OFFCURVE",
"135 134 OFFCURVE",
"157 239 CURVE SMOOTH",
"180 344 OFFCURVE",
"269 414 OFFCURVE",
"367 414 CURVE SMOOTH",
"450 414 OFFCURVE",
"509 367 OFFCURVE",
"516 293 CURVE",
"493 185 LINE",
"452 111 OFFCURVE",
"375 65 OFFCURVE",
"293 65 CURVE SMOOTH"
);
},
{
closed = 1;
nodes = (
"488 534 LINE",
"608 706 LINE",
"501 706 LINE",
"396 534 LINE"
);
}
);
width = 655;
}
);
leftKerningGroup = a;
note = aacute;
rightKerningGroup = a;
unicode = 00E1;
},
{
glyphname = abreve;
lastChange = "2015-10-28 09:02:19 +0000";
layers = (
{
layerId = "493B3A41-641C-4718-8E4F-15C1585391FA";
name = "Regular Italic";
paths = (
{
closed = 1;
nodes = (
"340 -15 OFFCURVE",
"406 11 OFFCURVE",
"471 70 CURVE",
"457 0 LINE",
"555 0 LINE",
"657 480 LINE",
"556 480 LINE",
"542 416 LINE",
"508 469 OFFCURVE",
"446 495 OFFCURVE",
"362 495 CURVE SMOOTH",
"216 495 OFFCURVE",
"88 391 OFFCURVE",
"55 239 CURVE SMOOTH",
"22 84 OFFCURVE",
"120 -15 OFFCURVE",
"253 -15 CURVE SMOOTH"
);
},
{
closed = 1;
nodes = (
"165 65 OFFCURVE",
"135 134 OFFCURVE",
"157 239 CURVE SMOOTH",
"180 344 OFFCURVE",
"269 414 OFFCURVE",
"367 414 CURVE SMOOTH",
"450 414 OFFCURVE",
"509 367 OFFCURVE",
"516 293 CURVE",
"493 185 LINE",
"452 111 OFFCURVE",
"375 65 OFFCURVE",
"293 65 CURVE SMOOTH"
);
},
{
closed = 1;
nodes = (
"553 535 OFFCURVE",
"623 593 OFFCURVE",
"640 675 CURVE",
"560 675 LINE",
"550 630 OFFCURVE",
"518 604 OFFCURVE",
"472 604 CURVE SMOOTH",
"426 604 OFFCURVE",
"404 630 OFFCURVE",
"414 675 CURVE",
"339 675 LINE",
"323 593 OFFCURVE",
"366 535 OFFCURVE",
"460 535 CURVE SMOOTH"
);
}
);
width = 655;
}
);
leftKerningGroup = a;
note = abreve;
rightKerningGroup = a;
unicode = 0103;
},
{
glyphname = abreveacute;
lastChange = "2015-10-28 09:02:19 +0000";
layers = (
{
layerId = "493B3A41-641C-4718-8E4F-15C1585391FA";
name = "Regular Italic";
paths = (
{
closed = 1;
nodes = (
"340 -15 OFFCURVE",
"406 11 OFFCURVE",
"471 70 CURVE",
"457 0 LINE",
"555 0 LINE",
"657 480 LINE",
"556 480 LINE",
"542 416 LINE",
"508 469 OFFCURVE",
"446 495 OFFCURVE",
"362 495 CURVE SMOOTH",
"216 495 OFFCURVE",
"88 391 OFFCURVE",
"55 239 CURVE SMOOTH",
"22 84 OFFCURVE",
"120 -15 OFFCURVE",
"253 -15 CURVE SMOOTH"
);
},
{
closed = 1;
nodes = (
"165 65 OFFCURVE",
"135 134 OFFCURVE",
"157 239 CURVE SMOOTH",
"180 344 OFFCURVE",
"269 414 OFFCURVE",
"367 414 CURVE SMOOTH",
"450 414 OFFCURVE",
"509 367 OFFCURVE",
"516 293 CURVE",
"493 185 LINE",
"452 111 OFFCURVE",
"375 65 OFFCURVE",
"293 65 CURVE SMOOTH"
);
},
{
closed = 1;
nodes = (
"545 535 OFFCURVE",
"612 591 OFFCURVE",
"629 672 CURVE",
"552 672 LINE",
"543 628 OFFCURVE",
"511 602 OFFCURVE",
"465 602 CURVE SMOOTH",
"420 602 OFFCURVE",
"400 628 OFFCURVE",
"409 672 CURVE",
"337 672 LINE",
"320 591 OFFCURVE",
"363 535 OFFCURVE",
"454 535 CURVE SMOOTH"
);
},
{
closed = 1;
nodes = (
"513 667 LINE",
"604 791 LINE",
"521 791 LINE",
"443 667 LINE"
);
}
);
width = 655;
}
);
leftKerningGroup = a;
note = abreveacute;
rightKerningGroup = a;
unicode = 1EAF;
},
{
glyphname = abrevedotbelow;
lastChange = "2015-10-28 09:02:18 +0000";
layers = (
{
layerId = "493B3A41-641C-4718-8E4F-15C1585391FA";
name = "Regular Italic";
paths = (
{
closed = 1;
nodes = (
"340 -15 OFFCURVE",
"406 11 OFFCURVE",
"471 70 CURVE",
"457 0 LINE",
"555 0 LINE",
"657 480 LINE",
"556 480 LINE",
"542 416 LINE",
"508 469 OFFCURVE",
"446 495 OFFCURVE",
"362 495 CURVE SMOOTH",
"216 495 OFFCURVE",
"88 391 OFFCURVE",
"55 239 CURVE SMOOTH",
"22 84 OFFCURVE",
"120 -15 OFFCURVE",
"253 -15 CURVE SMOOTH"
);
},
{
closed = 1;
nodes = (
"323 -166 OFFCURVE",
"354 -140 OFFCURVE",
"361 -108 CURVE SMOOTH",
"367 -76 OFFCURVE",
"347 -50 OFFCURVE",
"317 -50 CURVE SMOOTH",
"285 -50 OFFCURVE",
"252 -76 OFFCURVE",
"246 -108 CURVE SMOOTH",
"239 -140 OFFCURVE",
"260 -166 OFFCURVE",
"292 -166 CURVE SMOOTH"
);
},
{
closed = 1;
nodes = (
"165 65 OFFCURVE",
"135 134 OFFCURVE",
"157 239 CURVE SMOOTH",
"180 344 OFFCURVE",
"269 414 OFFCURVE",
"367 414 CURVE SMOOTH",
"450 414 OFFCURVE",
"509 367 OFFCURVE",
"516 293 CURVE",
"493 185 LINE",
"452 111 OFFCURVE",
"375 65 OFFCURVE",
"293 65 CURVE SMOOTH"
);
},
{
closed = 1;
nodes = (
"531 535 OFFCURVE",
"601 593 OFFCURVE",
"618 675 CURVE",
"538 675 LINE",
"528 630 OFFCURVE",
"496 604 OFFCURVE",
"450 604 CURVE SMOOTH",
"404 604 OFFCURVE",
"382 630 OFFCURVE",
"392 675 CURVE",
"317 675 LINE",
"301 593 OFFCURVE",
"344 535 OFFCURVE",
"438 535 CURVE SMOOTH"
);
}
);
width = 655;
}
);
leftKerningGroup = a;
note = abrevedotbelow;
rightKerningGroup = a;
unicode = 1EB7;
},
{
glyphname = abrevegrave;
lastChange = "2015-10-28 09:02:17 +0000";
layers = (
{
layerId = "493B3A41-641C-4718-8E4F-15C1585391FA";
name = "Regular Italic";
paths = (
{
closed = 1;
nodes = (
"340 -15 OFFCURVE",
"406 11 OFFCURVE",
"471 70 CURVE",
"457 0 LINE",
"555 0 LINE",
"657 480 LINE",
"556 480 LINE",
"542 416 LINE",
"508 469 OFFCURVE",
"446 495 OFFCURVE",
"362 495 CURVE SMOOTH",
"216 495 OFFCURVE",
"88 391 OFFCURVE",
"55 239 CURVE SMOOTH",
"22 84 OFFCURVE",
"120 -15 OFFCURVE",
"253 -15 CURVE SMOOTH"
);
},
{
closed = 1;
nodes = (
"165 65 OFFCURVE",
"135 134 OFFCURVE",
"157 239 CURVE SMOOTH",
"180 344 OFFCURVE",
"269 414 OFFCURVE",
"367 414 CURVE SMOOTH",
"450 414 OFFCURVE",
"509 367 OFFCURVE",
"516 293 CURVE",
"493 185 LINE",
"452 111 OFFCURVE",
"375 65 OFFCURVE",
"293 65 CURVE SMOOTH"
);
},
{
closed = 1;
nodes = (
"543 532 OFFCURVE",
"610 588 OFFCURVE",
"627 669 CURVE",
"550 669 LINE",
"541 625 OFFCURVE",
"509 599 OFFCURVE",
"463 599 CURVE SMOOTH",
"418 599 OFFCURVE",
"398 625 OFFCURVE",
"407 669 CURVE",
"335 669 LINE",
"318 588 OFFCURVE",
"361 532 OFFCURVE",
"452 532 CURVE SMOOTH"
);
},
{
closed = 1;
nodes = (
"520 664 LINE",
"494 788 LINE",
"411 788 LINE",
"450 664 LINE"
);
}
);
width = 655;
}
);
leftKerningGroup = a;
note = abrevegrave;
rightKerningGroup = a;
unicode = 1EB1;
},
{
glyphname = abrevehookabove;
lastChange = "2015-10-28 09:02:19 +0000";
layers = (
{
layerId = "493B3A41-641C-4718-8E4F-15C1585391FA";
name = "Regular Italic";
paths = (
{
closed = 1;
nodes = (
"340 -15 OFFCURVE",
"406 11 OFFCURVE",
"471 70 CURVE",
"457 0 LINE",
"555 0 LINE",
"657 480 LINE",
"556 480 LINE",
"542 416 LINE",
"508 469 OFFCURVE",
"446 495 OFFCURVE",
"362 495 CURVE SMOOTH",
"216 495 OFFCURVE",
"88 391 OFFCURVE",
"55 239 CURVE SMOOTH",
"22 84 OFFCURVE",
"120 -15 OFFCURVE",
"253 -15 CURVE SMOOTH"
);
},
{
closed = 1;
nodes = (
"165 65 OFFCURVE",
"135 134 OFFCURVE",
"157 239 CURVE SMOOTH",
"180 344 OFFCURVE",
"269 414 OFFCURVE",
"367 414 CURVE SMOOTH",
"450 414 OFFCURVE",
"509 367 OFFCURVE",
"516 293 CURVE",
"493 185 LINE",
"452 111 OFFCURVE",
"375 65 OFFCURVE",
"293 65 CURVE SMOOTH"
);
},
{
closed = 1;
nodes = (
"543 532 OFFCURVE",
"609 588 OFFCURVE",
"626 669 CURVE",
"551 669 LINE",
"542 625 OFFCURVE",
"508 598 OFFCURVE",
"463 598 CURVE SMOOTH",
"417 598 OFFCURVE",
"396 625 OFFCURVE",
"405 669 CURVE",
"334 669 LINE",
"317 588 OFFCURVE",
"361 532 OFFCURVE",
"452 532 CURVE SMOOTH"
);
},
{
closed = 1;
nodes = (
"508 652 LINE",
"513 676 LINE",
"557 683 OFFCURVE",
"586 708 OFFCURVE",
"593 741 CURVE SMOOTH",
"602 782 OFFCURVE",
"575 809 OFFCURVE",
"517 809 CURVE SMOOTH",
"495 809 OFFCURVE",
"466 805 OFFCURVE",
"449 799 CURVE",
"440 757 LINE",
"451 762 OFFCURVE",
"469 765 OFFCURVE",
"484 765 CURVE SMOOTH",
"513 765 OFFCURVE",
"526 757 OFFCURVE",
"521 735 CURVE SMOOTH",
"516 711 OFFCURVE",
"495 702 OFFCURVE",
"455 702 CURVE",
"444 652 LINE"
);
}
);
width = 655;
}
);
leftKerningGroup = a;
note = abrevehookabove;
rightKerningGroup = a;
unicode = 1EB3;
},
{
glyphname = abrevetilde;
lastChange = "2015-10-28 09:02:19 +0000";
layers = (
{
layerId = "493B3A41-641C-4718-8E4F-15C1585391FA";
name = "Regular Italic";
paths = (
{
closed = 1;
nodes = (
"340 -15 OFFCURVE",
"406 11 OFFCURVE",
"471 70 CURVE",
"457 0 LINE",
"555 0 LINE",
"657 480 LINE",
"556 480 LINE",
"542 416 LINE",
"508 469 OFFCURVE",
"446 495 OFFCURVE",
"362 495 CURVE SMOOTH",
"216 495 OFFCURVE",
"88 391 OFFCURVE",
"55 239 CURVE SMOOTH",
"22 84 OFFCURVE",
"120 -15 OFFCURVE",
"253 -15 CURVE SMOOTH"
);
},
{
closed = 1;
nodes = (
"165 65 OFFCURVE",
"135 134 OFFCURVE",
"157 239 CURVE SMOOTH",
"180 344 OFFCURVE",
"269 414 OFFCURVE",
"367 414 CURVE SMOOTH",
"450 414 OFFCURVE",
"509 367 OFFCURVE",
"516 293 CURVE",
"493 185 LINE",
"452 111 OFFCURVE",
"375 65 OFFCURVE",
"293 65 CURVE SMOOTH"
);
},
{
closed = 1;
nodes = (
"559 535 OFFCURVE",
"626 591 OFFCURVE",
"643 672 CURVE",
"566 672 LINE",
"557 628 OFFCURVE",
"525 602 OFFCURVE",
"479 602 CURVE SMOOTH",
"434 602 OFFCURVE",
"413 628 OFFCURVE",
"422 672 CURVE",
"351 672 LINE",
"334 591 OFFCURVE",
"377 535 OFFCURVE",
"468 535 CURVE SMOOTH"
);
},
{
closed = 1;
nodes = (
"374 732 OFFCURVE",
"401 743 OFFCURVE",
"432 743 CURVE SMOOTH",
"483 743 OFFCURVE",
"520 700 OFFCURVE",
"579 700 CURVE SMOOTH",
"614 700 OFFCURVE",
"643 709 OFFCURVE",
"666 735 CURVE",
"682 810 LINE",
"652 777 OFFCURVE",
"623 766 OFFCURVE",
"593 766 CURVE SMOOTH",
"541 766 OFFCURVE",
"501 810 OFFCURVE",
"446 810 CURVE SMOOTH",
"411 810 OFFCURVE",
"381 800 OFFCURVE",
"358 774 CURVE",
"342 699 LINE"
);
}
);
width = 655;
}
);
leftKerningGroup = a;
note = abrevetilde;
rightKerningGroup = a;
unicode = 1EB5;
},
{
glyphname = acaron;
lastChange = "2015-10-28 09:02:18 +0000";
layers = (
{
layerId = "493B3A41-641C-4718-8E4F-15C1585391FA";
name = "Regular Italic";
paths = (
{
closed = 1;
nodes = (
"340 -15 OFFCURVE",
"406 11 OFFCURVE",
"471 70 CURVE",
"457 0 LINE",
"555 0 LINE",
"657 480 LINE",
"556 480 LINE",
"542 416 LINE",
"508 469 OFFCURVE",
"446 495 OFFCURVE",
"362 495 CURVE SMOOTH",
"216 495 OFFCURVE",
"88 391 OFFCURVE",
"55 239 CURVE SMOOTH",
"22 84 OFFCURVE",
"120 -15 OFFCURVE",
"253 -15 CURVE SMOOTH"
);
},
{
closed = 1;
nodes = (
"165 65 OFFCURVE",
"135 134 OFFCURVE",
"157 239 CURVE SMOOTH",
"180 344 OFFCURVE",
"269 414 OFFCURVE",
"367 414 CURVE SMOOTH",
"450 414 OFFCURVE",
"509 367 OFFCURVE",
"516 293 CURVE",
"493 185 LINE",
"452 111 OFFCURVE",
"375 65 OFFCURVE",
"293 65 CURVE SMOOTH"
);
},
{
closed = 1;
nodes = (
"503 535 LINE",
"681 701 LINE",
"576 701 LINE",
"469 594 LINE",
"408 701 LINE",
"309 701 LINE",
"414 535 LINE"
);
}
);
width = 655;
}
);
leftKerningGroup = a;
note = acaron;
rightKerningGroup = a;
unicode = 01CE;
},
{
glyphname = acircumflex;
lastChange = "2015-10-28 09:02:19 +0000";
layers = (
{
layerId = "493B3A41-641C-4718-8E4F-15C1585391FA";
name = "Regular Italic";
paths = (
{
closed = 1;
nodes = (
"340 -15 OFFCURVE",
"406 11 OFFCURVE",
"471 70 CURVE",
"457 0 LINE",
"555 0 LINE",
"657 480 LINE",
"556 480 LINE",
"542 416 LINE",
"508 469 OFFCURVE",
"446 495 OFFCURVE",
"362 495 CURVE SMOOTH",
"216 495 OFFCURVE",
"88 391 OFFCURVE",
"55 239 CURVE SMOOTH",
"22 84 OFFCURVE",
"120 -15 OFFCURVE",
"253 -15 CURVE SMOOTH"
);
},
{
closed = 1;
nodes = (
"165 65 OFFCURVE",
"135 134 OFFCURVE",
"157 239 CURVE SMOOTH",
"180 344 OFFCURVE",
"269 414 OFFCURVE",
"367 414 CURVE SMOOTH",
"450 414 OFFCURVE",
"509 367 OFFCURVE",
"516 293 CURVE",
"493 185 LINE",
"452 111 OFFCURVE",
"375 65 OFFCURVE",
"293 65 CURVE SMOOTH"
);
},
{
closed = 1;
nodes = (
"371 534 LINE",
"478 641 LINE",
"539 534 LINE",
"638 534 LINE",
"532 700 LINE",
"443 700 LINE",
"266 534 LINE"
);
}
);
width = 655;
}
);
leftKerningGroup = a;
note = acircumflex;
rightKerningGroup = a;
unicode = 00E2;
},
{
glyphname = acircumflexacute;
lastChange = "2015-10-28 09:02:17 +0000";
layers = (
{
layerId = "493B3A41-641C-4718-8E4F-15C1585391FA";
name = "Regular Italic";
paths = (
{
closed = 1;
nodes = (
"340 -15 OFFCURVE",
"406 11 OFFCURVE",
"471 70 CURVE",
"457 0 LINE",
"555 0 LINE",
"657 480 LINE",
"556 480 LINE",
"542 416 LINE",
"508 469 OFFCURVE",
"446 495 OFFCURVE",
"362 495 CURVE SMOOTH",
"216 495 OFFCURVE",
"88 391 OFFCURVE",
"55 239 CURVE SMOOTH",
"22 84 OFFCURVE",
"120 -15 OFFCURVE",
"253 -15 CURVE SMOOTH"
);
},
{
closed = 1;
nodes = (
"165 65 OFFCURVE",
"135 134 OFFCURVE",
"157 239 CURVE SMOOTH",
"180 344 OFFCURVE",
"269 414 OFFCURVE",
"367 414 CURVE SMOOTH",
"450 414 OFFCURVE",
"509 367 OFFCURVE",
"516 293 CURVE",
"493 185 LINE",
"452 111 OFFCURVE",
"375 65 OFFCURVE",
"293 65 CURVE SMOOTH"
);
},
{
closed = 1;
nodes = (
"380 534 LINE",
"481 624 LINE",
"544 534 LINE",
"639 534 LINE",
"533 679 LINE",
"447 679 LINE",
"278 534 LINE"
);
},
{
closed = 1;
nodes = (
"669 635 LINE",
"774 759 LINE",
"683 759 LINE",
"592 635 LINE"
);
}
);
width = 654;
}
);
leftKerningGroup = a;
note = acircumflexacute;
rightKerningGroup = a;
unicode = 1EA5;
},
{
glyphname = acircumflexdotbelow;
lastChange = "2015-10-28 09:02:18 +0000";
layers = (
{
layerId = "493B3A41-641C-4718-8E4F-15C1585391FA";
name = "Regular Italic";
paths = (
{
closed = 1;
nodes = (
"340 -15 OFFCURVE",
"406 11 OFFCURVE",
"471 70 CURVE",
"457 0 LINE",
"555 0 LINE",
"657 480 LINE",
"556 480 LINE",
"542 416 LINE",
"508 469 OFFCURVE",
"446 495 OFFCURVE",
"362 495 CURVE SMOOTH",
"216 495 OFFCURVE",
"88 391 OFFCURVE",
"55 239 CURVE SMOOTH",
"22 84 OFFCURVE",
"120 -15 OFFCURVE",
"253 -15 CURVE SMOOTH"
);
},
{
closed = 1;
nodes = (
"325 -166 OFFCURVE",
"356 -140 OFFCURVE",
"363 -108 CURVE SMOOTH",
"369 -76 OFFCURVE",
"349 -50 OFFCURVE",
"319 -50 CURVE SMOOTH",
"287 -50 OFFCURVE",
"254 -76 OFFCURVE",
"248 -108 CURVE SMOOTH",
"241 -140 OFFCURVE",
"262 -166 OFFCURVE",
"294 -166 CURVE SMOOTH"
);
},
{
closed = 1;
nodes = (
"165 65 OFFCURVE",
"135 134 OFFCURVE",
"157 239 CURVE SMOOTH",
"180 344 OFFCURVE",
"269 414 OFFCURVE",
"367 414 CURVE SMOOTH",
"450 414 OFFCURVE",
"509 367 OFFCURVE",
"516 293 CURVE",
"493 185 LINE",
"452 111 OFFCURVE",
"375 65 OFFCURVE",
"293 65 CURVE SMOOTH"
);
},
{
closed = 1;
nodes = (
"363 534 LINE",
"470 641 LINE",
"531 534 LINE",
"630 534 LINE",
"524 700 LINE",
"435 700 LINE",
"258 534 LINE"
);
}
);
width = 655;
}
);
leftKerningGroup = a;
note = acircumflexdotbelow;
rightKerningGroup = a;
unicode = 1EAD;
},
{
glyphname = acircumflexgrave;
lastChange = "2015-10-28 09:02:17 +0000";
layers = (
{
layerId = "493B3A41-641C-4718-8E4F-15C1585391FA";
name = "Regular Italic";
paths = (
{
closed = 1;
nodes = (
"340 -15 OFFCURVE",
"406 11 OFFCURVE",
"471 70 CURVE",
"457 0 LINE",
"555 0 LINE",
"657 480 LINE",
"556 480 LINE",
"542 416 LINE",
"508 469 OFFCURVE",
"446 495 OFFCURVE",
"362 495 CURVE SMOOTH",
"216 495 OFFCURVE",
"88 391 OFFCURVE",
"55 239 CURVE SMOOTH",
"22 84 OFFCURVE",
"120 -15 OFFCURVE",
"253 -15 CURVE SMOOTH"
);
},
{
closed = 1;
nodes = (
"165 65 OFFCURVE",
"135 134 OFFCURVE",
"157 239 CURVE SMOOTH",
"180 344 OFFCURVE",
"269 414 OFFCURVE",
"367 414 CURVE SMOOTH",
"450 414 OFFCURVE",
"509 367 OFFCURVE",
"516 293 CURVE",
"493 185 LINE",
"452 111 OFFCURVE",
"375 65 OFFCURVE",
"293 65 CURVE SMOOTH"
);
},
{
closed = 1;
nodes = (
"368 635 LINE",
"328 759 LINE",
"237 759 LINE",
"290 635 LINE"
);
},
{
closed = 1;
nodes = (
"378 534 LINE",
"479 624 LINE",
"542 534 LINE",
"637 534 LINE",
"531 679 LINE",
"445 679 LINE",
"276 534 LINE"
);
}
);
width = 655;
}
);
leftKerningGroup = a;
note = acircumflexgrave;
rightKerningGroup = a;
unicode = 1EA7;
},
{
glyphname = acircumflexhookabove;
lastChange = "2015-10-28 09:02:17 +0000";
layers = (
{
layerId = "493B3A41-641C-4718-8E4F-15C1585391FA";
name = "Regular Italic";
paths = (
{
closed = 1;
nodes = (
"340 -15 OFFCURVE",
"406 11 OFFCURVE",
"471 70 CURVE",
"457 0 LINE",
"555 0 LINE",
"657 480 LINE",
"556 480 LINE",
"542 416 LINE",
"508 469 OFFCURVE",
"446 495 OFFCURVE",
"362 495 CURVE SMOOTH",
"216 495 OFFCURVE",
"88 391 OFFCURVE",
"55 239 CURVE SMOOTH",
"22 84 OFFCURVE",
"120 -15 OFFCURVE",
"253 -15 CURVE SMOOTH"
);
},
{
closed = 1;
nodes = (
"165 65 OFFCURVE",
"135 134 OFFCURVE",
"157 239 CURVE SMOOTH",
"180 344 OFFCURVE",
"269 414 OFFCURVE",
"367 414 CURVE SMOOTH",
"450 414 OFFCURVE",
"509 367 OFFCURVE",
"516 293 CURVE",
"493 185 LINE",
"452 111 OFFCURVE",
"375 65 OFFCURVE",
"293 65 CURVE SMOOTH"
);
},
{
closed = 1;
nodes = (
"371 534 LINE",
"472 624 LINE",
"535 534 LINE",
"630 534 LINE",
"524 679 LINE",
"438 679 LINE",
"269 534 LINE"
);
},
{
closed = 1;
nodes = (
"647 626 LINE",
"652 651 LINE",
"695 657 OFFCURVE",
"725 683 OFFCURVE",
"732 716 CURVE SMOOTH",
"741 757 OFFCURVE",
"713 784 OFFCURVE",
"655 784 CURVE SMOOTH",
"633 784 OFFCURVE",
"604 779 OFFCURVE",
"588 774 CURVE",
"579 731 LINE",
"590 736 OFFCURVE",
"608 739 OFFCURVE",
"623 739 CURVE SMOOTH",
"652 739 OFFCURVE",
"664 731 OFFCURVE",
"660 710 CURVE",
"654 686 OFFCURVE",
"633 676 OFFCURVE",
"594 676 CURVE",
"584 626 LINE"
);
}
);
width = 651;
}
);
leftKerningGroup = a;
note = acircumflexhookabove;
rightKerningGroup = a;
unicode = 1EA9;
},
{
glyphname = acircumflextilde;
lastChange = "2015-10-28 09:02:19 +0000";
layers = (
{
layerId = "493B3A41-641C-4718-8E4F-15C1585391FA";
name = "Regular Italic";
paths = (
{
closed = 1;
nodes = (
"340 -15 OFFCURVE",
"406 11 OFFCURVE",
"471 70 CURVE",
"457 0 LINE",
"555 0 LINE",
"657 480 LINE",
"556 480 LINE",
"542 416 LINE",
"508 469 OFFCURVE",
"446 495 OFFCURVE",
"362 495 CURVE SMOOTH",
"216 495 OFFCURVE",
"88 391 OFFCURVE",
"55 239 CURVE SMOOTH",
"22 84 OFFCURVE",
"120 -15 OFFCURVE",
"253 -15 CURVE SMOOTH"
);
},
{
closed = 1;
nodes = (
"165 65 OFFCURVE",
"135 134 OFFCURVE",
"157 239 CURVE SMOOTH",
"180 344 OFFCURVE",
"269 414 OFFCURVE",
"367 414 CURVE SMOOTH",
"450 414 OFFCURVE",
"509 367 OFFCURVE",
"516 293 CURVE",
"493 185 LINE",
"452 111 OFFCURVE",
"375 65 OFFCURVE",
"293 65 CURVE SMOOTH"
);
},
{
closed = 1;
nodes = (
"375 534 LINE",
"476 624 LINE",
"539 534 LINE",
"634 534 LINE",
"528 679 LINE",
"442 679 LINE",
"273 534 LINE"
);
},
{
closed = 1;
nodes = (
"364 720 OFFCURVE",
"391 731 OFFCURVE",
"422 731 CURVE SMOOTH",
"473 731 OFFCURVE",
"510 688 OFFCURVE",
"569 688 CURVE SMOOTH",
"604 688 OFFCURVE",
"633 697 OFFCURVE",
"656 723 CURVE",
"672 798 LINE",
"642 765 OFFCURVE",
"613 754 OFFCURVE",
"583 754 CURVE SMOOTH",
"531 754 OFFCURVE",
"491 798 OFFCURVE",
"436 798 CURVE SMOOTH",
"401 798 OFFCURVE",
"371 788 OFFCURVE",
"348 762 CURVE",
"332 687 LINE"
);
}
);
width = 655;
}
);
leftKerningGroup = a;
note = acircumflextilde;
rightKerningGroup = a;
unicode = 1EAB;
},
{
glyphname = adieresis;
lastChange = "2015-10-28 09:02:17 +0000";
layers = (
{
layerId = "493B3A41-641C-4718-8E4F-15C1585391FA";
name = "Regular Italic";
paths = (
{
closed = 1;
nodes = (
"340 -15 OFFCURVE",
"406 11 OFFCURVE",
"471 70 CURVE",
"457 0 LINE",
"555 0 LINE",
"657 480 LINE",
"556 480 LINE",
"542 416 LINE",
"508 469 OFFCURVE",
"446 495 OFFCURVE",
"362 495 CURVE SMOOTH",
"216 495 OFFCURVE",
"88 391 OFFCURVE",
"55 239 CURVE SMOOTH",
"22 84 OFFCURVE",
"120 -15 OFFCURVE",
"253 -15 CURVE SMOOTH"
);
},
{
closed = 1;
nodes = (
"165 65 OFFCURVE",
"135 134 OFFCURVE",
"157 239 CURVE SMOOTH",
"180 344 OFFCURVE",
"269 414 OFFCURVE",
"367 414 CURVE SMOOTH",
"450 414 OFFCURVE",
"509 367 OFFCURVE",
"516 293 CURVE",
"493 185 LINE",
"452 111 OFFCURVE",
"375 65 OFFCURVE",
"293 65 CURVE SMOOTH"
);
},
{
closed = 1;
nodes = (
"364 530 OFFCURVE",
"395 556 OFFCURVE",
"402 588 CURVE SMOOTH",
"409 620 OFFCURVE",
"389 646 OFFCURVE",
"358 646 CURVE SMOOTH",
"326 646 OFFCURVE",
"294 620 OFFCURVE",
"287 588 CURVE SMOOTH",
"280 556 OFFCURVE",
"302 530 OFFCURVE",
"333 530 CURVE SMOOTH"
);
},
{
closed = 1;
nodes = (
"591 530 OFFCURVE",
"622 556 OFFCURVE",
"629 588 CURVE SMOOTH",
"636 620 OFFCURVE",
"616 646 OFFCURVE",
"585 646 CURVE SMOOTH",
"553 646 OFFCURVE",
"520 620 OFFCURVE",
"513 588 CURVE SMOOTH",
"506 556 OFFCURVE",
"528 530 OFFCURVE",
"560 530 CURVE SMOOTH"
);
}
);
width = 655;
}
);
leftKerningGroup = a;
note = adieresis;
rightKerningGroup = a;
unicode = 00E4;
},
{
glyphname = adotbelow;
lastChange = "2015-10-28 09:02:18 +0000";
layers = (
{
layerId = "493B3A41-641C-4718-8E4F-15C1585391FA";
name = "Regular Italic";
paths = (
{
closed = 1;
nodes = (
"340 -15 OFFCURVE",
"406 11 OFFCURVE",
"471 70 CURVE",
"457 0 LINE",
"555 0 LINE",
"657 480 LINE",
"556 480 LINE",
"542 416 LINE",
"508 469 OFFCURVE",
"446 495 OFFCURVE",
"362 495 CURVE SMOOTH",
"216 495 OFFCURVE",
"88 391 OFFCURVE",
"55 239 CURVE SMOOTH",
"22 84 OFFCURVE",
"120 -15 OFFCURVE",
"253 -15 CURVE SMOOTH"
);
},
{
closed = 1;
nodes = (
"322 -166 OFFCURVE",
"353 -140 OFFCURVE",
"360 -108 CURVE SMOOTH",
"366 -76 OFFCURVE",
"346 -50 OFFCURVE",
"316 -50 CURVE SMOOTH",
"284 -50 OFFCURVE",
"251 -76 OFFCURVE",
"245 -108 CURVE SMOOTH",
"238 -140 OFFCURVE",
"259 -166 OFFCURVE",
"291 -166 CURVE SMOOTH"
);
},
{
closed = 1;
nodes = (
"165 65 OFFCURVE",
"135 134 OFFCURVE",
"157 239 CURVE SMOOTH",
"180 344 OFFCURVE",
"269 414 OFFCURVE",
"367 414 CURVE SMOOTH",
"450 414 OFFCURVE",
"509 367 OFFCURVE",
"516 293 CURVE",
"493 185 LINE",
"452 111 OFFCURVE",
"375 65 OFFCURVE",
"293 65 CURVE SMOOTH"
);
}
);
width = 655;
}
);
leftKerningGroup = a;
note = adotbelow;
rightKerningGroup = a;
unicode = 1EA1;
},
{
glyphname = agrave;
lastChange = "2015-10-28 09:02:19 +0000";
layers = (
{
layerId = "493B3A41-641C-4718-8E4F-15C1585391FA";
name = "Regular Italic";
paths = (
{
closed = 1;
nodes = (
"340 -15 OFFCURVE",
"406 11 OFFCURVE",
"471 70 CURVE",
"457 0 LINE",
"555 0 LINE",
"657 480 LINE",
"556 480 LINE",
"542 416 LINE",
"508 469 OFFCURVE",
"446 495 OFFCURVE",
"362 495 CURVE SMOOTH",
"216 495 OFFCURVE",
"88 391 OFFCURVE",
"55 239 CURVE SMOOTH",
"22 84 OFFCURVE",
"120 -15 OFFCURVE",
"253 -15 CURVE SMOOTH"
);
},
{
closed = 1;
nodes = (
"165 65 OFFCURVE",
"135 134 OFFCURVE",
"157 239 CURVE SMOOTH",
"180 344 OFFCURVE",
"269 414 OFFCURVE",
"367 414 CURVE SMOOTH",
"450 414 OFFCURVE",
"509 367 OFFCURVE",
"516 293 CURVE",
"493 185 LINE",
"452 111 OFFCURVE",
"375 65 OFFCURVE",
"293 65 CURVE SMOOTH"
);
},
{
closed = 1;
nodes = (
"506 534 LINE",
"474 706 LINE",
"367 706 LINE",
"413 534 LINE"
);
}
);
width = 655;
}
);
leftKerningGroup = a;
note = agrave;
rightKerningGroup = a;
unicode = 00E0;
},
{
glyphname = ahookabove;
lastChange = "2015-10-28 09:02:17 +0000";
layers = (
{
layerId = "493B3A41-641C-4718-8E4F-15C1585391FA";
name = "Regular Italic";
paths = (
{
closed = 1;
nodes = (
"340 -15 OFFCURVE",
"406 11 OFFCURVE",
"471 70 CURVE",
"457 0 LINE",
"555 0 LINE",
"657 480 LINE",
"556 480 LINE",
"542 416 LINE",
"508 469 OFFCURVE",
"446 495 OFFCURVE",
"362 495 CURVE SMOOTH",
"216 495 OFFCURVE",
"88 391 OFFCURVE",
"55 239 CURVE SMOOTH",
"22 84 OFFCURVE",
"120 -15 OFFCURVE",
"253 -15 CURVE SMOOTH"
);
},
{
closed = 1;
nodes = (
"165 65 OFFCURVE",
"135 134 OFFCURVE",
"157 239 CURVE SMOOTH",
"180 344 OFFCURVE",
"269 414 OFFCURVE",
"367 414 CURVE SMOOTH",
"450 414 OFFCURVE",
"509 367 OFFCURVE",
"516 293 CURVE",
"493 185 LINE",
"452 111 OFFCURVE",
"375 65 OFFCURVE",
"293 65 CURVE SMOOTH"
);
},
{
closed = 1;
nodes = (
"498 535 LINE",
"505 569 LINE",
"567 577 OFFCURVE",
"607 615 OFFCURVE",
"617 663 CURVE SMOOTH",
"629 720 OFFCURVE",
"595 760 OFFCURVE",
"507 760 CURVE SMOOTH",
"475 760 OFFCURVE",
"438 754 OFFCURVE",
"417 747 CURVE",
"405 692 LINE",
"419 698 OFFCURVE",
"455 703 OFFCURVE",
"471 703 CURVE SMOOTH",
"517 703 OFFCURVE",
"534 690 OFFCURVE",
"527 659 CURVE SMOOTH",
"519 620 OFFCURVE",
"484 606 OFFCURVE",
"424 606 CURVE",
"409 535 LINE"
);
}
);
width = 655;
}
);
leftKerningGroup = a;
note = ahookabove;
rightKerningGroup = a;
unicode = 1EA3;
},
{
glyphname = "alpha-latin";
lastChange = "2015-10-28 09:02:18 +0000";
layers = (
{
layerId = "493B3A41-641C-4718-8E4F-15C1585391FA";
name = "Regular Italic";
paths = (
{
closed = 1;
nodes = (
"340 -15 OFFCURVE",
"406 11 OFFCURVE",
"471 70 CURVE",
"457 0 LINE",
"555 0 LINE",
"657 480 LINE",
"556 480 LINE",
"542 416 LINE",
"508 469 OFFCURVE",
"446 495 OFFCURVE",
"362 495 CURVE SMOOTH",
"216 495 OFFCURVE",
"88 391 OFFCURVE",
"55 239 CURVE SMOOTH",
"22 84 OFFCURVE",
"120 -15 OFFCURVE",
"253 -15 CURVE SMOOTH"
);
},
{
closed = 1;
nodes = (
"165 65 OFFCURVE",
"135 134 OFFCURVE",
"157 239 CURVE SMOOTH",
"180 344 OFFCURVE",
"269 414 OFFCURVE",
"367 414 CURVE SMOOTH",
"450 414 OFFCURVE",
"509 367 OFFCURVE",
"516 293 CURVE",
"493 185 LINE",
"452 111 OFFCURVE",
"375 65 OFFCURVE",
"293 65 CURVE SMOOTH"
);
}
);
width = 660;
}
);
leftKerningGroup = a;
note = ascript;
rightKerningGroup = a;
unicode = 0251;
},
{
glyphname = amacron;
lastChange = "2015-10-28 09:02:18 +0000";
layers = (
{
layerId = "493B3A41-641C-4718-8E4F-15C1585391FA";
name = "Regular Italic";
paths = (
{
closed = 1;
nodes = (
"340 -15 OFFCURVE",
"406 11 OFFCURVE",
"471 70 CURVE",
"457 0 LINE",
"555 0 LINE",
"657 480 LINE",
"556 480 LINE",
"542 416 LINE",
"508 469 OFFCURVE",
"446 495 OFFCURVE",
"362 495 CURVE SMOOTH",
"216 495 OFFCURVE",
"88 391 OFFCURVE",
"55 239 CURVE SMOOTH",
"22 84 OFFCURVE",
"120 -15 OFFCURVE",
"253 -15 CURVE SMOOTH"
);
},
{
closed = 1;
nodes = (
"165 65 OFFCURVE",
"135 134 OFFCURVE",
"157 239 CURVE SMOOTH",
"180 344 OFFCURVE",
"269 414 OFFCURVE",
"367 414 CURVE SMOOTH",
"450 414 OFFCURVE",
"509 367 OFFCURVE",
"516 293 CURVE",
"493 185 LINE",
"452 111 OFFCURVE",
"375 65 OFFCURVE",
"293 65 CURVE SMOOTH"
);
},
{
closed = 1;
nodes = (
"620 545 LINE",
"635 614 LINE",
"324 614 LINE",
"309 545 LINE"
);
}
);
width = 655;
}
);
leftKerningGroup = a;
note = amacron;
rightKerningGroup = a;
unicode = 0101;
},
